<svg width="2000" height="2000" viewBox="0 0 2000 2000" fill="none" xmlns="http://www.w3.org/2000/svg">
<g clip-path="url(#clip0_2028_72)">
<path d="M1590.54 932.568C1614.67 943.221 1566.47 1024.57 1560.25 1024.74C1554.02 1024.92 1566.41 921.92 1590.54 932.568Z" fill="#0B4C52"/>
<path d="M1538.08 1048.82C1538.08 1048.82 1490.39 987.532 1511.1 972.223C1531.81 956.91 1546.32 1050.27 1538.08 1048.82Z" fill="#0B4C52"/>
<path d="M1633.59 1019C1637.44 1048.66 1555.72 1069.89 1550.12 1066.75C1544.51 1063.61 1629.75 989.353 1633.59 1019Z" fill="#0B4C52"/>
<path d="M1517.55 1087.2C1517.55 1087.2 1465.57 1048.02 1480.69 1028.7C1495.81 1009.38 1524.6 1081.66 1517.55 1087.2Z" fill="#0B4C52"/>
<path d="M1620.77 1085.06C1616.28 1118.92 1536.61 1121.48 1531.49 1115.73C1526.36 1109.99 1625.26 1051.2 1620.77 1085.06Z" fill="#0B4C52"/>
<path d="M1485.61 1137.77C1485.61 1137.77 1443.94 1080.93 1467.57 1073.06C1491.2 1065.2 1496.05 1137.51 1485.61 1137.77Z" fill="#0B4C52"/>
<path d="M1593.99 1144.83C1585.13 1179.48 1496.54 1169.71 1491.88 1162.67C1487.21 1155.63 1602.85 1110.17 1593.99 1144.83Z" fill="#0B4C52"/>
<path d="M1455.45 1178.38C1455.45 1178.38 1411.01 1130.63 1433.91 1114.49C1456.81 1098.35 1466.35 1177.26 1455.45 1178.38Z" fill="#0B4C52"/>
<path d="M1540.9 1193.76C1537.73 1226.77 1451.57 1227.04 1449.17 1215.25C1446.76 1203.47 1544.07 1160.74 1540.9 1193.76Z" fill="#0B4C52"/>
<path d="M1568.57 993.408C1568.57 993.408 1510.54 1203.59 1358.65 1270.74" stroke="#331336" stroke-width="1.33333" stroke-miterlimit="10" stroke-linejoin="round"/>
<path d="M1449.37 1149.98C1449.37 1149.98 1457.71 1179.23 1454.78 1199.81" stroke="#331336" stroke-width="1.33333" stroke-miterlimit="10" stroke-linejoin="round"/>
<path d="M1478.94 1100.75C1478.94 1100.75 1487.66 1151 1486.38 1161.3" stroke="#331336" stroke-width="1.33333" stroke-miterlimit="10" stroke-linejoin="round"/>
<path d="M1562.82 1108.07C1562.82 1108.07 1516.27 1115.38 1504.55 1133.24" stroke="#331336" stroke-width="1.33333" stroke-miterlimit="10" stroke-linejoin="round"/>
<path d="M1506.84 1063.28C1506.84 1063.28 1521.49 1090.05 1519.71 1108.44" stroke="#331336" stroke-width="1.33333" stroke-miterlimit="10" stroke-linejoin="round"/>
<path d="M1580.78 1048.33C1580.78 1048.33 1540.29 1067.9 1533.05 1081.77" stroke="#331336" stroke-width="1.33333" stroke-miterlimit="10" stroke-linejoin="round"/>
<path d="M1525.79 1010.92C1525.79 1010.92 1540.99 1048.38 1541.46 1064.23" stroke="#331336" stroke-width="1.33333" stroke-miterlimit="10" stroke-linejoin="round"/>
<path d="M1545.41 1156.41C1545.41 1156.41 1492.74 1155.88 1480.71 1169.67" stroke="#331336" stroke-width="1.33333" stroke-miterlimit="10" stroke-linejoin="round"/>
<path d="M1507.79 1202.55C1507.79 1202.55 1443.9 1211.41 1435.66 1219.01" stroke="#331336" stroke-width="1.33333" stroke-miterlimit="10" stroke-linejoin="round"/>
<path d="M292.141 903.242C292.141 903.242 258.082 911.816 207.699 909.242C157.313 906.669 122 843.74 122 843.74C122 843.74 229.428 798.967 292.141 903.242Z" fill="#7EC1B2"/>
<path d="M318.61 867.188C318.61 867.188 276.409 856.231 253.984 825.783C231.561 795.334 247.311 738.161 247.311 738.161C247.311 738.161 325.757 794.571 318.61 867.188Z" fill="#7EC1B2"/>
<path d="M351.764 979.836C351.764 979.836 326.751 1009.08 284.308 1009.47C241.863 1009.86 195.392 972.563 195.392 972.563C195.392 972.563 288.564 898.258 351.764 979.836Z" fill="#7EC1B2"/>
<path d="M388.52 917.404C388.52 917.404 359.409 910.321 345.327 867.133C331.244 823.94 381.094 769.688 381.094 769.688C381.094 769.688 461.671 868.172 388.52 917.404Z" fill="#7EC1B2"/>
<path d="M397.588 1105.88C397.588 1105.88 361.384 1126.71 323.127 1114.73C284.868 1102.76 259.414 1062.2 259.414 1062.2C259.414 1062.2 359.428 1030.67 397.588 1105.88Z" fill="#7EC1B2"/>
<path d="M461.663 1135.57C461.663 1135.57 443.093 1175.64 411.383 1190.59C379.677 1205.55 340.308 1186.41 340.308 1186.41C340.308 1186.41 415.992 1109.98 461.663 1135.57Z" fill="#7EC1B2"/>
<path d="M426.928 1083.52C427.019 1086.21 407.701 1095.41 386.696 1077.71C365.695 1060.01 360.693 1030.7 360.693 1030.7C360.693 1030.7 424.92 1021.97 426.928 1083.52Z" fill="#7EC1B2"/>
<path d="M532.772 960.494C532.772 960.494 508.834 941.469 507.277 919.962C505.715 898.455 557.845 841.167 557.845 841.167C557.845 841.167 565.383 852.61 572.794 889.209C580.206 925.804 532.772 960.494 532.772 960.494Z" fill="#7EC1B2"/>
<path d="M544.394 1004.79C544.394 1004.79 543.137 958.004 581.464 937.442C608.371 923.006 638.7 929.398 638.7 929.398C638.7 929.398 594.646 1003.24 544.394 1004.79Z" fill="#7EC1B2"/>
<path d="M519.453 1048.86C519.453 1048.86 478.708 1028.72 464.367 1000.42C450.026 972.119 471.893 923.847 471.893 923.847C471.893 923.847 536.201 980.084 519.453 1048.86Z" fill="#7EC1B2"/>
<path d="M277.685 892.871C277.685 892.871 331.119 915.948 370.374 945.949C409.626 975.955 549.449 1151.28 575.605 1178.59" stroke="#331336" stroke-width="1.33333" stroke-miterlimit="10" stroke-linejoin="round"/>
<path d="M354.062 1096.22C354.062 1096.22 505.819 1127.77 545.513 1143.9" stroke="#331336" stroke-width="1.33333" stroke-miterlimit="10" stroke-linejoin="round"/>
<path d="M407.746 1066.81C407.746 1066.81 466.014 1116.76 485.45 1126.41" stroke="#331336" stroke-width="1.33333" stroke-miterlimit="10" stroke-linejoin="round"/>
<path d="M441.818 1141.08C441.818 1141.08 482.279 1125.59 515.222 1135.36" stroke="#331336" stroke-width="1.33333" stroke-miterlimit="10" stroke-linejoin="round"/>
<path d="M530.647 957.068C530.647 957.068 526.03 1097.4 558.491 1157.03" stroke="#331336" stroke-width="1.33333" stroke-miterlimit="10" stroke-linejoin="round"/>
<path d="M487.072 1004.39C487.072 1004.39 531.32 1054.62 535.905 1067.73" stroke="#331336" stroke-width="1.33333" stroke-miterlimit="10" stroke-linejoin="round"/>
<path d="M567.988 973.4C567.988 973.4 533.132 1005.38 532.562 1043.57" stroke="#331336" stroke-width="1.33333" stroke-miterlimit="10" stroke-linejoin="round"/>
<path d="M259.657 977.839C259.657 977.839 371.048 966.135 428.411 1007.58" stroke="#331336" stroke-width="1.33333" stroke-miterlimit="10" stroke-linejoin="round"/>
<path d="M379.952 833.277C379.952 833.277 379.7 930.73 412.062 987.077" stroke="#331336" stroke-width="1.33333" stroke-miterlimit="10" stroke-linejoin="round"/>
<path d="M266.994 800.963C266.994 800.963 350.869 909.293 361.878 939.916" stroke="#331336" stroke-width="1.33333" stroke-miterlimit="10" stroke-linejoin="round"/>
<path d="M308.243 1947.22C308.243 1947.22 588.971 1266.73 581.429 1244.1C573.887 1221.47 479.063 948.683 477.177 894C475.292 839.313 522.022 621.928 549.605 604.639C596.773 575.076 625.032 636.696 628.803 661.207C632.57 685.723 636.345 846.001 636.345 846.001C636.345 846.001 908.195 457.547 945.589 421.734C995.019 374.388 1062.5 370.818 1071.92 389.677C1081.36 408.532 1070.04 442.475 1070.04 442.475C1070.04 442.475 1109.64 402.875 1137.92 431.162C1166.21 459.444 1124.73 555.612 1124.73 555.612C1124.73 555.612 1185.07 512.242 1205.81 523.555C1226.55 534.872 1243.52 544.299 1235.98 582.013C1228.44 619.722 1160.55 723.436 1160.55 723.436C1160.55 723.436 1228.44 649.894 1251.07 664.982C1273.69 680.066 1281.24 691.379 1273.69 721.551C1266.15 751.719 1120.95 913.886 1111.53 949.711C1102.1 985.539 985.184 1295.37 985.184 1295.37L787.196 2912.67" fill="#FEAD90"/>
<path d="M812.194 1302.15L982.742 1325.28" stroke="#331336" stroke-width="1.33333" stroke-miterlimit="10" stroke-linejoin="round"/>
<path d="M1160.55 723.44C1160.55 723.44 1228.44 619.726 1235.98 582.017C1243.52 544.303 1226.55 534.875 1205.81 523.559C1185.07 512.246 1124.73 555.616 1124.73 555.616C1124.73 555.616 1166.21 459.448 1137.92 431.166C1109.64 402.879 1070.04 442.479 1070.04 442.479C1070.04 442.479 1081.36 408.536 1071.92 389.681C1066.69 379.218 1043.58 375.676 1015.6 382.673C1005.16 439.21 985.01 508.51 978.35 522.752C968.59 543.615 819.214 595.132 819.214 595.132C810.419 635.597 1158.76 808.006 1158.76 808.006C1158.76 808.006 1199.64 740.196 1234.16 664.836C1205.21 675.058 1160.55 723.44 1160.55 723.44Z" fill="#FF7F80"/>
<path d="M1070.04 442.48C1070.04 442.48 1023.29 489.577 1018.02 503.649C1012.74 517.725 915.975 714.765 915.975 714.765" stroke="#331336" stroke-width="2" stroke-miterlimit="10" stroke-linejoin="round"/>
<path d="M636.326 845.184C636.318 844.939 636.314 844.643 636.302 844.291C636.294 843.9 636.282 843.437 636.27 842.919C636.255 842.327 636.239 841.666 636.219 840.919C636.211 840.528 636.199 840.105 636.191 839.674C636.183 839.413 636.179 839.16 636.172 838.884C636.148 837.967 636.12 836.963 636.096 835.891C636.065 834.741 636.033 833.5 636.002 832.184C635.97 830.974 635.938 829.705 635.903 828.365C635.879 827.5 635.855 826.614 635.832 825.697C635.832 825.614 635.828 825.527 635.824 825.444C635.804 824.654 635.784 823.831 635.761 823.001C635.749 822.531 635.737 822.045 635.721 821.562C635.705 820.946 635.689 820.321 635.674 819.689C635.662 819.282 635.65 818.874 635.638 818.463C635.614 817.487 635.587 816.503 635.559 815.491C635.559 815.471 635.559 815.455 635.559 815.44C635.456 811.795 635.349 807.909 635.235 803.838C635.235 803.81 635.235 803.783 635.235 803.755C635.199 802.542 635.164 801.304 635.128 800.059C635.12 799.775 635.112 799.49 635.104 799.205C635.029 796.664 634.954 794.059 634.879 791.403C634.871 791.225 634.867 791.051 634.859 790.869C634.693 785.129 634.507 779.157 634.318 773.058C634.31 772.864 634.306 772.674 634.298 772.48C634.258 771.184 634.219 769.879 634.175 768.571C634.164 768.29 634.156 768.018 634.148 767.737C633.95 761.626 633.745 755.424 633.531 749.238C633.519 748.949 633.511 748.665 633.5 748.376C633.456 747.107 633.409 745.846 633.365 744.582C633.357 744.325 633.349 744.068 633.337 743.811C633.286 742.309 633.231 740.807 633.175 739.308C617.669 743.605 553.337 914.738 575.994 1013.77C619.103 1202.23 741.047 1251.5 798.94 1269.98C798.94 1269.98 896.855 1300.16 991.315 1279.1C1015.49 1214.85 1103.4 980.588 1111.53 949.716C1114.43 938.676 1130.24 915.627 1150.93 888.159C1149.66 881.281 1148.33 874.317 1146.87 867.205C1141.81 842.477 875.799 746.518 714.666 734.85C669.715 798.324 636.346 846.007 636.346 846.007C636.346 846.007 636.346 845.951 636.342 845.848C636.338 845.718 636.334 845.489 636.326 845.184Z" fill="#FF7F80"/>
<path d="M921.681 1814.09L787.194 2912.67" stroke="#331336" stroke-width="2" stroke-miterlimit="10" stroke-linejoin="round"/>
<path d="M477.176 894C475.291 839.312 522.021 621.928 549.604 604.638C596.773 575.075 625.031 636.696 628.802 661.207C632.569 685.722 636.344 846.001 636.344 846.001C636.344 846.001 908.194 457.547 945.588 421.734C995.018 374.387 1062.5 370.818 1071.92 389.677C1081.35 408.532 1070.04 442.475 1070.04 442.475C1070.04 442.475 1109.64 402.875 1137.92 431.162C1166.21 459.444 1124.72 555.612 1124.72 555.612C1124.72 555.612 1185.06 512.242 1205.81 523.555C1226.55 534.871 1243.52 544.299 1235.98 582.012C1228.43 619.722 1160.55 723.436 1160.55 723.436C1160.55 723.436 1228.43 649.894 1251.06 664.982C1273.69 680.066 1281.24 691.379 1273.69 721.551C1266.15 751.718 1120.95 913.886 1111.53 949.71C1102.1 985.539 985.183 1295.37 985.183 1295.37L950.782 1576.38" stroke="#331336" stroke-width="2" stroke-miterlimit="10" stroke-linejoin="round"/>
<path d="M487.06 1505.08C540.541 1369.58 584.473 1253.23 581.429 1244.1" stroke="#331336" stroke-width="2" stroke-miterlimit="10" stroke-linejoin="round"/>
<path d="M308.243 1947.22C308.243 1947.22 364.753 1810.24 426.384 1657.14" stroke="#331336" stroke-width="2" stroke-miterlimit="10" stroke-linejoin="round"/>
<path d="M985.057 568.368C985.057 568.368 981.409 452.365 983.816 451.337C986.227 450.31 995.571 452.867 995.571 452.867L995.789 567.495L985.057 568.368Z" fill="#0B4C52"/>
<path d="M942.101 422.736C954.549 418.684 1032.36 421.704 1037.24 434.159C1042.12 446.611 1044.46 468.983 1036.99 471.414C1029.52 473.849 940.117 470.746 934.346 466.568C928.579 462.39 929.654 426.791 942.101 422.736Z" fill="#F7964C"/>
<path d="M1014.09 424.918C1026.35 427.056 1035.66 430.108 1037.24 434.159C1042.12 446.611 1044.46 468.983 1036.99 471.414C1029.52 473.849 940.117 470.746 934.346 466.568C928.579 462.39 929.654 426.791 942.101 422.736C946.947 421.162 961.687 420.652 978.179 421.356" stroke="#331336" stroke-width="2" stroke-miterlimit="10" stroke-linejoin="round"/>
<path d="M623.553 468.006C623.553 468.006 600.283 469.069 601.231 447.997C602.18 426.929 643.179 410.955 650.131 451.634L623.553 468.006Z" fill="#F7964C"/>
<path d="M624.773 499.052C624.773 499.052 609.401 476.573 610.721 471.647C612.041 466.726 646.352 443.61 654.898 445.179C663.44 446.745 672.816 469.209 672.816 469.209L624.773 499.052Z" fill="#0B4C52"/>
<path d="M551.55 681.047C551.55 681.047 504.686 596.442 528.845 562.143C553.001 527.845 716.528 413.869 767.298 416.364C818.064 418.858 865.96 475.869 864.466 483.447C862.976 491.02 557.305 702.037 551.55 681.047Z" fill="#FFAD51"/>
<path d="M547.952 628.705C547.952 628.705 528.836 584.137 541.011 562.914C553.185 541.687 720.318 431.017 749.079 437.48C777.839 443.943 799.686 474.174 799.686 474.174L547.952 628.705Z" fill="#FF9F7F"/>
<path d="M553.427 671.41C555.826 640.61 855.496 455.642 854.492 476.118C853.488 496.593 552.209 687.055 553.427 671.41Z" fill="#EF3333"/>
<path d="M692.713 564.468L752.448 653.26L777.603 634.63L719.671 546.245L692.713 564.468Z" fill="#0B4C52"/>
<path d="M777.603 634.629L719.671 546.245L692.713 564.467L727.925 616.802" stroke="#331336" stroke-width="2" stroke-miterlimit="10" stroke-linejoin="round"/>
<path d="M739.262 633.666L752.444 653.26" stroke="#331336" stroke-width="2" stroke-miterlimit="10" stroke-linejoin="round"/>
<path d="M1325.21 479.008C1325.21 479.008 1348.3 482.048 1349.16 460.975C1350.01 439.903 1310.52 420.494 1300.12 460.434L1325.21 479.008Z" fill="#F7964C"/>
<path d="M1321.35 509.835C1321.35 509.835 1338.58 488.747 1337.69 483.731C1336.79 478.715 1304.57 452.76 1295.93 453.59C1287.28 454.425 1276.02 476.007 1276.02 476.007L1321.35 509.835Z" fill="#0B4C52"/>
<path d="M1378.8 697.408C1378.8 697.408 1432.7 617.102 1411.55 580.871C1390.41 544.64 1237.19 417.142 1186.39 415.304C1135.6 413.462 1083.02 466.188 1083.86 473.865C1084.7 481.537 1371.28 717.828 1378.8 697.408Z" fill="#FFAD51"/>
<path d="M1186.39 415.304C1135.6 413.461 1083.02 466.188 1083.86 473.864C1084.31 478.015 1168.37 549.051 1246.64 610.173" stroke="#331336" stroke-width="2" stroke-miterlimit="10" stroke-linejoin="round"/>
<path d="M1302.56 652.733C1344.5 683.612 1376.36 704.036 1378.8 697.408C1378.8 697.408 1432.7 617.102 1411.55 580.871C1396.65 555.332 1316.13 484.454 1252.11 444.195" stroke="#331336" stroke-width="2" stroke-miterlimit="10" stroke-linejoin="round"/>
<path d="M1127.27 457.717C1127.27 457.717 1164.5 424.17 1188.18 430.083C1211.86 436.001 1348.99 528.291 1353.88 548.984C1358.77 569.677 1344.76 604.145 1344.76 604.145L1127.27 457.717Z" fill="#FF9F7F"/>
<path d="M1377.75 687.644C1377.98 656.753 1095.16 446.926 1094.42 467.414C1093.68 487.897 1377.63 703.337 1377.75 687.644Z" fill="#EF3333"/>
<path d="M1248.09 569.226L1181 652.603L1157.53 631.898L1222.78 548.77L1248.09 569.226Z" fill="#0B4C52"/>
<path d="M1187.78 593.354L1222.78 548.77L1248.09 569.226L1181 652.603L1157.53 631.898L1175.17 609.422" stroke="#331336" stroke-width="2" stroke-miterlimit="10" stroke-linejoin="round"/>
<path d="M775.063 1140.45C775.063 1140.45 694.964 1289.5 700.486 1296.01C706.008 1302.51 739.955 1327.54 748.603 1323.83C757.252 1320.12 865.369 1196.6 865.369 1196.6L775.063 1140.45Z" fill="#F36551"/>
<path d="M707.546 1274.04C702.213 1286.21 699.268 1294.57 700.486 1296.01C706.008 1302.51 739.955 1327.54 748.603 1323.83C757.252 1320.12 865.369 1196.6 865.369 1196.6L775.063 1140.45C775.063 1140.45 742.805 1200.48 720.641 1246" stroke="#331336" stroke-width="2" stroke-miterlimit="10" stroke-linejoin="round"/>
<path d="M1194.63 1124.03C1194.63 1124.03 1267.54 1276.73 1261.71 1282.97C1255.89 1289.2 1220.79 1312.58 1212.32 1308.47C1203.86 1304.35 1101.75 1175.81 1101.75 1175.81L1194.63 1124.03Z" fill="#F36551"/>
<path d="M1161.03 1249.37C1132.07 1213.97 1101.75 1175.81 1101.75 1175.81L1194.63 1124.03C1194.63 1124.03 1267.54 1276.73 1261.71 1282.97C1255.89 1289.2 1220.79 1312.58 1212.32 1308.47C1209.78 1307.23 1198.8 1294.78 1184.68 1277.96" stroke="#331336" stroke-width="2" stroke-miterlimit="10" stroke-linejoin="round"/>
<path d="M977.713 526.174C1335.42 519.723 1462.43 990.589 1231.99 1180.97C978.369 1390.51 671.505 1215.72 610.635 1055.83C509.689 790.66 682.462 531.502 977.713 526.174Z" fill="#7EC1B2"/>
<path d="M767.559 1221.19C691.108 1178.09 633.508 1115.91 610.637 1055.83C568.697 945.668 574.002 836.543 615.704 746.226" stroke="#331336" stroke-width="2" stroke-miterlimit="10" stroke-linejoin="round"/>
<path d="M1176.65 1220.31C1046.1 1298.93 907.535 1287.69 798.939 1237.29" stroke="#331336" stroke-width="2" stroke-miterlimit="10" stroke-linejoin="round"/>
<path d="M1337.64 1006.96C1321.65 1074.08 1287.01 1135.52 1231.99 1180.97" stroke="#331336" stroke-width="2" stroke-miterlimit="10" stroke-linejoin="round"/>
<path d="M662.652 670.64C731.909 584.833 841.841 528.624 977.715 526.173C1172.46 522.659 1298.82 660.624 1336.36 817.779" stroke="#331336" stroke-width="2" stroke-miterlimit="10" stroke-linejoin="round"/>
<path d="M653.381 921.616C651.796 898.073 653.974 874.412 659.955 851.588C680.106 774.683 749.213 604.384 966.938 597.083C1285.97 586.387 1374.21 1028.95 1134.6 1159.88C898.827 1288.71 670.604 1177.22 653.381 921.616Z" fill="white"/>
<path d="M1134.6 1159.88C898.827 1288.71 670.604 1177.22 653.381 921.616C651.796 898.073 653.974 874.412 659.955 851.588C668.473 819.077 685.743 769.868 719.29 723.344" stroke="#331336" stroke-width="2" stroke-miterlimit="10" stroke-linejoin="round"/>
<path d="M978.389 930.042L1270.88 923.196C1272.7 869.493 1261.77 814.652 1239 765.613L978.389 930.042Z" fill="#F8A255"/>
<path d="M965.273 957.937C965.273 957.937 1001.98 722.595 1003.95 722.251C1005.92 721.911 1020.42 723.461 1020.42 723.461L994.923 960.27L965.273 957.937Z" fill="#0B4C52"/>
<path d="M1121.24 855.345C1121.24 855.345 1120.6 855.721 1119.41 856.413C1102.62 866.164 946.296 954.383 945.375 952.051C944.386 949.553 930.67 926.911 933.67 924.761C936.674 922.61 1111.73 842.254 1111.73 842.254L1121.24 855.345Z" fill="#0B4C52"/>
<path d="M983.803 905.013C969.051 905.104 973.363 928.161 986.858 924.433C999.658 920.891 995.638 904.934 983.803 905.013Z" fill="#F36551"/>
<path d="M977.604 677.522L983.56 617.562L1001.28 619.851L998.352 679.325L977.604 677.522Z" fill="#331336"/>
<path d="M933.474 1185.13L937.885 1125.78L958.764 1126.1L952.064 1186L933.474 1185.13Z" fill="#331336"/>
<path d="M1090.07 713.239L1125.57 664.557L1139.69 675.502L1107.04 725.303L1090.07 713.239Z" fill="#331336"/>
<path d="M794.972 1128.61L828.827 1079.67L846.67 1090.52L810.562 1138.77L794.972 1128.61Z" fill="#331336"/>
<path d="M1167.79 798.719L1222.78 774.085L1229.61 790.6L1176.54 817.617L1167.79 798.719Z" fill="#331336"/>
<path d="M705.396 1012.73L759.084 987.057L769.183 1005.33L713.879 1029.29L705.396 1012.73Z" fill="#331336"/>
<path d="M1192.9 908.998L1252.93 914.251L1250.85 931.999L1191.34 929.762L1192.9 908.998Z" fill="#331336"/>
<path d="M684.818 870.825L744.213 874.54L744.138 895.419L684.166 889.422L684.818 870.825Z" fill="#331336"/>
<path d="M1158.51 1021.87L1207.6 1056.8L1196.82 1071.05L1146.64 1038.99L1158.51 1021.87Z" fill="#331336"/>
<path d="M739.712 731.662L789.047 764.945L778.41 782.91L729.735 747.367L739.712 731.662Z" fill="#331336"/>
<path d="M1071.92 1101.66L1096.64 1156.61L1080.15 1163.46L1053.04 1110.44L1071.92 1101.66Z" fill="#331336"/>
<path d="M857.191 639.602L882.944 693.249L864.686 703.376L840.641 648.112L857.191 639.602Z" fill="#331336"/>
<path d="M1663.79 3195.82C1570.69 3046.85 1453.37 1819.77 1453.37 1819.77C1453.37 1819.77 1213.17 1588.88 1200.14 1555.36C1187.11 1521.85 1149.87 1369.16 1149.87 1333.78C1149.87 1298.4 1179.66 1140.13 1179.66 1140.13C1179.66 1140.13 1054.9 942.757 1051.18 916.688C1047.45 890.62 1067.94 875.722 1094 870.132C1120.07 864.547 1355.5 1120.49 1355.5 1120.49C1379.7 1124.21 1525.03 1179.48 1551.45 1188.54C1604.57 1206.75 1642.51 1228 1642.51 1228C1642.51 1228 1686.13 1223.92 1725.24 1244.4C1764.33 1264.89 1807.16 1655.91 1807.16 1655.91L2295.01 3089.68" fill="#FEAD90"/>
<path d="M1300.4 1304.76C1300.4 1304.76 1089.04 944.49 1071.41 920.445C1053.78 896.4 1066.6 881.977 1066.6 881.977C1066.14 882.139 1065.67 882.32 1065.21 882.498C1054.91 890.451 1049.04 901.721 1051.18 916.69C1054.9 942.763 1179.66 1140.13 1179.66 1140.13C1179.66 1140.13 1177.24 1152.98 1173.78 1172.16C1239.32 1242.97 1300.4 1304.76 1300.4 1304.76Z" fill="#FF7F80"/>
<path d="M1483.61 1666.29C1490.94 1672.15 1756.55 1867.41 1920 1987.53L1807.16 1655.91C1807.16 1655.91 1764.33 1264.89 1725.24 1244.4C1725.24 1244.4 1473.01 1657.8 1483.61 1666.29Z" fill="#FF7F80"/>
<path d="M1237.54 1218.68C1237.54 1218.68 1260.87 1422.33 1320.27 1479.61L1326.74 1389.42L1300.4 1304.75L1237.54 1218.68Z" fill="#FF7F80"/>
<path d="M1272.05 1031.9C1318.42 1080.18 1355.49 1120.49 1355.49 1120.49C1379.7 1124.21 1525.03 1179.48 1551.45 1188.54C1604.57 1206.75 1642.51 1228 1642.51 1228C1642.51 1228 1686.13 1223.92 1725.23 1244.4C1764.33 1264.89 1807.16 1655.91 1807.16 1655.91L2295.01 3089.68" stroke="#331336" stroke-width="2" stroke-miterlimit="10" stroke-linejoin="round"/>
<path d="M1149.87 1333.78C1149.87 1298.4 1179.66 1140.13 1179.66 1140.13C1179.66 1140.13 1054.9 942.757 1051.18 916.688C1047.45 890.619 1067.94 875.721 1094 870.132" stroke="#331336" stroke-width="2" stroke-miterlimit="10" stroke-linejoin="round"/>
<path d="M1663.78 3195.82C1570.68 3046.85 1453.37 1819.77 1453.37 1819.77" stroke="#331336" stroke-width="2" stroke-miterlimit="10" stroke-linejoin="round"/>
<path d="M1179.66 1140.13C1179.66 1140.13 1296.64 1289.7 1300.4 1304.75C1304.16 1319.8 1326.74 1389.42 1326.74 1389.42C1326.74 1389.42 1315.34 1475 1326.63 1522.03" stroke="#331336" stroke-width="2" stroke-miterlimit="10" stroke-linejoin="round"/>
<path d="M1355.5 1120.5C1355.5 1120.5 1424.68 1206.97 1445.96 1221.61C1467.25 1236.24 1516.48 1268.17 1521.8 1280.15" stroke="#331336" stroke-width="2" stroke-miterlimit="10" stroke-linejoin="round"/>
<path d="M1610.94 1268.17C1610.94 1268.17 1601.62 1232.25 1581.67 1210.96C1561.71 1189.68 1538.55 1183.99 1538.55 1183.99" stroke="#331336" stroke-width="1.33333" stroke-miterlimit="10" stroke-linejoin="round"/>
<path d="M1669.47 1278.82C1669.47 1278.82 1657.85 1235.56 1637.72 1223.93" stroke="#331336" stroke-width="1.33333" stroke-miterlimit="10" stroke-linejoin="round"/>
<path d="M1399.74 731.449C1399.74 731.449 1458.3 787.274 1442.43 907.104" stroke="#F36551" stroke-width="5.33333" stroke-miterlimit="10" stroke-linejoin="round"/>
<path d="M1411.35 870.431L1441.28 909.903L1475.6 870.984" stroke="#F36551" stroke-width="5.33333" stroke-miterlimit="10" stroke-linejoin="round"/>
<path d="M928.668 275.618C928.668 275.618 906.982 307.212 889.934 302.777C872.882 298.342 877.052 281.661 877.052 281.661C877.052 281.661 857.189 288.136 852.916 273.799C848.639 259.462 864.597 249.047 864.597 249.047C864.597 249.047 843.338 248.885 853.173 222.796C863.007 196.708 906.927 213.792 906.927 213.792C906.927 213.792 941.617 179.77 957.97 196.075C974.322 212.385 966.045 233.975 966.045 233.975C966.045 233.975 994.992 245.308 977.904 268.973C960.82 292.638 928.668 275.618 928.668 275.618Z" fill="#F36551"/>
<path d="M896.501 241.367C902.189 228.038 941.175 234.809 936.143 244.114C931.115 253.419 890.813 254.7 896.501 241.367Z" fill="#FCD2BF"/>
<path d="M1716.68 1019.6C1716.68 1019.6 1690.59 1005.17 1697.8 991.848C1705.02 978.519 1721.67 981.851 1721.67 981.851C1721.67 981.851 1720.01 967.973 1736.66 964.087C1753.31 960.205 1760.53 982.962 1760.53 982.962C1760.53 982.962 1796.06 988.515 1793.28 1007.94C1790.5 1027.37 1756.09 1032.37 1756.09 1032.37C1756.09 1032.37 1763.31 1060.68 1734.44 1059.01C1705.57 1057.35 1716.68 1019.6 1716.68 1019.6Z" fill="#F36551"/>
<path d="M1751.85 994.315C1759.62 1000.98 1750.74 1018.74 1741.3 1015.41C1731.86 1012.08 1744.08 987.651 1751.85 994.315Z" fill="#FCD2BF"/>
<path d="M1567.45 534.6C1567.45 534.6 1557.32 555.001 1542.83 541.624C1528.33 528.244 1542.56 515.978 1542.56 515.978C1542.56 515.978 1526.34 506.82 1536.5 496.606C1546.65 486.388 1561.48 489.19 1561.48 489.19C1561.48 489.19 1575.34 477.316 1585.79 484.063C1596.25 490.815 1593.93 498.827 1593.93 498.827C1593.93 498.827 1612.37 507.144 1605.54 524.769C1598.7 542.399 1573.59 546.802 1567.45 534.6Z" fill="#F36551"/>
<path d="M1561.66 514.614C1553.95 508.693 1557.63 491.72 1568.75 497.19C1579.87 502.665 1569.38 520.536 1561.66 514.614Z" fill="#FCD2BF"/>
<path d="M1078.26 1588.6C1078.26 1588.6 1066.25 1612.81 1049.05 1596.93C1031.84 1581.06 1048.72 1566.5 1048.72 1566.5C1048.72 1566.5 1029.48 1555.63 1041.53 1543.5C1053.58 1531.38 1071.18 1534.7 1071.18 1534.7C1071.18 1534.7 1087.62 1520.61 1100.04 1528.62C1112.44 1536.63 1109.69 1546.14 1109.69 1546.14C1109.69 1546.14 1131.58 1556.01 1123.46 1576.93C1115.35 1597.85 1085.56 1603.08 1078.26 1588.6Z" fill="#F36551"/>
<path d="M1071.39 1564.88C1062.24 1557.85 1066.61 1537.71 1079.81 1544.2C1093.01 1550.7 1080.55 1571.91 1071.39 1564.88Z" fill="#FCD2BF"/>
<path d="M1393.35 243.996C1393.35 243.996 1382.84 171.984 1403.33 174.043C1423.82 176.099 1439.97 203.737 1439.97 203.737C1439.97 203.737 1451.81 168.268 1459.79 180.004C1467.78 191.748 1459.75 218.734 1459.75 218.734C1459.75 218.734 1495.65 190.997 1501.72 206.982C1507.81 222.967 1487.48 254.629 1487.48 254.629C1487.48 254.629 1512.92 245.652 1515.23 260.962C1517.53 276.271 1494.52 293.474 1494.52 293.474C1494.52 293.474 1532.64 328.934 1515.81 334.634C1498.98 340.338 1466.38 317.554 1466.38 317.554C1466.38 317.554 1480.09 366.525 1460.15 367.778C1440.22 369.027 1428.14 339.136 1428.14 339.136C1428.14 339.136 1413 375.162 1393.3 362.248C1373.61 349.331 1387.49 322.934 1387.49 322.934C1387.49 322.934 1334.59 352.212 1330.88 333.215C1327.17 314.218 1364.68 285.169 1364.68 285.169C1364.68 285.169 1304.32 285.607 1318.17 268.377C1332.03 251.139 1364.98 252.677 1364.98 252.677C1364.98 252.677 1326.62 231.383 1339.88 219.999C1353.15 208.623 1393.35 243.996 1393.35 243.996Z" fill="#F7964C"/>
<path d="M1435.35 252.645C1461.28 265.301 1454.7 307.213 1417.16 295.461C1379.61 283.71 1409.42 239.992 1435.35 252.645Z" fill="white"/>
<path d="M1428.83 255.567C1432.6 258.729 1431.07 265.891 1424.06 262.413C1417.49 259.152 1424.5 251.926 1428.83 255.567Z" fill="#331336"/>
<path d="M1442.01 269.839C1446.38 270.337 1447.13 276.1 1441.74 275.558C1436.35 275.017 1437.65 269.341 1442.01 269.839Z" fill="#331336"/>
<path d="M1426.27 268.199C1430.94 269.875 1431.71 274.191 1425.05 273.701C1418.38 273.215 1421.59 266.519 1426.27 268.199Z" fill="#331336"/>
<path d="M1407.53 270.432C1414.25 270.321 1416.82 276.689 1410.04 277.401C1403.25 278.108 1400.8 270.542 1407.53 270.432Z" fill="#331336"/>
<path d="M1434.11 284.654C1437.79 284.844 1440.08 290.88 1435.13 290.749C1430.19 290.615 1430.44 284.468 1434.11 284.654Z" fill="#331336"/>
<path d="M1422.92 279.843C1427.73 280.748 1429.6 286.804 1423.9 286.958C1418.19 287.112 1418.11 278.934 1422.92 279.843Z" fill="#331336"/>
<path d="M325.757 392.552C325.757 392.552 213.296 392.639 219.093 352.301C224.887 311.959 304.652 312.611 304.652 312.611C304.652 312.611 251.021 281.38 272.892 267.055C294.764 252.73 333.884 271.348 333.884 271.348C333.884 271.348 289.236 219.329 321.213 210.885C353.19 202.442 391.551 245.599 391.551 245.599C391.551 245.599 400.694 178.065 427.442 194.683C454.199 211.3 443.305 274.696 443.305 274.696C443.305 274.696 512.451 195.264 519.606 234.82C526.756 274.371 481.92 313.836 481.92 313.836C481.92 313.836 564.664 318.303 546.177 355.416C527.689 392.529 473.627 387.066 473.627 387.066C473.627 387.066 539.073 460.564 502.629 469.525C466.184 478.486 428.589 423.293 428.589 423.293C428.589 423.293 448.028 529.327 397.33 521.659C346.631 513.994 355.823 426.713 355.823 426.713C355.823 426.713 318.068 500.484 293.058 475.514C268.048 450.544 325.757 392.552 325.757 392.552Z" fill="white"/>
<path d="M546.176 355.416C541.654 364.495 535.001 371.025 527.534 375.709C504.474 390.181 473.626 387.066 473.626 387.066C473.626 387.066 539.072 460.564 502.628 469.525C466.183 478.486 428.588 423.293 428.588 423.293C428.588 423.293 448.027 529.327 397.329 521.659C346.63 513.994 355.822 426.713 355.822 426.713C355.822 426.713 318.068 500.484 293.057 475.514C268.048 450.544 325.756 392.552 325.756 392.552" stroke="#331336" stroke-width="1.66667" stroke-miterlimit="10" stroke-linejoin="round"/>
<path d="M427.443 194.676C454.2 211.294 443.306 274.689 443.306 274.689C443.306 274.689 482.202 230.007 504.669 224.354C512.156 222.472 517.82 224.923 519.607 234.813" stroke="#331336" stroke-width="1.66667" stroke-miterlimit="10" stroke-linejoin="round"/>
<path d="M219.094 352.294C224.889 311.952 304.653 312.604 304.653 312.604C304.653 312.604 251.022 281.373 272.893 267.048C294.765 252.723 333.886 271.34 333.886 271.34C333.886 271.34 289.237 219.321 321.214 210.878C353.191 202.435 391.552 245.592 391.552 245.592" stroke="#331336" stroke-width="1.66667" stroke-miterlimit="10" stroke-linejoin="round"/>
<path d="M392.524 390.645C392.524 390.645 365.13 387.095 364.398 375.043C363.666 362.987 372.1 357.821 369.396 353.144C366.692 348.468 360.376 348.666 364.273 339.306C368.172 329.949 380.175 325.309 380.175 325.309C380.175 325.309 378.579 317.403 388.362 309.92C398.145 302.438 410.83 305.948 410.83 305.948C410.83 305.948 419.261 291.477 431.131 303.043C443.002 314.605 442.006 334.954 442.006 334.954C442.006 334.954 459.801 333.689 454.655 353.176C449.508 372.659 435.096 377.446 435.096 377.446C435.096 377.446 433.278 396.542 416.886 399.404C400.489 402.258 392.524 390.645 392.524 390.645Z" fill="#F9AC4F"/>
<path d="M379.301 339.618C382.282 333.076 393.223 329.925 389.887 342.053C386.547 354.184 376.319 346.16 379.301 339.618Z" fill="#331336"/>
<path d="M383.38 356.066C384.534 350.528 394.056 346.97 394.115 356.109C394.175 365.248 382.225 361.604 383.38 356.066Z" fill="#331336"/>
<path d="M401.585 321.964C403.613 312.793 413.214 310.52 414.637 320.869C416.064 331.221 399.557 331.13 401.585 321.964Z" fill="#331336"/>
<path d="M410.848 350.125C412.437 340.286 427.703 339.657 425.24 353.125C422.782 366.592 409.259 359.959 410.848 350.125Z" fill="#331336"/>
<path d="M398.15 373.355C399.79 367.69 410.886 367.117 410.328 375.896C409.767 384.676 396.506 379.019 398.15 373.355Z" fill="#331336"/>
<path d="M421.463 326.917C424.526 321.663 431.246 324.336 429.242 330.617C427.238 336.901 418.403 332.17 421.463 326.917Z" fill="#331336"/>
<path d="M308.001 1265.14C308.001 1265.14 315.497 1194.67 337.184 1201.58C358.867 1208.49 359.758 1233.03 359.758 1233.03C359.758 1233.03 374.754 1211.84 390.072 1219.9C405.393 1227.97 402.733 1244.17 402.733 1244.17C402.733 1244.17 414.555 1231.46 423.228 1243.04C431.896 1254.62 427.102 1280.63 427.102 1280.63C427.102 1280.63 444.478 1275.53 440.419 1289.41C436.355 1303.3 402.223 1326.27 402.223 1326.27C402.223 1326.27 453.961 1338.22 454.02 1355.71C454.076 1373.21 435.414 1381.03 435.414 1381.03C435.414 1381.03 443.913 1400.01 437.339 1406.89C430.766 1413.77 418.773 1403.94 418.773 1403.94C418.773 1403.94 432.035 1425.17 416.223 1425.19C400.412 1425.21 365.275 1388.66 365.275 1388.66C365.275 1388.66 388.265 1438.6 377.159 1453.32C366.053 1468.04 353.453 1461.25 353.453 1461.25C353.453 1461.25 351.698 1487.87 337.208 1486.85C322.722 1485.83 294.612 1432.64 294.612 1432.64C294.612 1432.64 271.264 1471.52 259.024 1465.73C246.785 1459.95 244.479 1447.23 244.479 1447.23C244.479 1447.23 216.087 1456.27 213.821 1445.22C211.554 1434.17 212.537 1418 212.537 1418C212.537 1418 194.685 1417.06 186.052 1407.16C177.419 1397.26 185.181 1368.49 185.181 1368.49C185.181 1368.49 168.031 1353.74 177.285 1346.46C186.541 1339.2 223.093 1334 223.093 1334C223.093 1334 161.23 1320.59 163.855 1302.7C166.479 1284.81 179.74 1276.1 179.74 1276.1C179.74 1276.1 169.841 1254.8 179.814 1249.53C189.789 1244.26 240.394 1265.66 238.352 1264.69C236.313 1263.73 215.573 1238.96 219.388 1229.13C223.204 1219.28 235.255 1216.66 235.255 1216.66C235.255 1216.66 226.528 1187.59 250.027 1185.37C273.525 1183.17 305.583 1247.37 308.001 1265.14Z" fill="#F7964C"/>
<path d="M163.857 1302.71C166.482 1284.82 179.743 1276.11 179.743 1276.11C179.743 1276.11 169.844 1254.8 179.817 1249.53C189.791 1244.26 240.397 1265.66 238.355 1264.7C236.316 1263.74 215.576 1238.97 219.391 1229.13C223.206 1219.29 235.258 1216.67 235.258 1216.67C235.258 1216.67 226.531 1187.59 250.03 1185.38C273.528 1183.17 305.585 1247.37 308.004 1265.15C308.004 1265.15 315.5 1194.68 337.186 1201.59C358.869 1208.5 359.76 1233.04 359.76 1233.04" stroke="#331336" stroke-width="1.66667" stroke-miterlimit="10" stroke-linejoin="round"/>
<path d="M294.614 1432.64C294.614 1432.64 271.266 1471.52 259.026 1465.73C246.786 1459.95 244.481 1447.23 244.481 1447.23C244.481 1447.23 216.088 1456.27 213.822 1445.22C211.555 1434.17 212.539 1418 212.539 1418C212.539 1418 194.686 1417.06 186.053 1407.16C177.42 1397.26 185.183 1368.49 185.183 1368.49C185.183 1368.49 168.033 1353.74 177.286 1346.47C186.543 1339.2 223.094 1334 223.094 1334" stroke="#331336" stroke-width="1.66667" stroke-miterlimit="10" stroke-linejoin="round"/>
<path d="M427.103 1280.63C427.103 1280.63 444.479 1275.53 440.419 1289.41C436.356 1303.3 402.224 1326.27 402.224 1326.27C402.224 1326.27 453.962 1338.22 454.021 1355.71C454.076 1373.21 435.415 1381.03 435.415 1381.03C435.415 1381.03 443.914 1400.01 437.34 1406.89C430.767 1413.77 418.774 1403.94 418.774 1403.94C418.774 1403.94 432.036 1425.17 416.224 1425.19C400.413 1425.21 365.275 1388.66 365.275 1388.66C365.275 1388.66 388.266 1438.6 377.16 1453.32C366.054 1468.04 353.454 1461.25 353.454 1461.25C353.454 1461.25 351.699 1487.87 337.209 1486.85" stroke="#331336" stroke-width="1.66667" stroke-miterlimit="10" stroke-linejoin="round"/>
<path d="M390.073 1219.91C405.394 1227.97 402.734 1244.18 402.734 1244.18C402.734 1244.18 414.557 1231.47 423.229 1243.05" stroke="#331336" stroke-width="1.66667" stroke-miterlimit="10" stroke-linejoin="round"/>
<path d="M266.775 1349.93C266.775 1349.93 248.447 1329.12 253.721 1322.01C258.997 1314.9 264.883 1311.93 264.883 1311.93C264.883 1311.93 262.193 1295.94 269.679 1294.99C277.166 1294.05 295.769 1315.63 295.769 1315.63C295.769 1315.63 299.983 1295.86 309.039 1295.66C318.093 1295.45 323.937 1302.05 323.937 1302.05C323.937 1302.05 335.186 1295.85 339.298 1306.11C343.414 1316.37 337.789 1330.99 337.789 1330.99C337.789 1330.99 356.641 1329.01 358.631 1336.99C360.623 1344.97 354.822 1351.83 354.822 1351.83C354.822 1351.83 366.917 1360.11 361.364 1366.44C355.813 1372.78 342.63 1373.59 342.63 1373.59C342.63 1373.59 350.406 1385.58 346.612 1389.55C342.82 1393.52 331.889 1390.91 331.889 1390.91C331.889 1390.91 333.474 1403.82 322.078 1403.56C310.683 1403.3 305.405 1387.37 305.405 1387.37C305.405 1387.37 300.959 1396.79 294.71 1395.12C288.459 1393.45 289.057 1385.41 289.057 1385.41C289.057 1385.41 269.827 1393.61 269.129 1385.6C268.431 1377.59 271.396 1371.31 271.396 1371.31C271.396 1371.31 251.964 1370.45 249.421 1360.94C246.876 1351.41 266.775 1349.93 266.775 1349.93Z" fill="#F9AC4F"/>
<path d="M295.208 1320.36C305.486 1319.91 307.719 1332.42 297.443 1336C287.166 1339.57 284.931 1320.8 295.208 1320.36Z" fill="#331336"/>
<path d="M321.569 1329.29C330.506 1328.4 340.783 1338.68 329.166 1342.25C317.547 1345.82 312.633 1330.19 321.569 1329.29Z" fill="#331336"/>
<path d="M309.505 1339.57C318.89 1337.78 320.676 1350.3 310.847 1353.42C301.017 1356.55 300.123 1341.36 309.505 1339.57Z" fill="#331336"/>
<path d="M284.929 1345.38C295.653 1343.6 295.653 1355.21 288.504 1358.34C281.355 1361.47 274.208 1347.17 284.929 1345.38Z" fill="#331336"/>
<path d="M308.167 1358.79C317.102 1358.33 320.676 1368.17 310.399 1371.74C300.123 1375.32 299.229 1359.23 308.167 1358.79Z" fill="#331336"/>
<path d="M329.166 1354.32C339.889 1352.08 346.146 1360.12 334.974 1364.59C323.801 1369.06 318.441 1356.55 329.166 1354.32Z" fill="#331336"/>
<path d="M1516.55 675.871V685.06C1514.86 685.792 1513.03 686.158 1511.07 686.158H1509.97V675.871H1499.48C1499.48 673.265 1499.57 671.163 1499.75 669.562H1509.97V660.579C1512.3 659.939 1514.47 659.619 1516.48 659.619V669.562H1527.53C1527.53 672.991 1527.41 675.094 1527.18 675.871H1516.55ZM1551.7 692.261H1551.29C1551.29 688.375 1551.9 683.597 1553.14 677.929C1554.42 672.26 1555.68 666.911 1556.91 661.882C1558.19 656.807 1558.83 653.082 1558.83 650.704C1555.9 652.579 1553.44 654.544 1551.42 656.602C1550.56 656.145 1549.78 655.482 1549.09 654.613C1548.41 653.699 1547.93 652.922 1547.65 652.282L1547.24 651.321L1559.38 643.984C1562.85 643.39 1566.83 643.092 1571.31 643.092C1571.81 644.327 1572.07 645.881 1572.07 647.756C1572.07 649.63 1571.45 653.173 1570.21 658.385C1569.03 663.551 1567.81 669.197 1566.58 675.323C1565.35 681.403 1564.73 686.5 1564.73 690.615C1562.67 691.712 1558.33 692.261 1551.7 692.261Z" fill="#331336"/>
</g>
<defs>
<clipPath id="clip0_2028_72">
<rect width="2000" height="2000" fill="white"/>
</clipPath>
</defs>
</svg>
