<svg width="2000" height="2000" viewBox="0 0 2000 2000" fill="none" xmlns="http://www.w3.org/2000/svg">
<path d="M1383.69 224.56C1383.69 224.56 1369.73 192.332 1364.13 142.195C1358.54 92.0545 1414.94 47.0453 1414.94 47.0453C1414.94 47.0453 1476.47 145.835 1383.69 224.56Z" fill="#7EC1B2"/>
<path d="M1423.54 244.862C1423.54 244.862 1427.54 201.445 1453.97 174.399C1480.4 147.355 1539.36 153.667 1539.36 153.667C1539.36 153.667 1496.36 240.191 1423.54 244.862Z" fill="#7EC1B2"/>
<path d="M1317.72 295.767C1317.72 295.767 1284.82 275.805 1277.59 233.981C1270.35 192.155 1299.65 140.272 1299.65 140.272C1299.65 140.272 1388.03 220.226 1317.72 295.767Z" fill="#7EC1B2"/>
<path d="M1385.27 321.962C1385.27 321.962 1387.56 292.089 1427.91 271.219C1468.26 250.347 1529.85 290.784 1529.85 290.784C1529.85 290.784 1445.67 386.204 1385.27 321.962Z" fill="#7EC1B2"/>
<path d="M1200.73 361.339C1200.73 361.339 1174.33 328.975 1179.97 289.285C1185.61 249.595 1221.53 217.926 1221.53 217.926C1221.53 217.926 1268.79 311.538 1200.73 361.339Z" fill="#7EC1B2"/>
<path d="M1181.78 429.368C1181.78 429.368 1139.23 417.51 1119.36 388.631C1099.48 359.755 1112 317.813 1112 317.813C1112 317.813 1199.66 380.165 1181.78 429.368Z" fill="#7EC1B2"/>
<path d="M1227.54 386.685C1224.89 387.209 1212.7 369.63 1226.78 346.043C1240.85 322.46 1268.97 312.792 1268.97 312.792C1268.97 312.792 1287.96 374.765 1227.54 386.685Z" fill="#7EC1B2"/>
<path d="M1276.68 472.401C1276.68 472.401 1289.97 428.939 1315.59 410.217C1341.2 391.495 1392.37 405.282 1392.37 405.282C1392.37 405.282 1347.26 477.826 1276.68 472.401Z" fill="#7EC1B2"/>
<path d="M1391.59 208.62C1391.59 208.62 1377.44 265.079 1354.17 308.662C1330.9 352.245 1180.44 518.539 1157.71 548.761" stroke="#331336" stroke-width="1.33333" stroke-miterlimit="10" stroke-linejoin="round"/>
<path d="M1203.24 316.825C1203.24 316.825 1196.6 471.686 1187.09 513.464" stroke="#331336" stroke-width="1.33333" stroke-miterlimit="10" stroke-linejoin="round"/>
<path d="M1240.92 365.058C1240.92 365.058 1201.04 430.625 1194.65 451.365" stroke="#331336" stroke-width="1.33333" stroke-miterlimit="10" stroke-linejoin="round"/>
<path d="M1173.13 410.674C1173.13 410.674 1194.95 448.102 1190.63 482.19" stroke="#331336" stroke-width="1.33333" stroke-miterlimit="10" stroke-linejoin="round"/>
<path d="M1304.82 204.547C1304.82 204.547 1334.36 312.586 1302.72 375.888" stroke="#331336" stroke-width="1.33333" stroke-miterlimit="10" stroke-linejoin="round"/>
<path d="M1466.91 299.924C1466.91 299.924 1370.7 315.409 1320.31 356.444" stroke="#331336" stroke-width="1.33333" stroke-miterlimit="10" stroke-linejoin="round"/>
<path d="M1480.56 183.231C1480.56 183.231 1387.2 283.496 1358.75 299.305" stroke="#331336" stroke-width="1.33333" stroke-miterlimit="10" stroke-linejoin="round"/>
<path d="M480.018 1403.21L92.7871 778.861L522.243 512.503L909.474 1136.86L480.018 1403.21Z" fill="white" stroke="#FF9F7F" stroke-width="2.4101" stroke-miterlimit="10" stroke-linecap="round"/>
<path d="M489.542 1353.1L193.369 680.747L655.838 477.029L952.014 1149.38L489.542 1353.1Z" fill="white" stroke="#FF9F7F" stroke-width="2.4101" stroke-miterlimit="10" stroke-linecap="round"/>
<path d="M493.919 1291.83L302.116 646.051C297.319 629.896 306.525 612.907 322.681 608.109L748.612 481.607C764.768 476.809 781.754 486.016 786.554 502.171L978.357 1147.95C983.154 1164.11 973.948 1181.09 957.792 1185.89L531.861 1312.4C515.705 1317.19 498.719 1307.99 493.919 1291.83Z" fill="#F7964C" stroke="#FF9F7F" stroke-width="2.4101" stroke-miterlimit="10" stroke-linecap="round"/>
<path opacity="0.15" d="M740.073 680.077L720.691 614.817L432.841 700.308L452.223 765.567L740.073 680.077Z" fill="#FF9F7F"/>
<g opacity="0.22">
<path d="M1541.41 554.155L1530.2 553.28C1523.43 552.753 1517.52 557.807 1517 564.569L1510.02 653.904L1510.55 653.947C1510.15 654.773 1509.89 655.644 1509.81 656.562C1509.61 659.222 1510.9 661.78 1513.23 663.893H1513.23L1512.53 672.933L1512.85 672.907L1499.18 855.949C1499.12 856.742 1499.22 857.502 1499.41 858.229C1499.11 858.851 1498.9 859.509 1498.85 860.2C1498.64 862.92 1500.55 865.491 1503.67 867.251C1503.52 867.591 1503.42 867.947 1503.39 868.318C1503.17 871.111 1506.61 873.658 1511.07 874.007C1515.54 874.355 1519.33 872.371 1519.55 869.58C1519.58 869.207 1519.53 868.842 1519.44 868.482C1522.79 867.224 1525.08 864.982 1525.3 862.264C1525.35 861.573 1525.25 860.891 1525.05 860.229C1525.35 859.54 1525.57 858.804 1525.63 858.013L1539.92 666.7C1543.16 664.931 1545.28 662.355 1545.52 659.347C1545.59 658.429 1545.46 657.527 1545.2 656.649L1545.73 656.691L1552.7 567.358C1553.23 560.593 1548.17 554.682 1541.41 554.155Z" fill="#FF9F7F" stroke="#FF9F7F" stroke-width="2.5" stroke-miterlimit="10" stroke-linecap="round"/>
<path d="M1507.02 573.006L1500.76 653.184L1517 564.473C1511.89 564.073 1507.42 567.895 1507.02 573.006Z" fill="#FF9F7F" stroke="#FF9F7F" stroke-width="2.5" stroke-miterlimit="10" stroke-linecap="round"/>
</g>
<path d="M1662.44 1465.38L1517.39 1406.91L1682.16 998.123L1884.25 1079.59L1740.2 1436.97L1662.44 1465.38Z" fill="white" stroke="#FF9F7F" stroke-width="2.5" stroke-miterlimit="10" stroke-linecap="round" stroke-linejoin="round"/>
<path d="M1892.63 1058.85L1690.54 977.382L1662.29 1047.46L1864.38 1128.93L1892.63 1058.85Z" fill="#FF7F80" stroke="#FF9F7F" stroke-width="2.5" stroke-miterlimit="10" stroke-linecap="round" stroke-linejoin="round"/>
<path d="M1712.64 1021.85C1710.91 1026.12 1706.05 1028.19 1701.77 1026.47C1697.49 1024.75 1695.42 1019.88 1697.14 1015.6C1698.87 1011.32 1703.74 1009.25 1708.01 1010.98C1712.29 1012.7 1714.36 1017.57 1712.64 1021.85Z" fill="white"/>
<path d="M1737.46 1031.85C1735.74 1036.13 1730.87 1038.2 1726.59 1036.48C1722.31 1034.75 1720.24 1029.89 1721.97 1025.61C1723.69 1021.33 1728.56 1019.26 1732.84 1020.98C1737.11 1022.71 1739.18 1027.57 1737.46 1031.85Z" fill="white"/>
<path d="M1762.02 1041.75C1760.29 1046.03 1755.42 1048.1 1751.15 1046.38C1746.87 1044.65 1744.8 1039.79 1746.52 1035.51C1748.25 1031.23 1753.11 1029.16 1757.39 1030.88C1761.67 1032.61 1763.74 1037.47 1762.02 1041.75Z" fill="white"/>
<path d="M1786.84 1051.76C1785.11 1056.03 1780.25 1058.11 1775.97 1056.38C1771.69 1054.66 1769.62 1049.79 1771.34 1045.51C1773.07 1041.23 1777.94 1039.16 1782.21 1040.89C1786.49 1042.61 1788.56 1047.48 1786.84 1051.76Z" fill="white"/>
<path d="M1811.66 1061.76C1809.94 1066.04 1805.07 1068.11 1800.79 1066.39C1796.51 1064.66 1794.44 1059.8 1796.17 1055.52C1797.89 1051.24 1802.76 1049.17 1807.04 1050.89C1811.31 1052.62 1813.38 1057.49 1811.66 1061.76Z" fill="white"/>
<path d="M1836.48 1071.77C1834.76 1076.05 1829.89 1078.12 1825.61 1076.39C1821.34 1074.67 1819.26 1069.8 1820.99 1065.52C1822.71 1061.25 1827.58 1059.17 1831.86 1060.9C1836.14 1062.63 1838.21 1067.49 1836.48 1071.77Z" fill="white"/>
<path d="M1861.3 1081.77C1859.58 1086.05 1854.71 1088.12 1850.43 1086.4C1846.16 1084.67 1844.08 1079.81 1845.81 1075.53C1847.53 1071.25 1852.4 1069.18 1856.68 1070.91C1860.96 1072.63 1863.03 1077.5 1861.3 1081.77Z" fill="white"/>
<path d="M1703.19 1022.95C1700.86 1022.01 1699.73 1019.35 1700.67 1017.02L1722.03 964.032C1722.97 961.699 1725.62 960.57 1727.96 961.51C1730.29 962.45 1731.42 965.106 1730.48 967.439L1709.12 1020.43C1708.18 1022.76 1705.52 1023.89 1703.19 1022.95Z" fill="white"/>
<path d="M1728.01 1032.95C1725.68 1032.01 1724.55 1029.36 1725.49 1027.03L1746.85 974.037C1747.79 971.704 1750.45 970.575 1752.78 971.515C1755.11 972.455 1756.24 975.11 1755.3 977.444L1733.94 1030.43C1733 1032.77 1730.35 1033.89 1728.01 1032.95Z" fill="white"/>
<path d="M1728.01 1032.95C1725.68 1032.01 1724.55 1029.36 1725.49 1027.03L1746.85 974.037C1747.79 971.704 1750.45 970.575 1752.78 971.515C1755.11 972.455 1756.24 975.11 1755.3 977.444L1733.94 1030.43C1733 1032.77 1730.35 1033.89 1728.01 1032.95Z" fill="white"/>
<path d="M1752.83 1042.96C1750.5 1042.02 1749.37 1039.37 1750.31 1037.03L1771.67 984.043C1772.61 981.71 1775.27 980.581 1777.6 981.521C1779.93 982.461 1781.06 985.116 1780.12 987.45L1758.76 1040.44C1757.82 1042.77 1755.17 1043.9 1752.83 1042.96Z" fill="white"/>
<path d="M1777.39 1052.86C1775.06 1051.92 1773.93 1049.26 1774.87 1046.93L1796.23 993.941C1797.17 991.608 1799.82 990.479 1802.16 991.419C1804.49 992.359 1805.62 995.015 1804.68 997.348L1783.32 1050.34C1782.38 1052.67 1779.72 1053.8 1777.39 1052.86Z" fill="white"/>
<path d="M1777.39 1052.86C1775.06 1051.92 1773.93 1049.26 1774.87 1046.93L1796.23 993.941C1797.17 991.608 1799.82 990.479 1802.16 991.419C1804.49 992.359 1805.62 995.015 1804.68 997.348L1783.32 1050.34C1782.38 1052.67 1779.72 1053.8 1777.39 1052.86Z" fill="white"/>
<path d="M1802.21 1062.87C1799.88 1061.93 1798.75 1059.27 1799.69 1056.94L1821.05 1003.95C1821.99 1001.61 1824.64 1000.49 1826.98 1001.43C1829.31 1002.37 1830.44 1005.02 1829.5 1007.35L1808.14 1060.34C1807.2 1062.68 1804.54 1063.81 1802.21 1062.87Z" fill="white"/>
<path d="M1802.21 1062.87C1799.88 1061.93 1798.75 1059.27 1799.69 1056.94L1821.05 1003.95C1821.99 1001.61 1824.64 1000.49 1826.98 1001.43C1829.31 1002.37 1830.44 1005.02 1829.5 1007.35L1808.14 1060.34C1807.2 1062.68 1804.54 1063.81 1802.21 1062.87Z" fill="white"/>
<path d="M1827.03 1072.87C1824.7 1071.93 1823.57 1069.28 1824.51 1066.94L1845.87 1013.95C1846.81 1011.62 1849.47 1010.49 1851.8 1011.43C1854.13 1012.37 1855.26 1015.03 1854.32 1017.36L1832.96 1070.35C1832.02 1072.68 1829.37 1073.81 1827.03 1072.87Z" fill="white"/>
<path d="M1827.03 1072.87C1824.7 1071.93 1823.57 1069.28 1824.51 1066.94L1845.87 1013.95C1846.81 1011.62 1849.47 1010.49 1851.8 1011.43C1854.13 1012.37 1855.26 1015.03 1854.32 1017.36L1832.96 1070.35C1832.02 1072.68 1829.37 1073.81 1827.03 1072.87Z" fill="white"/>
<path d="M1851.86 1082.88C1849.52 1081.94 1848.39 1079.28 1849.33 1076.95L1870.69 1023.96C1871.63 1021.63 1874.29 1020.5 1876.62 1021.44C1878.96 1022.38 1880.08 1025.03 1879.14 1027.37L1857.78 1080.35C1856.84 1082.69 1854.19 1083.82 1851.86 1082.88Z" fill="white"/>
<path opacity="0.2" d="M1672.97 1097.91L1825.86 1159.54" stroke="#FF9F7F" stroke-width="2.5" stroke-miterlimit="10" stroke-linecap="round"/>
<path opacity="0.2" d="M1662.88 1122.94L1815.77 1184.57" stroke="#FF9F7F" stroke-width="2.5" stroke-miterlimit="10" stroke-linecap="round"/>
<path opacity="0.2" d="M1652.79 1147.97L1805.68 1209.61" stroke="#FF9F7F" stroke-width="2.5" stroke-miterlimit="10" stroke-linecap="round"/>
<path opacity="0.2" d="M1642.7 1173.01L1795.59 1234.64" stroke="#FF9F7F" stroke-width="2.5" stroke-miterlimit="10" stroke-linecap="round"/>
<path opacity="0.2" d="M1632.61 1198.04L1785.5 1259.67" stroke="#FF9F7F" stroke-width="2.5" stroke-miterlimit="10" stroke-linecap="round"/>
<path opacity="0.2" d="M1622.52 1223.07L1775.41 1284.7" stroke="#FF9F7F" stroke-width="2.5" stroke-miterlimit="10" stroke-linecap="round"/>
<path opacity="0.2" d="M1612.43 1248.1L1765.32 1309.73" stroke="#FF9F7F" stroke-width="2.5" stroke-miterlimit="10" stroke-linecap="round"/>
<path opacity="0.2" d="M1602.34 1273.13L1755.23 1334.77" stroke="#FF9F7F" stroke-width="2.5" stroke-miterlimit="10" stroke-linecap="round"/>
<path opacity="0.2" d="M1592.25 1298.17L1745.14 1359.8" stroke="#FF9F7F" stroke-width="2.5" stroke-miterlimit="10" stroke-linecap="round"/>
<path d="M1662.7 1465.23L1683.42 1413.82L1740.46 1436.82L1662.7 1465.23Z" fill="#F7F0ED" stroke="#FF9F7F" stroke-width="2.5" stroke-miterlimit="10" stroke-linecap="round" stroke-linejoin="round"/>
<path opacity="0.22" d="M1748.95 1377.2L1471.13 1325.11L1481.55 1281.36L1817.33 926.688L1834.99 945.95L1748.95 1377.2Z" fill="#FF9F7F" stroke="#FF9F7F" stroke-width="2.5" stroke-miterlimit="10" stroke-linecap="round"/>
<path d="M1819.64 906.867L1734.56 1374.35L1525.74 1333.88L1470.28 1323.13L1555.33 855.632L1730.68 889.636L1819.64 906.867Z" fill="#F7964C" stroke="#FF9F7F" stroke-width="2.5" stroke-miterlimit="10"/>
<path opacity="0.24" d="M1817.33 926.687L1736.45 1361.23L1496.83 1314L1480.17 1291.77L1798.69 904.736L1817.33 926.687Z" fill="#FF9F7F"/>
<path d="M1723.08 1337.61L1800.81 910.272V883.189L1667.69 1081.33L1721.6 1309.09L1723.08 1337.61Z" fill="#E2D5D0" stroke="#FF9F7F" stroke-width="2.5" stroke-miterlimit="10" stroke-linecap="round" stroke-linejoin="round"/>
<path d="M1799.29 881.559L1555.25 837.156L1477.47 1264.62L1721.51 1309.03L1799.29 881.559Z" fill="white" stroke="#FF9F7F" stroke-width="2.5" stroke-miterlimit="10" stroke-linecap="round" stroke-linejoin="round"/>
<path d="M1799.29 881.559L1555.25 837.156L1541.91 910.432L1785.96 954.835L1799.29 881.559Z" fill="#FF7F80"/>
<path d="M1590.84 876.765C1590.03 881.238 1585.18 884.103 1580.01 883.163C1574.85 882.223 1571.32 877.834 1572.13 873.361C1572.95 868.887 1577.79 866.023 1582.96 866.963C1588.12 867.903 1591.65 872.289 1590.84 876.765Z" fill="#FF7F80"/>
<path d="M1620.82 882.219C1620 886.692 1615.15 889.557 1609.99 888.617C1604.82 887.677 1601.3 883.288 1602.11 878.815C1602.92 874.341 1607.77 871.477 1612.94 872.417C1618.1 873.357 1621.63 877.746 1620.82 882.219Z" fill="#FF7F80"/>
<path d="M1650.47 887.615C1649.66 892.088 1644.81 894.952 1639.64 894.012C1634.47 893.072 1630.95 888.683 1631.76 884.21C1632.57 879.737 1637.42 876.872 1642.59 877.812C1647.76 878.752 1651.28 883.141 1650.47 887.615Z" fill="#FF7F80"/>
<path d="M1680.45 893.068C1679.63 897.541 1674.78 900.406 1669.62 899.466C1664.45 898.526 1660.93 894.137 1661.74 889.663C1662.55 885.19 1667.4 882.325 1672.57 883.265C1677.73 884.205 1681.26 888.594 1680.45 893.068Z" fill="#FF7F80"/>
<path d="M1710.42 898.521C1709.61 902.994 1704.76 905.859 1699.59 904.919C1694.43 903.979 1690.9 899.59 1691.71 895.116C1692.53 890.643 1697.38 887.779 1702.54 888.719C1707.71 889.659 1711.23 894.048 1710.42 898.521Z" fill="#FF7F80"/>
<path d="M1740.4 903.976C1739.58 908.449 1734.74 911.314 1729.57 910.374C1724.4 909.434 1720.88 905.045 1721.69 900.571C1722.5 896.098 1727.35 893.234 1732.52 894.174C1737.68 895.114 1741.21 899.5 1740.4 903.976Z" fill="#FF7F80"/>
<path d="M1770.37 909.43C1769.56 913.903 1764.71 916.768 1759.54 915.828C1754.38 914.888 1750.85 910.499 1751.66 906.026C1752.48 901.552 1757.33 898.688 1762.49 899.628C1767.66 900.568 1771.19 904.954 1770.37 909.43Z" fill="#FF7F80"/>
<path d="M1591.57 819.647L1581.48 875.063" stroke="#FF9F7F" stroke-width="2.5" stroke-miterlimit="10" stroke-linecap="round" stroke-linejoin="round"/>
<path d="M1621.54 825.103L1611.46 880.516" stroke="#FF9F7F" stroke-width="2.5" stroke-miterlimit="10" stroke-linecap="round" stroke-linejoin="round"/>
<path d="M1621.54 825.103L1611.46 880.516" stroke="#FF9F7F" stroke-width="2.5" stroke-miterlimit="10" stroke-linecap="round" stroke-linejoin="round"/>
<path d="M1651.52 830.557L1641.44 885.97" stroke="#FF9F7F" stroke-width="2.5" stroke-miterlimit="10" stroke-linecap="round" stroke-linejoin="round"/>
<path d="M1681.18 835.952L1671.09 891.365" stroke="#FF9F7F" stroke-width="2.5" stroke-miterlimit="10" stroke-linecap="round" stroke-linejoin="round"/>
<path d="M1681.18 835.952L1671.09 891.365" stroke="#FF9F7F" stroke-width="2.5" stroke-miterlimit="10" stroke-linecap="round" stroke-linejoin="round"/>
<path d="M1711.15 841.405L1701.07 896.821" stroke="#FF9F7F" stroke-width="2.5" stroke-miterlimit="10" stroke-linecap="round" stroke-linejoin="round"/>
<path d="M1711.15 841.405L1701.07 896.821" stroke="#FF9F7F" stroke-width="2.5" stroke-miterlimit="10" stroke-linecap="round" stroke-linejoin="round"/>
<path d="M1741.13 846.858L1731.04 902.274" stroke="#FF9F7F" stroke-width="2.5" stroke-miterlimit="10" stroke-linecap="round" stroke-linejoin="round"/>
<path d="M1741.13 846.858L1731.04 902.274" stroke="#FF9F7F" stroke-width="2.5" stroke-miterlimit="10" stroke-linecap="round" stroke-linejoin="round"/>
<path d="M1771.1 852.312L1761.02 907.727" stroke="#FF9F7F" stroke-width="2.5" stroke-miterlimit="10" stroke-linecap="round" stroke-linejoin="round"/>
<path d="M1721.6 1338.65L1477.54 1291.77V1264.69L1721.6 1309.09V1338.65Z" fill="#F7F0ED" stroke="#FF9F7F" stroke-width="2.5" stroke-miterlimit="10" stroke-linecap="round" stroke-linejoin="round"/>
<path opacity="0.2" d="M1563.14 969.147L1742.67 1001.81" stroke="#FF9F7F" stroke-width="2.5" stroke-miterlimit="10" stroke-linecap="round"/>
<path opacity="0.2" d="M1557.86 996.898L1737.39 1029.56" stroke="#FF9F7F" stroke-width="2.5" stroke-miterlimit="10" stroke-linecap="round"/>
<path opacity="0.2" d="M1553.37 1025.95L1732.91 1058.61" stroke="#FF9F7F" stroke-width="2.5" stroke-miterlimit="10" stroke-linecap="round"/>
<path d="M1547.4 911.067L1780.57 954.445" stroke="#FF9F7F" stroke-width="2.5" stroke-miterlimit="10" stroke-linecap="round" stroke-linejoin="round"/>
<path d="M1500.47 838.341L1487.84 837.356C1484.02 837.059 1481.17 833.723 1481.47 829.905L1502.2 552.276L1528.65 554.339L1507.92 831.97C1507.62 835.785 1504.28 838.639 1500.47 838.341Z" fill="#CDE0DF" stroke="#FF9F7F" stroke-width="2.4101" stroke-miterlimit="10"/>
<path d="M1528.01 630.645L1492.31 627.86L1499.28 538.525C1499.81 531.763 1505.72 526.709 1512.48 527.236L1523.7 528.111C1530.46 528.638 1535.52 534.549 1534.99 541.314L1528.01 630.645Z" fill="#F7964C" stroke="#FF9F7F" stroke-width="2.4101" stroke-miterlimit="10"/>
<path d="M1499.29 538.429C1494.18 538.031 1489.71 541.851 1489.31 546.962L1483.05 627.138" stroke="#FF9F7F" stroke-width="2.4101" stroke-miterlimit="10" stroke-linecap="round"/>
<path d="M1507.58 836.22C1507.22 840.793 1501.02 844.038 1493.71 843.467C1486.41 842.898 1480.78 838.729 1481.13 834.156C1481.49 829.584 1487.7 826.338 1495 826.909C1502.31 827.478 1507.94 831.647 1507.58 836.22Z" fill="#CDE0DF" stroke="#FF9F7F" stroke-width="2.4101" stroke-miterlimit="10" stroke-linecap="round"/>
<path d="M1495.52 637.85C1493.19 635.736 1491.89 633.179 1492.1 630.519C1492.58 624.345 1500.97 619.965 1510.83 620.734C1520.69 621.503 1528.29 627.13 1527.81 633.303C1527.57 636.39 1525.35 639.027 1521.96 640.799" fill="#7EC1B2"/>
<path d="M1495.52 637.85C1493.19 635.736 1491.89 633.179 1492.1 630.519C1492.58 624.345 1500.97 619.965 1510.83 620.734C1520.69 621.503 1528.29 627.13 1527.81 633.303C1527.57 636.39 1525.35 639.027 1521.96 640.799" stroke="#FF9F7F" stroke-width="2.4101" stroke-miterlimit="10" stroke-linecap="round"/>
<path d="M1521.6 644.656L1522.08 638.514C1522.43 633.94 1516.8 629.774 1509.5 629.202C1502.19 628.634 1495.99 631.878 1495.63 636.449L1494.81 646.889" fill="#CDE0DF"/>
<path d="M1521.6 644.656L1522.08 638.514C1522.43 633.94 1516.8 629.774 1509.5 629.202C1502.19 628.634 1495.99 631.878 1495.63 636.449L1494.81 646.889" stroke="#FF9F7F" stroke-width="2.4101" stroke-miterlimit="10" stroke-linecap="round"/>
<path d="M1501.84 843.536C1501.62 846.329 1497.82 848.311 1493.36 847.965C1488.9 847.616 1485.46 845.069 1485.68 842.276C1485.89 839.482 1489.69 837.5 1494.15 837.847C1498.61 838.196 1502.05 840.743 1501.84 843.536Z" fill="#CDE0DF" stroke="#FF9F7F" stroke-width="2.4101" stroke-miterlimit="10" stroke-linecap="round"/>
<path d="M1493.32 1050.85L380.027 1273.16L330.267 1283.1L219.336 727.565L401.569 691.179L1350.7 501.634L1382.37 495.316L1389.01 528.559L1493.32 1050.85Z" fill="#FF7F80" stroke="#FF9F7F" stroke-width="2.5" stroke-miterlimit="10" stroke-linecap="round" stroke-linejoin="round"/>
<path opacity="0.24" d="M1493.32 1050.85L380.028 1273.16L350.477 1253.15C350.477 1253.15 380.699 942.834 401.57 691.18L1350.71 501.634L1389.01 528.558L1493.32 1050.85Z" fill="#FF9F7F"/>
<path d="M1314.92 450.683L1427.15 1012.71C1427.15 1012.71 1262.64 1042.22 1046.17 1047.98C1015.89 1048.79 986.196 1056.91 960.307 1072.59C926.822 1092.86 901.931 1117.59 901.931 1117.59L898.793 1118.79L786.564 556.763L789.702 555.56C789.702 555.56 814.593 530.827 848.078 510.56C873.967 494.885 903.66 486.758 933.938 485.949C1150.42 480.189 1314.92 450.683 1314.92 450.683Z" fill="white" stroke="#FF9F7F" stroke-width="2.5" stroke-miterlimit="10" stroke-linecap="round" stroke-linejoin="round"/>
<path d="M1426.88 1011.36L1456.66 1032.25L903.568 1142.7L898.525 1117.44L901.663 1116.24C901.663 1116.24 926.554 1091.51 960.039 1071.24C985.928 1055.57 1015.62 1047.44 1045.9 1046.63C1262.38 1040.87 1426.88 1011.36 1426.88 1011.36Z" fill="#F7F0ED" stroke="#FF9F7F" stroke-width="2.5" stroke-miterlimit="10" stroke-linecap="round" stroke-linejoin="round"/>
<path d="M257.986 661.743L370.215 1223.77C370.215 1223.77 533.437 1187.83 735.526 1110.01C763.791 1099.13 794.329 1095.23 824.253 1099.76C862.953 1105.61 895.435 1118.89 895.435 1118.89L898.793 1118.79L786.564 556.767L783.204 556.863C783.204 556.863 750.722 543.587 712.022 537.734C682.097 533.203 651.56 537.105 623.295 547.985C421.209 625.803 257.986 661.743 257.986 661.743Z" fill="white" stroke="#FF9F7F" stroke-width="2.5" stroke-miterlimit="10" stroke-linecap="round" stroke-linejoin="round"/>
<path d="M369.948 1222.42L350.477 1253.14L903.57 1142.7L898.528 1117.44L895.168 1117.54C895.168 1117.54 862.688 1104.26 823.985 1098.41C794.061 1093.88 763.525 1097.78 735.259 1108.66C533.172 1186.48 369.948 1222.42 369.948 1222.42Z" fill="#F7F0ED" stroke="#FF9F7F" stroke-width="2.5" stroke-miterlimit="10" stroke-linecap="round" stroke-linejoin="round"/>
<path opacity="0.16" d="M1426.88 1011.36L1456.66 1032.25L903.568 1142.7L898.525 1117.44L901.663 1116.24C901.663 1116.24 926.554 1091.51 960.039 1071.24C985.928 1055.57 1015.62 1047.44 1045.9 1046.63C1262.38 1040.87 1426.88 1011.36 1426.88 1011.36Z" fill="#FF9F7F"/>
<path opacity="0.16" d="M369.948 1222.42L350.477 1253.14L903.57 1142.7L898.528 1117.44L895.168 1117.54C895.168 1117.54 862.688 1104.26 823.985 1098.41C794.061 1093.88 763.525 1097.78 735.259 1108.66C533.172 1186.48 369.948 1222.42 369.948 1222.42Z" fill="#FF9F7F"/>
<path d="M257.986 661.742L244.52 722.533L350.475 1253.14L369.946 1222.42L257.986 661.742Z" fill="#F7F0ED" stroke="#FF9F7F" stroke-width="2.5" stroke-miterlimit="10" stroke-linecap="round" stroke-linejoin="round"/>
<path d="M1314.92 450.683L1350.7 501.64L1456.66 1032.25L1426.88 1011.36L1314.92 450.683Z" fill="#F7F0ED" stroke="#FF9F7F" stroke-width="2.5" stroke-miterlimit="10" stroke-linecap="round" stroke-linejoin="round"/>
<path d="M936.869 1136.05L870.271 1149.35C867.636 1136.14 876.2 1123.3 889.405 1120.67L908.189 1116.92C921.391 1114.28 934.231 1122.85 936.869 1136.05Z" fill="#FF9F7F" stroke="#FF9F7F" stroke-width="2.5" stroke-miterlimit="10" stroke-linecap="round" stroke-linejoin="round"/>
<path opacity="0.1" d="M816.36 532.562L786.564 556.765L898.793 1118.79L928.32 1093.24" fill="#FF9F7F"/>
<path opacity="0.1" d="M749.76 545.86L786.564 556.765L898.793 1118.79L861.72 1106.54" fill="#FF9F7F"/>
<path d="M396.323 677.796L409.252 742.543C383.527 750.078 360.734 756.387 341.652 761.48L328.723 696.734C347.805 691.638 370.605 685.363 396.323 677.796Z" fill="#FF7F80"/>
<path d="M340.678 707.825C359.76 702.729 360.84 702.889 386.558 695.32" stroke="#F7F0ED" stroke-width="4.306" stroke-miterlimit="10" stroke-linecap="round"/>
<path d="M343.6 722.465C362.682 717.37 363.762 717.53 389.48 709.963" stroke="#F7F0ED" stroke-width="4.306" stroke-miterlimit="10" stroke-linecap="round"/>
<path d="M457.907 659.012L470.836 723.758C448.88 730.71 428.238 736.961 409.251 742.543L396.322 677.796C415.309 672.214 435.951 665.963 457.907 659.012Z" fill="#FF7F80"/>
<path d="M520.235 638.524L533.17 703.304C511.435 710.684 490.603 717.513 470.839 723.758L457.91 659.011C477.675 652.767 498.506 645.938 520.235 638.524Z" fill="#FF7F80"/>
<path d="M470.648 670.525C490.415 664.281 489.34 664.69 511.066 657.276" stroke="#F7F0ED" stroke-width="4.306" stroke-miterlimit="10" stroke-linecap="round"/>
<path d="M581.274 617.012L594.203 681.758C573.234 689.425 552.845 696.605 533.17 703.303L520.234 638.523C539.91 631.827 560.305 624.678 581.274 617.012Z" fill="#FF7F80"/>
<path d="M533.477 651.258C553.152 644.56 552.783 644.76 573.752 637.094" stroke="#F7F0ED" stroke-width="4.306" stroke-miterlimit="10" stroke-linecap="round"/>
<path d="M642.111 594.66L655.04 659.407C650.511 660.751 646.02 662.289 641.571 664.022C625.509 670.202 609.7 676.129 594.202 681.758L581.273 617.011C596.771 611.382 612.58 605.456 628.642 599.276C633.091 597.542 637.582 596.005 642.111 594.66Z" fill="#FF7F80"/>
<path d="M594.432 630.572C609.929 624.943 627.532 617.741 632.061 616.398" stroke="#F7F0ED" stroke-width="4.306" stroke-miterlimit="10" stroke-linecap="round"/>
<path d="M597.447 645.676C612.945 640.047 630.547 632.845 635.076 631.503" stroke="#F7F0ED" stroke-width="4.306" stroke-miterlimit="10" stroke-linecap="round"/>
<path d="M703.354 587.531L716.282 652.278C695.642 650.927 674.902 653.48 655.04 659.407L642.111 594.66C661.974 588.735 682.714 586.18 703.354 587.531Z" fill="#FF7F80"/>
<path d="M653.84 609.696C673.702 603.77 678.86 603.798 700.067 603.881" stroke="#F7F0ED" stroke-width="4.306" stroke-miterlimit="10" stroke-linecap="round"/>
<path opacity="0.1" d="M716.282 652.28L795.913 1051.06C770.548 1049.4 745.073 1053.61 721.2 1062.8C602.993 1108.3 498.048 1139.53 431.32 1157.58L421.151 1159.61L341.648 761.482C360.733 756.389 383.526 750.08 409.248 742.545C428.235 736.962 448.877 730.714 470.833 723.76C490.6 717.516 511.431 710.687 533.164 703.307C552.84 696.607 573.228 689.429 594.197 681.762C609.695 676.134 625.504 670.207 641.566 664.027C646.017 662.294 650.506 660.756 655.035 659.411C674.902 653.482 695.642 650.929 716.282 652.28Z" fill="#FF9F7F"/>
<path opacity="0.27" d="M1259.67 528.514C1240.09 531.14 1216.63 534.069 1189.98 536.991C1170.31 539.129 1148.85 541.287 1125.91 543.3C1105.26 545.127 1083.4 546.823 1060.5 548.356C1039.76 549.727 1018.18 550.929 995.872 551.903C979.401 552.658 962.53 553.258 945.325 553.72C940.55 553.829 935.814 554.134 931.116 554.631C910.501 556.789 890.372 562.396 871.832 571.571" stroke="#FF9F7F" stroke-width="2.5" stroke-miterlimit="10" stroke-linecap="round"/>
<path opacity="0.27" d="M1264.37 552.062C1244.8 554.689 1221.33 557.618 1194.68 560.54C1175.01 562.678 1153.55 564.836 1130.61 566.849C1109.96 568.676 1088.1 570.371 1065.2 571.905C1044.46 573.276 1022.88 574.478 1000.57 575.451C984.102 576.207 967.231 576.84 950.027 577.269C945.251 577.387 940.515 577.683 935.818 578.18C915.202 580.338 895.073 585.945 876.533 595.12" stroke="#FF9F7F" stroke-width="2.5" stroke-miterlimit="10" stroke-linecap="round"/>
<path opacity="0.27" d="M1269.24 576.467C1249.67 579.093 1226.2 582.022 1199.56 584.945C1179.88 587.082 1158.42 589.24 1135.48 591.253C1114.83 593.08 1092.98 594.776 1070.07 596.309C1049.33 597.68 1027.75 598.882 1005.45 599.856C988.975 600.611 972.104 601.245 954.9 601.673C950.124 601.791 945.388 602.087 940.691 602.585C920.075 604.742 899.946 610.349 881.406 619.525" stroke="#FF9F7F" stroke-width="2.5" stroke-miterlimit="10" stroke-linecap="round"/>
<path opacity="0.27" d="M1041.85 826.702C1028.19 827.278 1014.27 827.751 1000.12 828.131C995.343 828.24 990.607 828.544 985.909 829.042C965.294 831.2 945.165 836.807 926.625 845.982" stroke="#FF9F7F" stroke-width="2.5" stroke-miterlimit="10" stroke-linecap="round"/>
<path opacity="0.27" d="M1314.46 802.927C1294.89 805.553 1271.42 808.482 1244.78 811.405C1233.64 812.616 1221.93 813.831 1209.71 815.025" stroke="#FF9F7F" stroke-width="2.5" stroke-miterlimit="10" stroke-linecap="round"/>
<path opacity="0.27" d="M1046.55 850.254C1032.89 850.838 1018.97 851.329 1004.82 851.681C1000.04 851.798 995.308 852.094 990.611 852.592C969.995 854.749 949.866 860.356 931.326 869.532" stroke="#FF9F7F" stroke-width="2.5" stroke-miterlimit="10" stroke-linecap="round"/>
<path opacity="0.27" d="M1319.17 826.476C1299.59 829.102 1276.12 832.031 1249.48 834.953C1237.71 836.233 1225.29 837.52 1212.31 838.778" stroke="#FF9F7F" stroke-width="2.5" stroke-miterlimit="10" stroke-linecap="round"/>
<path opacity="0.27" d="M1051.43 874.658C1037.77 875.243 1023.84 875.734 1009.69 876.085C1004.92 876.203 1000.18 876.498 995.486 876.996C974.87 879.154 954.741 884.76 936.201 893.936" stroke="#FF9F7F" stroke-width="2.5" stroke-miterlimit="10" stroke-linecap="round"/>
<path d="M982.084 938.089C970.16 941.047 958.566 945.242 947.535 950.702" stroke="#FF7F80" stroke-width="4.306" stroke-miterlimit="10" stroke-linecap="round"/>
<path d="M1062.76 931.42C1049.1 931.995 1035.18 932.469 1021.03 932.849" stroke="#FF7F80" stroke-width="4.306" stroke-miterlimit="10" stroke-linecap="round"/>
<path opacity="0.27" d="M989.463 960.996C976.596 963.976 964.092 968.385 952.238 974.249" stroke="#FF9F7F" stroke-width="2.5" stroke-miterlimit="10" stroke-linecap="round"/>
<path opacity="0.27" d="M1067.47 954.974C1053.81 955.558 1039.88 956.049 1025.73 956.4" stroke="#FF9F7F" stroke-width="2.5" stroke-miterlimit="10" stroke-linecap="round"/>
<path opacity="0.1" d="M994.336 985.4C981.469 988.38 968.967 992.789 957.111 998.656" stroke="#FF9F7F" stroke-width="2.5" stroke-miterlimit="10" stroke-linecap="round"/>
<path opacity="0.27" d="M1072.34 979.378C1058.68 979.962 1044.75 980.453 1030.61 980.805" stroke="#FF9F7F" stroke-width="2.5" stroke-miterlimit="10" stroke-linecap="round"/>
<path opacity="0.27" d="M1324.04 850.881C1304.47 853.508 1281 856.436 1254.35 859.359C1242.58 860.639 1230.17 861.923 1217.19 863.183" stroke="#FF9F7F" stroke-width="2.5" stroke-miterlimit="10" stroke-linecap="round"/>
<path opacity="0.27" d="M1055.88 619.831C1040.94 620.722 1025.6 621.52 1009.91 622.207C993.438 622.962 976.567 623.595 959.363 624.024C954.587 624.142 949.851 624.438 945.154 624.935C924.538 627.093 904.409 632.7 885.869 641.875" stroke="#FF9F7F" stroke-width="2.5" stroke-miterlimit="10" stroke-linecap="round"/>
<path d="M985.309 703.138C981.958 703.24 978.593 703.335 975.218 703.427C970.442 703.535 965.707 703.84 961.009 704.338C940.394 706.495 920.265 712.102 901.725 721.278" stroke="#FF7F80" stroke-width="4.306" stroke-miterlimit="10" stroke-linecap="round"/>
<path d="M980.926 681.191C977.575 681.294 974.211 681.389 970.833 681.48C966.058 681.589 961.322 681.894 956.624 682.391C936.009 684.549 915.88 690.156 897.34 699.331" stroke="#FF7F80" stroke-width="4.306" stroke-miterlimit="10" stroke-linecap="round"/>
<path d="M989.919 726.702C986.599 726.8 983.265 726.891 979.921 726.973C975.145 727.091 970.41 727.387 965.712 727.884C945.097 730.042 924.968 735.649 906.428 744.824" stroke="#FF7F80" stroke-width="4.306" stroke-miterlimit="10" stroke-linecap="round"/>
<path d="M994.792 751.107C991.472 751.205 988.139 751.296 984.792 751.379C980.017 751.496 975.281 751.792 970.583 752.29C949.968 754.447 929.839 760.054 911.299 769.23" stroke="#FF7F80" stroke-width="4.306" stroke-miterlimit="10" stroke-linecap="round"/>
<path d="M999.357 773.456C996.004 773.556 992.635 773.647 989.255 773.732C984.48 773.849 979.744 774.145 975.046 774.643C954.431 776.8 934.302 782.407 915.762 791.583" stroke="#FF7F80" stroke-width="4.306" stroke-miterlimit="10" stroke-linecap="round"/>
<path d="M490.43 1149.07L409.252 742.543" stroke="white" stroke-width="4.306" stroke-miterlimit="10" stroke-linecap="round"/>
<path d="M411.419 753.392L394.93 670.81" stroke="white" stroke-width="4.306" stroke-miterlimit="10" stroke-linecap="round"/>
<path d="M411.271 689.041C421.5 686.501 434.394 682.294 448.285 677.392" stroke="#F7F0ED" stroke-width="4.306" stroke-miterlimit="10" stroke-linecap="round"/>
<path d="M488.643 760.63C508.409 754.385 507.331 754.794 529.06 747.381" stroke="white" stroke-width="4.306" stroke-miterlimit="10" stroke-linecap="round"/>
<path d="M551.469 741.365C571.144 734.665 570.775 734.867 591.744 727.2" stroke="white" stroke-width="4.306" stroke-miterlimit="10" stroke-linecap="round"/>
<path d="M612.426 720.678C627.924 715.049 645.526 707.847 650.055 706.505Z" fill="#F7F0ED"/>
<path d="M612.426 720.678C627.924 715.049 645.526 707.847 650.055 706.505" stroke="#FF9F7F" stroke-width="2.5" stroke-miterlimit="10" stroke-linecap="round" stroke-linejoin="round"/>
<path d="M671.834 699.803C691.696 693.876 696.854 693.905 718.061 693.987Z" fill="#F7F0ED"/>
<path d="M671.834 699.803C691.696 693.876 696.854 693.905 718.061 693.987" stroke="#FF9F7F" stroke-width="2.5" stroke-miterlimit="10" stroke-linecap="round" stroke-linejoin="round"/>
<path d="M429.266 779.147C439.495 776.607 452.388 772.4 466.279 767.498" stroke="white" stroke-width="4.306" stroke-miterlimit="10" stroke-linecap="round"/>
<path d="M500.76 821.322C520.526 815.078 519.451 815.487 541.178 808.073Z" fill="#F7F0ED"/>
<path d="M500.76 821.322C520.526 815.078 519.451 815.487 541.178 808.073" stroke="#FF9F7F" stroke-width="2.5" stroke-miterlimit="10" stroke-linecap="round" stroke-linejoin="round"/>
<path d="M563.59 802.058C583.265 795.358 582.897 795.56 603.865 787.894Z" fill="#F7F0ED"/>
<path d="M563.59 802.058C583.265 795.358 582.897 795.56 603.865 787.894" stroke="#FF9F7F" stroke-width="2.5" stroke-miterlimit="10" stroke-linecap="round" stroke-linejoin="round"/>
<path d="M624.545 781.372C640.043 775.743 657.645 768.54 662.174 767.198" stroke="white" stroke-width="4.306" stroke-miterlimit="10" stroke-linecap="round"/>
<path d="M441.383 839.84C451.612 837.3 464.505 833.094 478.396 828.191" stroke="white" stroke-width="4.306" stroke-miterlimit="10" stroke-linecap="round"/>
<path d="M521.691 926.139C541.458 919.894 540.383 920.303 562.109 912.89" stroke="#FF7F80" stroke-width="4.306" stroke-miterlimit="10" stroke-linecap="round"/>
<path d="M645.475 886.187C660.972 880.558 678.575 873.356 683.103 872.014" stroke="#FF7F80" stroke-width="4.306" stroke-miterlimit="10" stroke-linecap="round"/>
<path d="M704.885 865.311C724.747 859.385 729.905 859.414 751.111 859.496Z" fill="#F7F0ED"/>
<path d="M704.885 865.311C724.747 859.385 729.905 859.414 751.111 859.496" stroke="#FF9F7F" stroke-width="2.5" stroke-miterlimit="10" stroke-linecap="round" stroke-linejoin="round"/>
<path d="M462.314 944.656C472.543 942.116 485.437 937.909 499.328 933.007" stroke="white" stroke-width="4.306" stroke-miterlimit="10" stroke-linecap="round"/>
<path d="M573.633 852.361C593.308 845.661 592.939 845.863 613.908 838.196" stroke="#FF7F80" stroke-width="4.306" stroke-miterlimit="10" stroke-linecap="round"/>
<path d="M634.59 831.673C650.088 826.044 667.69 818.842 672.219 817.5" stroke="white" stroke-width="4.306" stroke-miterlimit="10" stroke-linecap="round"/>
<path d="M693.998 810.798C713.86 804.871 719.018 804.9 740.225 804.982Z" fill="#F7F0ED"/>
<path d="M693.998 810.798C713.86 804.871 719.018 804.9 740.225 804.982" stroke="#FF9F7F" stroke-width="2.5" stroke-miterlimit="10" stroke-linecap="round" stroke-linejoin="round"/>
<path d="M451.43 890.143C461.659 887.603 474.552 883.396 488.443 878.494Z" fill="#F7F0ED"/>
<path d="M451.43 890.143C461.659 887.603 474.552 883.396 488.443 878.494" stroke="#FF9F7F" stroke-width="2.5" stroke-miterlimit="10" stroke-linecap="round" stroke-linejoin="round"/>
<path d="M534.188 988.716C553.954 982.471 552.876 982.88 574.605 975.467" stroke="white" stroke-width="4.306" stroke-miterlimit="10" stroke-linecap="round"/>
<path d="M597.016 969.45C616.691 962.75 616.322 962.952 637.291 955.285" stroke="white" stroke-width="4.306" stroke-miterlimit="10" stroke-linecap="round"/>
<path d="M657.969 948.762C673.467 943.133 691.069 935.931 695.598 934.589" stroke="white" stroke-width="4.306" stroke-miterlimit="10" stroke-linecap="round"/>
<path d="M717.381 927.887C737.243 921.96 742.401 921.989 763.607 922.071" stroke="white" stroke-width="4.306" stroke-miterlimit="10" stroke-linecap="round"/>
<path d="M474.809 1007.23C485.037 1004.69 497.931 1000.49 511.822 995.583" stroke="#FF7F80" stroke-width="4.306" stroke-miterlimit="10" stroke-linecap="round"/>
<path d="M546.039 1048.06C565.806 1041.82 564.728 1042.23 586.457 1034.81" stroke="white" stroke-width="4.306" stroke-miterlimit="10" stroke-linecap="round"/>
<path d="M669.82 1008.11C685.318 1002.48 702.92 995.278 707.449 993.936" stroke="#FF7F80" stroke-width="4.306" stroke-miterlimit="10" stroke-linecap="round"/>
<path d="M729.232 987.236C749.095 981.31 754.252 981.338 775.459 981.421" stroke="white" stroke-width="4.306" stroke-miterlimit="10" stroke-linecap="round"/>
<path d="M486.66 1066.58C496.889 1064.04 509.782 1059.83 523.674 1054.93" stroke="white" stroke-width="4.306" stroke-miterlimit="10" stroke-linecap="round"/>
<path d="M551.529 1127.85L470.836 723.758" stroke="white" stroke-width="4.306" stroke-miterlimit="10" stroke-linecap="round"/>
<path d="M473.762 738.41L456.033 649.623" stroke="white" stroke-width="4.306" stroke-miterlimit="10" stroke-linecap="round"/>
<path d="M614.821 1112.2L533.17 703.305" stroke="white" stroke-width="4.306" stroke-miterlimit="10" stroke-linecap="round"/>
<path d="M534.708 711.004L518.605 630.371" stroke="white" stroke-width="4.306" stroke-miterlimit="10" stroke-linecap="round"/>
<path d="M675.754 1090.15L594.203 681.758" stroke="white" stroke-width="4.306" stroke-miterlimit="10" stroke-linecap="round"/>
<path d="M357.141 790.267C376.223 785.172 377.303 785.332 403.021 777.763" stroke="white" stroke-width="4.306" stroke-miterlimit="10" stroke-linecap="round"/>
<path d="M360.064 804.908C379.149 799.814 380.227 799.972 405.944 792.405" stroke="white" stroke-width="4.306" stroke-miterlimit="10" stroke-linecap="round"/>
<path d="M368.842 848.872C387.924 843.776 389.004 843.936 414.722 836.367" stroke="white" stroke-width="4.306" stroke-miterlimit="10" stroke-linecap="round"/>
<path d="M371.768 863.512C390.85 858.419 391.93 858.576 417.648 851.01" stroke="white" stroke-width="4.306" stroke-miterlimit="10" stroke-linecap="round"/>
<path d="M379.029 899.878C398.114 894.783 399.192 894.943 424.909 887.374" stroke="white" stroke-width="4.306" stroke-miterlimit="10" stroke-linecap="round"/>
<path d="M381.951 914.518C401.033 909.424 402.113 909.582 427.831 902.016" stroke="white" stroke-width="4.306" stroke-miterlimit="10" stroke-linecap="round"/>
<path d="M390.732 958.483C409.817 953.387 410.895 953.547 436.612 945.979" stroke="white" stroke-width="4.306" stroke-miterlimit="10" stroke-linecap="round"/>
<path d="M393.654 973.122C412.737 968.029 413.817 968.187 439.534 960.62" stroke="white" stroke-width="4.306" stroke-miterlimit="10" stroke-linecap="round"/>
<path d="M402.406 1016.96C421.488 1011.86 422.568 1012.02 448.286 1004.45" stroke="white" stroke-width="4.306" stroke-miterlimit="10" stroke-linecap="round"/>
<path d="M405.332 1031.6C424.416 1026.5 425.494 1026.66 451.212 1019.09" stroke="white" stroke-width="4.306" stroke-miterlimit="10" stroke-linecap="round"/>
<path d="M414.109 1075.56C433.192 1070.46 434.272 1070.62 459.989 1063.06" stroke="white" stroke-width="4.306" stroke-miterlimit="10" stroke-linecap="round"/>
<path d="M417.033 1090.2C436.118 1085.1 437.195 1085.26 462.913 1077.7" stroke="white" stroke-width="4.306" stroke-miterlimit="10" stroke-linecap="round"/>
<path d="M594.949 685.495L579.158 606.42" stroke="white" stroke-width="4.306" stroke-miterlimit="10" stroke-linecap="round"/>
<path d="M735.79 1063.78L655.041 659.407" stroke="white" stroke-width="4.306" stroke-miterlimit="10" stroke-linecap="round"/>
<path d="M656.122 664.833L640.262 585.402" stroke="white" stroke-width="4.306" stroke-miterlimit="10" stroke-linecap="round"/>
<path opacity="0.27" d="M1200.65 735.64C1210.46 734.66 1219.97 733.671 1229.06 732.682C1255.7 729.76 1279.17 726.831 1298.74 724.204" stroke="#FF9F7F" stroke-width="2.5" stroke-miterlimit="10" stroke-linecap="round"/>
<path d="M1186.49 664.733C1196.3 663.753 1205.81 662.765 1214.89 661.776C1241.54 658.853 1265.01 655.925 1284.58 653.298" stroke="#FF7F80" stroke-width="4.306" stroke-miterlimit="10" stroke-linecap="round"/>
<path opacity="0.27" d="M1191.19 688.282C1201.01 687.302 1210.51 686.313 1219.6 685.324C1246.24 682.402 1269.71 679.473 1289.29 676.847" stroke="#FF9F7F" stroke-width="2.5" stroke-miterlimit="10" stroke-linecap="round"/>
<path opacity="0.27" d="M1196.06 712.687C1205.88 711.707 1215.39 710.718 1224.47 709.729C1251.12 706.807 1274.58 703.878 1294.16 701.251" stroke="#FF9F7F" stroke-width="2.5" stroke-miterlimit="10" stroke-linecap="round"/>
<path opacity="0.27" d="M1205.52 760.045C1215.34 759.065 1224.85 758.076 1233.93 757.087C1260.57 754.165 1284.04 751.236 1303.62 748.609" stroke="#FF9F7F" stroke-width="2.5" stroke-miterlimit="10" stroke-linecap="round"/>
<path opacity="0.27" d="M1044.62 747.145C1063.49 746.256 1081.86 745.218 1099.57 744.047C1114.79 743.029 1129.49 741.931 1143.73 740.78" stroke="#FF9F7F" stroke-width="2.5" stroke-miterlimit="10" stroke-linecap="round"/>
<path opacity="0.27" d="M1040.04 724.189C1058.91 723.3 1077.27 722.262 1094.99 721.091C1110.2 720.073 1124.91 718.975 1139.15 717.824" stroke="#FF9F7F" stroke-width="2.5" stroke-miterlimit="10" stroke-linecap="round"/>
<path d="M1030.46 676.235C1049.34 675.346 1067.7 674.309 1085.41 673.14C1100.63 672.122 1115.33 671.024 1129.57 669.873" stroke="#FF7F80" stroke-width="4.306" stroke-miterlimit="10" stroke-linecap="round"/>
<path opacity="0.27" d="M1049.5 771.549C1068.37 770.66 1086.73 769.622 1104.45 768.451C1119.66 767.433 1134.36 766.338 1148.61 765.185" stroke="#FF9F7F" stroke-width="2.5" stroke-miterlimit="10" stroke-linecap="round"/>
<path opacity="0.27" d="M1035.17 699.784C1054.04 698.896 1072.4 697.858 1090.12 696.687C1105.33 695.669 1120.03 694.571 1134.28 693.42" stroke="#FF9F7F" stroke-width="2.5" stroke-miterlimit="10" stroke-linecap="round"/>
<path opacity="0.27" d="M1251.08 941.734C1260.89 940.754 1270.4 939.766 1279.48 938.777C1306.13 935.854 1329.6 932.925 1349.17 930.299" stroke="#FF9F7F" stroke-width="2.5" stroke-miterlimit="10" stroke-linecap="round"/>
<path opacity="0.27" d="M1246.49 918.778C1256.31 917.798 1265.81 916.809 1274.9 915.821C1301.54 912.898 1325.01 909.969 1344.59 907.343" stroke="#FF9F7F" stroke-width="2.5" stroke-miterlimit="10" stroke-linecap="round"/>
<path opacity="0.27" d="M1255.95 966.139C1265.76 965.159 1275.27 964.17 1284.36 963.181C1311 960.259 1334.47 957.33 1354.04 954.703" stroke="#FF9F7F" stroke-width="2.5" stroke-miterlimit="10" stroke-linecap="round"/>
<path opacity="0.27" d="M1161.28 949.365C1172.51 948.572 1183.47 947.738 1194.16 946.874" stroke="#FF9F7F" stroke-width="2.5" stroke-miterlimit="10" stroke-linecap="round"/>
<path opacity="0.27" d="M1095.05 953.236C1106.35 952.705 1117.47 952.118 1128.37 951.482" stroke="#FF9F7F" stroke-width="2.5" stroke-miterlimit="10" stroke-linecap="round"/>
<path d="M1159.25 926.23C1169.59 925.492 1179.69 924.719 1189.58 923.921" stroke="#FF7F80" stroke-width="4.306" stroke-miterlimit="10" stroke-linecap="round"/>
<path d="M1090.47 930.283C1101.76 929.752 1112.88 929.165 1123.79 928.529" stroke="#FF7F80" stroke-width="4.306" stroke-miterlimit="10" stroke-linecap="round"/>
<path opacity="0.27" d="M1164.7 973.872C1176.44 973.049 1187.88 972.181 1199.03 971.278" stroke="#FF9F7F" stroke-width="2.5" stroke-miterlimit="10" stroke-linecap="round"/>
<path opacity="0.27" d="M1099.92 977.641C1111.22 977.11 1122.34 976.523 1133.24 975.888" stroke="#FF9F7F" stroke-width="2.5" stroke-miterlimit="10" stroke-linecap="round"/>
<path opacity="0.1" d="M1182.25 816.892L1191.86 865.038C1181.19 866.087 1170.11 867.118 1158.69 868.114C1138.04 869.94 1116.19 871.636 1093.28 873.169C1088.65 873.487 1083.98 873.778 1079.24 874.08L1069.63 825.934C1074.37 825.629 1079.04 825.338 1083.67 825.023C1106.57 823.489 1128.43 821.794 1149.08 819.967C1160.5 818.972 1171.58 817.94 1182.25 816.892Z" fill="#FF9F7F"/>
<path d="M883.024 737.434L863.617 718.492L852.975 743.434L811.568 536.076L838.948 516.707L883.024 737.434Z" fill="#F7964C" stroke="#FF9F7F" stroke-width="2.5" stroke-miterlimit="10"/>
<path opacity="0.22" d="M1309.47 1302.58C1309.68 1299.17 1309.83 1295.74 1309.82 1292.27C1309.66 1203.4 1236.44 1131.73 1147.09 1133.99C1062.95 1136.12 994.452 1204.86 992.619 1289.01C990.672 1378.36 1062.6 1451.33 1151.48 1451.17C1154.79 1451.16 1158.07 1451.02 1161.33 1450.82C1160.56 1451.22 1160.14 1451.44 1160.14 1451.44L1172.69 1461.98C1212.61 1495.5 1271.91 1491.4 1306.84 1452.7L1317.81 1440.56C1354.12 1400.33 1350.36 1338.14 1309.47 1302.58Z" fill="#FF9F7F" stroke="#FF9F7F" stroke-width="2.5" stroke-miterlimit="10" stroke-linecap="round"/>
<path d="M1292.05 1271.06C1292.2 1358.41 1221.72 1429.36 1134.47 1429.95H1133.7C1046.11 1430.1 974.958 1359.2 974.809 1271.6C974.662 1184.01 1045.54 1112.86 1133.13 1112.71C1218.78 1112.56 1288.64 1180.25 1291.93 1265.13C1292 1267.11 1292.05 1269.08 1292.05 1271.06Z" fill="#FDFFFF" stroke="#FF9F7F" stroke-width="2.4101" stroke-miterlimit="10" stroke-linecap="round"/>
<path opacity="0.26" d="M1292.05 1271.06C1292.2 1358.41 1221.72 1429.36 1134.47 1429.95L1129.43 1425.11L1113.06 1413.55L1112.04 1397.25L1051.98 1324.77L1191.79 1180.55L1291.93 1265.13C1292 1267.11 1292.05 1269.09 1292.05 1271.06Z" fill="#FF9F7F" stroke="#FF9F7F" stroke-width="2.4101" stroke-miterlimit="10" stroke-linecap="round"/>
<path d="M1180.37 1346.02C1227.99 1317.75 1243.67 1256.24 1215.4 1208.63C1187.14 1161.01 1125.62 1145.33 1078.01 1173.59C1030.39 1201.86 1014.71 1263.38 1042.98 1310.99C1071.24 1358.61 1132.76 1374.29 1180.37 1346.02Z" fill="#EFE4E6" stroke="#FF9F7F" stroke-width="2.4101" stroke-miterlimit="10" stroke-linecap="round"/>
<path d="M1129.42 1395.95C1119.85 1395.96 1112.08 1388.22 1112.07 1378.65L1112 1340.19L1146.65 1340.13L1146.72 1378.59C1146.73 1388.16 1138.99 1395.93 1129.42 1395.95Z" fill="#FDFFFF" stroke="#FF9F7F" stroke-width="2.4101" stroke-miterlimit="10" stroke-linecap="round"/>
<path d="M1150.51 1342.58C1208.35 1330.79 1245.68 1274.34 1233.88 1216.5C1222.09 1158.66 1165.64 1121.33 1107.8 1133.13C1049.96 1144.92 1012.63 1201.37 1024.42 1259.21C1036.22 1317.05 1092.67 1354.38 1150.51 1342.58Z" fill="#FDFFFF" stroke="#FF9F7F" stroke-width="2.4101" stroke-miterlimit="10" stroke-linecap="round"/>
<path d="M1145.18 1318.68C1189.72 1309.84 1218.67 1266.56 1209.83 1222.02C1200.98 1177.48 1157.71 1148.54 1113.17 1157.38C1068.62 1166.22 1039.68 1209.5 1048.52 1254.04C1057.36 1298.58 1100.64 1327.52 1145.18 1318.68Z" fill="#FF9F7F" stroke="#FF9F7F" stroke-width="2" stroke-miterlimit="10"/>
<path d="M1180.29 1230.44C1182.71 1236.62 1184.04 1243.34 1184.06 1250.37C1184.11 1280.7 1159.57 1305.33 1129.24 1305.38" stroke="#224850" stroke-width="4.8202" stroke-miterlimit="10" stroke-linecap="round"/>
<path d="M1092.29 1209.76C1102.01 1200.96 1114.9 1195.58 1129.05 1195.56C1138.94 1195.54 1148.23 1198.14 1156.25 1202.7" stroke="#224850" stroke-width="4.8202" stroke-miterlimit="10" stroke-linecap="round"/>
<path d="M1201.68 1177.3C1215.39 1193.68 1223.66 1214.77 1223.7 1237.8C1223.79 1290.02 1181.53 1332.43 1129.31 1332.52" stroke="white" stroke-width="2.4101" stroke-miterlimit="10" stroke-linecap="round"/>
<path d="M1128.98 1143.41C1148.56 1143.38 1166.77 1149.3 1181.87 1159.47" stroke="white" stroke-width="2.4101" stroke-miterlimit="10" stroke-linecap="round"/>
<path d="M1129 1176.59C1170.93 1176.51 1205.55 1207.84 1210.69 1248.39C1211.12 1244.93 1211.37 1241.4 1211.37 1237.82C1211.29 1192.41 1174.41 1155.67 1129 1155.75C1083.59 1155.83 1046.84 1192.7 1046.92 1238.11C1046.93 1241.59 1047.18 1245.02 1047.6 1248.38C1052.72 1207.96 1087.17 1176.66 1129 1176.59Z" fill="#EFE4E6" stroke="#FF9F7F" stroke-width="2.4101" stroke-miterlimit="10" stroke-linecap="round" stroke-linejoin="round"/>
<path d="M389.244 260.996C389.244 260.996 378.737 188.984 399.224 191.043C419.712 193.099 435.859 220.737 435.859 220.737C435.859 220.737 447.698 185.268 455.682 197.004C463.671 208.748 455.639 235.734 455.639 235.734C455.639 235.734 491.538 207.997 497.618 223.982C503.701 239.967 483.372 271.629 483.372 271.629C483.372 271.629 508.812 262.652 511.12 277.962C513.425 293.271 490.412 310.474 490.412 310.474C490.412 310.474 528.536 345.934 511.701 351.634C494.87 357.338 462.272 334.554 462.272 334.554C462.272 334.554 475.98 383.525 456.046 384.778C436.112 386.027 424.036 356.136 424.036 356.136C424.036 356.136 408.889 392.162 389.196 379.248C369.503 366.331 383.385 339.934 383.385 339.934C383.385 339.934 330.485 369.212 326.773 350.215C323.066 331.218 360.57 302.169 360.57 302.169C360.57 302.169 300.215 302.607 314.065 285.377C327.92 268.139 360.874 269.677 360.874 269.677C360.874 269.677 322.512 248.383 335.774 236.999C349.04 225.623 389.244 260.996 389.244 260.996Z" fill="#F7964C"/>
<path d="M431.242 269.644C457.168 282.301 450.595 324.213 413.047 312.461C375.499 300.709 405.311 256.991 431.242 269.644Z" fill="white"/>
<path d="M424.722 272.567C428.493 275.729 426.967 282.891 419.955 279.413C413.381 276.152 420.39 268.926 424.722 272.567Z" fill="#331336"/>
<path d="M437.902 286.838C442.274 287.336 443.021 293.099 437.633 292.558C432.242 292.016 433.538 286.34 437.902 286.838Z" fill="#331336"/>
<path d="M422.158 285.198C426.83 286.874 427.605 291.191 420.937 290.701C414.272 290.215 417.486 283.519 422.158 285.198Z" fill="#331336"/>
<path d="M403.423 287.432C410.147 287.321 412.716 293.689 405.929 294.401C399.142 295.108 396.695 287.542 403.423 287.432Z" fill="#331336"/>
<path d="M430.005 301.654C433.677 301.843 435.974 307.879 431.025 307.749C426.08 307.614 426.333 301.468 430.005 301.654Z" fill="#331336"/>
<path d="M418.811 296.843C423.622 297.748 425.495 303.804 419.791 303.958C414.087 304.112 414.004 295.934 418.811 296.843Z" fill="#331336"/>
<path d="M807.137 1416.96C807.137 1416.96 781.044 1402.53 788.262 1389.21C795.476 1375.88 812.129 1379.21 812.129 1379.21C812.129 1379.21 810.465 1365.33 827.118 1361.44C843.771 1357.56 850.989 1380.32 850.989 1380.32C850.989 1380.32 886.517 1385.87 883.742 1405.3C880.963 1424.73 846.546 1429.73 846.546 1429.73C846.546 1429.73 853.768 1458.04 824.901 1456.37C796.033 1454.71 807.137 1416.96 807.137 1416.96Z" fill="#F36551"/>
<path d="M842.31 1391.67C850.082 1398.33 841.199 1416.1 831.764 1412.77C822.325 1409.44 834.539 1385.01 842.31 1391.67Z" fill="#FCD2BF"/>
<path d="M227.867 537.977C227.867 537.977 212.49 529.472 216.744 521.622C220.995 513.767 230.809 515.731 230.809 515.731C230.809 515.731 229.828 507.552 239.643 505.262C249.457 502.974 253.71 516.385 253.71 516.385C253.71 516.385 274.648 519.658 273.012 531.107C271.375 542.557 251.092 545.501 251.092 545.501C251.092 545.501 255.348 562.187 238.336 561.204C221.324 560.224 227.867 537.977 227.867 537.977Z" fill="#F36551"/>
<path d="M248.596 523.077C253.176 527.002 247.941 537.471 242.381 535.507C236.818 533.546 244.016 519.15 248.596 523.077Z" fill="#FCD2BF"/>
<path d="M1760.23 409.827C1760.23 409.827 1767.72 339.352 1789.41 346.262C1811.09 353.175 1811.98 377.714 1811.98 377.714C1811.98 377.714 1826.98 356.519 1842.3 364.587C1857.62 372.651 1854.96 388.857 1854.96 388.857C1854.96 388.857 1866.78 376.145 1875.45 387.723C1884.12 399.305 1879.33 425.314 1879.33 425.314C1879.33 425.314 1896.7 420.215 1892.65 434.097C1888.58 447.979 1854.45 470.953 1854.45 470.953C1854.45 470.953 1906.19 482.906 1906.25 500.398C1906.3 517.893 1887.64 525.715 1887.64 525.715C1887.64 525.715 1896.14 544.697 1889.57 551.571C1882.99 558.448 1871 548.626 1871 548.626C1871 548.626 1884.26 569.856 1868.45 569.876C1852.64 569.896 1817.5 533.344 1817.5 533.344C1817.5 533.344 1840.49 583.288 1829.39 598.004C1818.28 612.72 1805.68 605.937 1805.68 605.937C1805.68 605.937 1803.92 632.556 1789.43 631.536C1774.95 630.512 1746.84 577.323 1746.84 577.323C1746.84 577.323 1723.49 616.199 1711.25 610.416C1699.01 604.637 1696.71 591.909 1696.71 591.909C1696.71 591.909 1668.31 600.957 1666.05 589.905C1663.78 578.857 1664.76 562.686 1664.76 562.686C1664.76 562.686 1646.91 561.741 1638.28 551.843C1629.65 541.945 1637.41 513.177 1637.41 513.177C1637.41 513.177 1620.26 498.421 1629.51 491.148C1638.77 483.879 1675.32 478.681 1675.32 478.681C1675.32 478.681 1613.46 465.269 1616.08 447.383C1618.71 429.496 1631.97 420.788 1631.97 420.788C1631.97 420.788 1622.07 399.478 1632.04 394.209C1642.02 388.94 1692.62 410.341 1690.58 409.376C1688.54 408.416 1667.8 383.647 1671.61 373.809C1675.43 363.966 1687.48 361.342 1687.48 361.342C1687.48 361.342 1678.75 332.269 1702.25 330.055C1725.75 327.85 1757.81 392.051 1760.23 409.827Z" fill="#F7964C"/>
<path d="M1719 494.614C1719 494.614 1700.67 473.803 1705.95 466.696C1711.22 459.585 1717.11 456.608 1717.11 456.608C1717.11 456.608 1714.42 440.619 1721.9 439.674C1729.39 438.73 1747.99 460.312 1747.99 460.312C1747.99 460.312 1752.21 440.548 1761.26 440.342C1770.32 440.137 1776.16 446.738 1776.16 446.738C1776.16 446.738 1787.41 440.532 1791.52 450.79C1795.64 461.051 1790.01 475.673 1790.01 475.673C1790.01 475.673 1808.87 473.696 1810.86 481.677C1812.85 489.654 1807.05 496.516 1807.05 496.516C1807.05 496.516 1819.14 504.789 1813.59 511.121C1808.04 517.462 1794.86 518.276 1794.86 518.276C1794.86 518.276 1802.63 530.265 1798.84 534.233C1795.05 538.202 1784.11 535.597 1784.11 535.597C1784.11 535.597 1785.7 548.507 1774.3 548.246C1762.91 547.981 1757.63 532.055 1757.63 532.055C1757.63 532.055 1753.18 541.471 1746.94 539.803C1740.68 538.131 1741.28 530.091 1741.28 530.091C1741.28 530.091 1722.05 538.289 1721.35 530.281C1720.66 522.272 1723.62 515.995 1723.62 515.995C1723.62 515.995 1704.19 515.137 1701.65 505.619C1699.1 496.097 1719 494.614 1719 494.614Z" fill="#F9AC4F"/>
<path d="M1747.44 465.04C1757.71 464.598 1759.95 477.108 1749.67 480.682C1739.39 484.255 1737.16 465.487 1747.44 465.04Z" fill="#331336"/>
<path d="M1773.8 473.977C1782.73 473.083 1793.01 483.361 1781.39 486.934C1769.77 490.507 1764.86 474.87 1773.8 473.977Z" fill="#331336"/>
<path d="M1761.73 484.255C1771.12 482.468 1772.9 494.979 1763.07 498.106C1753.24 501.232 1752.35 486.042 1761.73 484.255Z" fill="#331336"/>
<path d="M1737.16 490.066C1747.88 488.279 1747.88 499.893 1740.73 503.019C1733.58 506.15 1726.43 491.853 1737.16 490.066Z" fill="#331336"/>
<path d="M1760.39 503.468C1769.33 503.018 1772.9 512.852 1762.63 516.426C1752.35 519.999 1751.46 503.915 1760.39 503.468Z" fill="#331336"/>
<path d="M1781.39 499.002C1792.12 496.765 1798.37 504.805 1787.2 509.275C1776.03 513.742 1770.67 501.231 1781.39 499.002Z" fill="#331336"/>
<path d="M943.395 344.587C943.395 344.587 967.549 343.599 966.3 351.261C965.049 358.923 956.814 360.448 956.814 360.448C956.814 360.448 964.713 364.45 962.756 370.021C960.8 375.593 955.198 375.505 955.198 375.505C955.198 375.505 960.078 378.859 956.604 382.363C953.129 385.866 944.113 385.547 944.113 385.547C944.113 385.547 946.701 391.155 941.814 390.478C936.928 389.8 927.472 379.43 927.472 379.43C927.472 379.43 926.021 397.484 920.122 398.377C914.222 399.268 910.651 393.362 910.651 393.362C910.651 393.362 904.671 397.177 902.023 395.302C899.374 393.427 902.09 388.891 902.09 388.891C902.09 388.891 895.588 394.425 894.793 389.091C893.997 383.757 904.577 370.077 904.577 370.077C904.577 370.077 888.872 380.327 883.352 377.314C877.832 374.301 879.492 369.711 879.492 369.711C879.492 369.711 870.423 370.447 870.044 365.507C869.667 360.568 886.211 348.429 886.211 348.429C886.211 348.429 871.928 342.491 873.268 338.072C874.608 333.654 878.787 332.241 878.787 332.241C878.787 332.241 874.317 323.112 877.933 321.796C881.548 320.48 887.053 320.005 887.053 320.005C887.053 320.005 886.481 313.934 889.39 310.527C892.299 307.12 902.393 308.303 902.393 308.303C902.393 308.303 906.516 301.78 909.432 304.539C912.347 307.3 915.925 319.374 915.925 319.374C915.925 319.374 917.363 297.831 923.529 297.824C929.695 297.817 933.296 301.856 933.296 301.856C933.296 301.856 939.992 297.453 942.267 300.555C944.543 303.658 939.848 321.801 940.071 321.064C940.294 320.328 947.616 312.094 951.126 312.89C954.637 313.686 956.124 317.622 956.124 317.622C956.124 317.622 965.499 313.226 967.418 321.045C969.335 328.863 949.272 342.884 943.395 344.587Z" fill="#C2C2C2"/>
<path d="M912.729 334.908C912.729 334.908 918.836 327.685 921.498 329.11C924.16 330.535 925.458 332.373 925.458 332.373C925.458 332.373 930.719 330.667 931.412 333.146C932.104 335.625 925.75 342.979 925.75 342.979C925.75 342.979 932.629 343.415 933.15 346.46C933.672 349.505 931.736 351.806 931.736 351.806C931.736 351.806 934.391 355.292 931.135 357.191C927.879 359.092 922.664 357.924 922.664 357.924C922.664 357.924 924.272 364.186 921.678 365.256C919.086 366.326 916.481 364.711 916.481 364.711C916.481 364.711 914.294 369.205 911.88 367.648C909.463 366.091 908.531 361.684 908.531 361.684C908.531 361.684 904.874 364.906 903.345 363.824C901.817 362.742 902.15 358.924 902.15 358.924C902.15 358.924 897.873 360.103 897.393 356.245C896.913 352.387 902.023 349.811 902.023 349.811C902.023 349.811 898.625 348.781 898.876 346.589C899.128 344.396 901.87 344.197 901.87 344.197C901.87 344.197 898.145 338.118 900.812 337.482C903.479 336.847 905.745 337.534 905.745 337.534C905.745 337.534 905.065 330.935 908.15 329.602C911.236 328.268 912.729 334.908 912.729 334.908Z" fill="#F9AC4F"/>
<path d="M924.127 343.026C924.789 346.472 920.679 347.85 918.961 344.561C917.242 341.272 923.463 339.581 924.127 343.026Z" fill="#331336"/>
<path d="M922.427 352.366C923.174 355.337 920.219 359.318 918.434 355.576C916.648 351.834 921.679 349.396 922.427 352.366Z" fill="#331336"/>
<path d="M918.358 348.809C919.429 351.886 915.297 353.114 913.752 349.953C912.206 346.792 917.287 345.733 918.358 348.809Z" fill="#331336"/>
<path d="M915.169 340.806C916.307 344.335 912.389 344.915 910.977 342.659C909.564 340.403 914.031 337.277 915.169 340.806Z" fill="#331336"/>
<path d="M911.808 349.317C912.406 352.309 909.266 354.006 907.547 350.717C905.829 347.428 911.211 346.324 911.808 349.317Z" fill="#331336"/>
<path d="M914.363 356.178C915.653 359.685 913.252 362.197 911.186 358.651C909.121 355.104 913.075 352.671 914.363 356.178Z" fill="#331336"/>
<path d="M542.472 1570.88C542.472 1570.88 592.968 1563.5 592.031 1579.86C591.09 1596.22 574.134 1601.23 574.134 1601.23C574.134 1601.23 591.601 1607.9 588.716 1620.03C585.834 1632.16 574.054 1633.2 574.054 1633.2C574.054 1633.2 585.037 1639.17 578.514 1647.3C571.988 1655.41 552.989 1656.73 552.989 1656.73C552.989 1656.73 559.656 1667.93 549.246 1667.59C538.837 1667.24 516.703 1647.54 516.703 1647.54C516.703 1647.54 517.627 1685.77 505.438 1688.94C493.246 1692.11 484.449 1680.49 484.449 1680.49C484.449 1680.49 472.731 1689.82 466.76 1686.47C460.787 1683.11 465.491 1672.99 465.491 1672.99C465.491 1672.99 453.057 1686.04 450.213 1675.01C447.369 1663.99 466.574 1632.94 466.574 1632.94C466.574 1632.94 435.854 1657.91 423.602 1652.8C411.35 1647.69 413.826 1637.69 413.826 1637.69C413.826 1637.69 394.945 1641.23 393.064 1630.94C391.185 1620.65 423.251 1591.53 423.251 1591.53C423.251 1591.53 391.957 1582.2 393.8 1572.63C395.64 1563.06 404.105 1559.17 404.105 1559.17C404.105 1559.17 392.712 1540.99 400.015 1537.43C407.315 1533.87 418.77 1531.66 418.77 1531.66C418.77 1531.66 416.233 1519.04 421.591 1511.25C426.949 1503.45 448.404 1503.72 448.404 1503.72C448.404 1503.72 455.626 1489.12 462.355 1494.27C469.082 1499.42 479.25 1523.99 479.25 1523.99C479.25 1523.99 477.532 1478.44 490.477 1477.07C503.422 1475.7 511.869 1483.39 511.869 1483.39C511.869 1483.39 524.96 1472.67 530.42 1478.68C535.881 1484.7 530.013 1523.82 530.32 1522.23C530.625 1520.63 544.188 1501.73 551.733 1502.63C559.281 1503.53 563.268 1511.47 563.268 1511.47C563.268 1511.47 581.984 1500.18 587.734 1516.17C593.478 1532.16 554.438 1566.02 542.472 1570.88Z" fill="white"/>
<path d="M475.956 1557.3C475.956 1557.3 487.191 1540.8 493.092 1543.2C498.997 1545.61 502.126 1549.18 502.126 1549.18C502.126 1549.18 512.797 1544.44 514.796 1549.5C516.795 1554.55 505.071 1571.39 505.071 1571.39C505.071 1571.39 519.61 1570.79 521.375 1577.07C523.139 1583.35 519.581 1588.6 519.581 1588.6C519.581 1588.6 525.923 1595.34 519.504 1600.04C513.084 1604.75 501.879 1603.44 501.879 1603.44C501.879 1603.44 506.632 1616.24 501.422 1619.06C496.215 1621.87 490.39 1619.06 490.39 1619.06C490.39 1619.06 486.785 1628.97 481.374 1626.23C475.958 1623.5 473.031 1614.45 473.031 1614.45C473.031 1614.45 466.061 1622.02 462.613 1620.08C459.167 1618.15 459.027 1610.06 459.027 1610.06C459.027 1610.06 450.306 1613.47 448.449 1605.48C446.594 1597.48 456.757 1590.95 456.757 1590.95C456.757 1590.95 449.394 1589.53 449.439 1584.88C449.486 1580.22 455.201 1579.2 455.201 1579.2C455.201 1579.2 446.041 1567.25 451.501 1565.33C456.962 1563.41 461.871 1564.35 461.871 1564.35C461.871 1564.35 458.991 1550.65 465.175 1547.17C471.361 1543.69 475.956 1557.3 475.956 1557.3Z" fill="#F9AC4F"/>
<path d="M501.673 1571.84C503.821 1578.93 495.495 1582.73 491.163 1576.2C486.831 1569.67 499.521 1564.76 501.673 1571.84Z" fill="#331336"/>
<path d="M500.158 1591.83C502.381 1597.9 497.052 1606.91 492.481 1599.45C487.908 1591.98 497.936 1585.76 500.158 1591.83Z" fill="#331336"/>
<path d="M490.83 1585.25C493.756 1591.48 485.35 1594.97 481.41 1588.67C477.47 1582.37 487.905 1579.03 490.83 1585.25Z" fill="#331336"/>
<path d="M482.379 1569.15C485.545 1576.31 477.445 1578.39 473.985 1573.97C470.521 1569.54 479.214 1561.99 482.379 1569.15Z" fill="#331336"/>
<path d="M477.19 1587.76C479.104 1593.91 472.884 1598.17 468.552 1591.64C464.221 1585.11 475.279 1581.61 477.19 1587.76Z" fill="#331336"/>
<path d="M484.064 1601.61C487.544 1608.69 483.056 1614.49 477.938 1607.5C472.823 1600.5 480.589 1594.53 484.064 1601.61Z" fill="#331336"/>
</svg>
