<svg width="2000" height="2000" viewBox="0 0 2000 2000" fill="none" xmlns="http://www.w3.org/2000/svg">
<mask id="mask0_2035_134" style="mask-type:luminance" maskUnits="userSpaceOnUse" x="414" y="169" width="972" height="934">
<path d="M1336 532.268L1385.79 401.596L1249.16 349.544C1179.39 259.896 1076.91 195.34 955.936 175.692C701.644 134.388 462.016 307.048 420.712 561.34C379.408 815.632 552.068 1055.26 806.36 1096.56C1060.65 1137.87 1300.28 965.208 1341.58 710.916C1351.53 649.656 1349.04 589.256 1336 532.268Z" fill="white"/>
</mask>
<g mask="url(#mask0_2035_134)">
<path d="M881.148 1102.59C1138.77 1102.59 1347.62 893.746 1347.62 636.123C1347.62 378.5 1138.77 169.655 881.148 169.655C623.525 169.655 414.68 378.5 414.68 636.123C414.68 893.746 623.525 1102.59 881.148 1102.59Z" fill="#FF9F7F"/>
</g>
<mask id="mask1_2035_134" style="mask-type:luminance" maskUnits="userSpaceOnUse" x="414" y="169" width="972" height="934">
<path d="M1336 532.268L1385.79 401.596L1249.16 349.544C1179.39 259.896 1076.91 195.34 955.936 175.692C701.644 134.388 462.016 307.048 420.712 561.34C379.408 815.632 552.068 1055.26 806.36 1096.56C1060.65 1137.87 1300.28 965.208 1341.58 710.916C1351.53 649.656 1349.04 589.256 1336 532.268Z" fill="white"/>
</mask>
<g mask="url(#mask1_2035_134)">
<path d="M1385.71 408.205L905.508 225.272L661.822 864.949L1142.02 1047.88L1385.71 408.205Z" fill="#EDE5DA"/>
<path d="M933.365 337.68C953.049 345.18 953.181 344.84 972.865 352.34C992.557 359.844 992.157 360.892 1011.85 368.396C1031.54 375.896 1032.01 374.656 1051.69 382.156C1071.39 389.66 1070.72 391.436 1090.42 398.94C1110.12 406.444 1110.79 404.696 1130.49 412.2" stroke="#FF9F7F" stroke-width="1.7107" stroke-miterlimit="10" stroke-linecap="round" stroke-linejoin="round"/>
<path d="M913.354 390.208C932.634 397.552 932.938 396.752 952.218 404.096C971.498 411.44 970.858 413.12 990.142 420.464C1009.42 427.812 1008.87 429.248 1028.15 436.596C1047.43 443.94 1047.51 443.728 1066.79 451.072C1086.07 458.416 1086.19 458.084 1105.47 465.432C1124.76 472.78 1125.11 471.848 1144.4 479.196C1163.68 486.54 1163.97 485.8 1183.25 493.144C1202.54 500.496 1201.83 502.36 1221.12 509.712C1240.41 517.064 1240.81 516.036 1260.1 523.384" stroke="#FF9F7F" stroke-width="1.7107" stroke-miterlimit="10" stroke-linecap="round" stroke-linejoin="round"/>
<path d="M892.861 443.987C912.141 451.331 911.981 451.751 931.257 459.095C950.537 466.439 950.321 467.011 969.601 474.355C988.881 481.703 989.365 480.439 1008.65 487.783C1027.92 495.127 1027.7 495.707 1046.97 503.051C1066.25 510.395 1065.69 511.867 1084.97 519.211C1104.26 526.559 1104.44 526.079 1123.73 533.431C1143.01 540.775 1143.51 539.459 1162.79 546.807C1182.09 554.159 1182.45 553.207 1201.74 560.559C1221.03 567.911 1220.43 569.499 1239.72 576.851" stroke="#FF9F7F" stroke-width="1.7107" stroke-miterlimit="10" stroke-linecap="round" stroke-linejoin="round"/>
<path d="M872.412 497.651C891.692 504.995 892.008 504.163 911.288 511.511C930.568 518.855 930.744 518.395 950.024 525.743C969.304 533.091 969.344 532.991 988.624 540.335C1007.9 547.679 1007.23 549.435 1026.5 556.779C1045.78 564.123 1045.86 563.939 1065.14 571.287C1084.42 578.635 1084.36 578.795 1103.65 586.143C1122.93 593.487 1123.11 593.007 1142.39 600.355C1161.68 607.707 1162.13 606.535 1181.43 613.883C1200.72 621.231 1199.84 623.535 1219.14 630.883" stroke="#FF9F7F" stroke-width="1.7107" stroke-miterlimit="10" stroke-linecap="round" stroke-linejoin="round"/>
<path d="M852.16 550.808C871.44 558.152 871.664 557.556 890.944 564.904C910.224 572.248 910.368 571.876 929.648 579.22C948.928 586.568 948.884 586.688 968.164 594.036C987.44 601.38 987.612 600.92 1006.89 608.264C1026.17 615.608 1025.79 616.592 1045.07 623.936C1064.36 631.284 1064.83 630.048 1084.12 637.396C1103.4 644.74 1103.24 645.164 1122.52 652.512C1141.81 659.864 1141.38 660.984 1160.68 668.332C1179.97 675.684 1179.82 676.084 1199.11 683.436" stroke="#FF9F7F" stroke-width="1.7107" stroke-miterlimit="10" stroke-linecap="round" stroke-linejoin="round"/>
<path d="M831.717 604.468C850.997 611.812 851.445 610.632 870.725 617.976C890.005 625.32 890.197 624.816 909.481 632.16C928.761 639.508 928.261 640.816 947.545 648.164C966.821 655.508 966.829 655.488 986.105 662.828C1005.38 670.172 1005.16 670.756 1024.44 678.1C1043.73 685.448 1043.45 686.192 1062.73 693.54C1082.01 700.884 1082.33 700.06 1101.61 707.408C1120.9 714.76 1120.87 714.836 1140.17 722.184C1159.46 729.536 1159.72 728.856 1179.01 736.208" stroke="#FF9F7F" stroke-width="1.7107" stroke-miterlimit="10" stroke-linecap="round" stroke-linejoin="round"/>
<path d="M811.232 658.235C830.512 665.579 830.504 665.603 849.78 672.947C869.06 680.291 868.972 680.527 888.252 687.871C907.532 695.219 908.408 692.923 927.688 700.267C946.964 707.611 946.452 708.955 965.724 716.299C985.004 723.643 984.568 724.787 1003.85 732.135C1023.14 739.483 1023.77 737.823 1043.06 745.171C1062.34 752.515 1062.08 753.195 1081.36 760.539C1100.65 767.891 1101.24 766.351 1120.54 773.699C1139.83 781.051 1139.14 782.859 1158.44 790.207" stroke="#FF9F7F" stroke-width="1.7107" stroke-miterlimit="10" stroke-linecap="round" stroke-linejoin="round"/>
<path d="M791.24 710.704C810.52 718.048 810.764 717.404 830.044 724.752C849.324 732.096 849.112 732.66 868.392 740.004C887.672 747.352 887.728 747.208 907.008 754.556C926.284 761.9 926.684 760.844 945.96 768.188C965.24 775.532 964.888 776.46 984.168 783.804C1003.46 791.152 1003.08 792.148 1022.36 799.496C1041.64 806.84 1041.88 806.2 1061.16 813.548C1080.46 820.9 1080.59 820.56 1099.88 827.912C1119.17 835.264 1119.65 834.004 1138.95 841.356" stroke="#FF9F7F" stroke-width="1.7107" stroke-miterlimit="10" stroke-linecap="round" stroke-linejoin="round"/>
<path d="M771.293 763.063C790.573 770.407 790.085 771.691 809.361 779.035C828.641 786.379 829.245 784.799 848.525 792.147C867.805 799.495 867.401 800.555 886.681 807.899C905.957 815.243 906.149 814.743 925.421 822.083C944.701 829.427 943.973 831.339 963.253 838.687C982.541 846.035 983.069 844.647 1002.35 851.995C1021.63 859.339 1021.64 859.315 1040.92 866.663C1060.22 874.015 1060.33 873.723 1079.62 881.071C1098.92 888.423 1099.1 887.939 1118.4 895.291" stroke="#FF9F7F" stroke-width="1.7107" stroke-miterlimit="10" stroke-linecap="round" stroke-linejoin="round"/>
<path d="M828.177 421.859L1005.78 1050.45L661.893 858.303L828.177 421.859Z" fill="#FF9F7F"/>
</g>
<mask id="mask2_2035_134" style="mask-type:luminance" maskUnits="userSpaceOnUse" x="414" y="169" width="972" height="934">
<path d="M1336 532.268L1385.79 401.596L1249.16 349.544C1179.39 259.896 1076.91 195.34 955.936 175.692C701.644 134.388 462.016 307.048 420.712 561.34C379.408 815.632 552.068 1055.26 806.36 1096.56C1060.65 1137.87 1300.28 965.208 1341.58 710.916C1351.53 649.656 1349.04 589.256 1336 532.268Z" fill="white"/>
</mask>
<g mask="url(#mask2_2035_134)">
<path d="M790.193 440.308L185.145 645.036L457.864 1451.03L1062.91 1246.3L790.193 440.308Z" fill="white"/>
<path d="M305.992 737.183C330.8 728.791 330.652 728.363 355.46 719.967C380.276 711.571 380.72 712.891 405.536 704.495C430.344 696.103 429.812 694.535 454.62 686.143C479.444 677.743 480.2 679.979 505.024 671.579C529.848 663.179 529.1 660.975 553.924 652.575" stroke="#FF9F7F" stroke-width="2.1266" stroke-miterlimit="10" stroke-linecap="round" stroke-linejoin="round"/>
<path d="M328.389 803.372C352.681 795.152 352.341 794.14 376.633 785.92C400.929 777.7 401.645 779.812 425.941 771.592C450.237 763.372 450.853 765.184 475.149 756.964C499.437 748.744 499.349 748.48 523.637 740.26C547.933 732.04 547.789 731.62 572.085 723.4C596.389 715.176 595.989 714.004 620.293 705.78C644.589 697.56 644.273 696.624 668.569 688.404C692.881 680.176 693.677 682.528 717.989 674.304C742.301 666.08 741.861 664.784 766.173 656.556" stroke="#FF9F7F" stroke-width="2.1266" stroke-miterlimit="10" stroke-linecap="round" stroke-linejoin="round"/>
<path d="M351.316 871.144C375.608 862.924 375.788 863.452 400.08 855.232C424.376 847.012 424.62 847.728 448.912 839.508C473.208 831.288 472.668 829.696 496.964 821.476C521.252 813.256 521.5 813.992 545.788 805.772C570.084 797.552 570.708 799.404 595.004 791.184C619.308 782.96 619.104 782.36 643.404 774.136C667.7 765.916 667.136 764.256 691.432 756.036C715.744 747.808 715.34 746.612 739.652 738.384C763.964 730.156 764.64 732.16 788.952 723.936" stroke="#FF9F7F" stroke-width="2.1266" stroke-miterlimit="10" stroke-linecap="round" stroke-linejoin="round"/>
<path d="M374.195 938.763C398.487 930.543 398.135 929.495 422.427 921.275C446.723 913.055 446.527 912.475 470.823 904.251C495.119 896.031 495.075 895.907 519.371 887.683C543.659 879.463 544.407 881.679 568.695 873.459C592.991 865.239 592.911 865.007 617.207 856.787C641.511 848.563 641.579 848.763 665.879 840.539C690.175 832.319 689.971 831.711 714.263 823.491C738.575 815.263 738.075 813.787 762.387 805.559C786.699 797.331 787.679 800.231 811.991 792.003" stroke="#FF9F7F" stroke-width="2.1266" stroke-miterlimit="10" stroke-linecap="round" stroke-linejoin="round"/>
<path d="M396.859 1005.74C421.151 997.523 420.899 996.771 445.191 988.551C469.487 980.331 469.327 979.859 493.623 971.635C517.919 963.415 517.971 963.567 542.267 955.347C566.555 947.127 566.359 946.551 590.647 938.331C614.943 930.111 615.359 931.347 639.655 923.127C663.959 914.903 663.431 913.347 687.735 905.123C712.031 896.903 712.211 897.435 736.507 889.215C760.819 880.987 761.295 882.399 785.607 874.175C809.919 865.951 810.091 866.455 834.403 858.231" stroke="#FF9F7F" stroke-width="2.1266" stroke-miterlimit="10" stroke-linecap="round" stroke-linejoin="round"/>
<path d="M419.74 1073.36C444.032 1065.14 443.528 1063.66 467.824 1055.44C492.12 1047.22 491.904 1046.58 516.2 1038.36C540.496 1030.14 541.056 1031.79 565.352 1023.56C589.64 1015.34 589.632 1015.32 613.92 1007.1C638.216 998.879 638.464 999.611 662.756 991.391C687.06 983.167 687.376 984.107 711.68 975.883C735.976 967.663 735.624 966.623 759.92 958.403C784.232 950.175 784.264 950.271 808.576 942.047C832.888 933.819 832.6 932.967 856.912 924.739" stroke="#FF9F7F" stroke-width="2.1266" stroke-miterlimit="10" stroke-linecap="round" stroke-linejoin="round"/>
<path d="M442.664 1141.11C466.956 1132.89 466.968 1132.92 491.26 1124.7C515.556 1116.48 515.656 1116.77 539.952 1108.55C564.248 1100.33 563.268 1097.44 587.564 1089.22C611.852 1081 612.424 1082.7 636.716 1074.48C661.012 1066.26 661.496 1067.7 685.792 1059.48C710.096 1051.26 709.388 1049.16 733.688 1040.94C757.984 1032.72 758.272 1033.57 782.568 1025.35C806.88 1017.12 806.224 1015.18 830.536 1006.96C854.848 998.735 855.62 1001.01 879.932 992.783" stroke="#FF9F7F" stroke-width="2.1266" stroke-miterlimit="10" stroke-linecap="round" stroke-linejoin="round"/>
<path d="M465.037 1207.23C489.329 1199.01 489.057 1198.2 513.349 1189.98C537.645 1181.76 537.885 1182.46 562.181 1174.24C586.477 1166.02 586.417 1165.84 610.713 1157.62C635.001 1149.4 634.553 1148.07 658.841 1139.86C683.137 1131.64 683.529 1132.8 707.825 1124.58C732.129 1116.36 732.553 1117.62 756.857 1109.39C781.153 1101.17 780.881 1100.36 805.173 1092.14C829.485 1083.92 829.341 1083.49 853.653 1075.27C877.965 1067.04 877.429 1065.46 901.741 1057.23" stroke="#FF9F7F" stroke-width="2.1266" stroke-miterlimit="10" stroke-linecap="round" stroke-linejoin="round"/>
</g>
<mask id="mask3_2035_134" style="mask-type:luminance" maskUnits="userSpaceOnUse" x="414" y="169" width="972" height="934">
<path d="M1336 532.268L1385.79 401.596L1249.16 349.544C1179.39 259.896 1076.91 195.34 955.936 175.692C701.644 134.388 462.016 307.048 420.712 561.34C379.408 815.632 552.068 1055.26 806.36 1096.56C1060.65 1137.87 1300.28 965.208 1341.58 710.916C1351.53 649.656 1349.04 589.256 1336 532.268Z" fill="white"/>
</mask>
<g mask="url(#mask3_2035_134)">
<path d="M726.684 620.728L781.68 443.224L758.548 450.412L726.684 620.728Z" fill="#F2EDE6"/>
</g>
<mask id="mask4_2035_134" style="mask-type:luminance" maskUnits="userSpaceOnUse" x="414" y="169" width="972" height="934">
<path d="M1336 532.268L1385.79 401.596L1249.16 349.544C1179.39 259.896 1076.91 195.34 955.936 175.692C701.644 134.388 462.016 307.048 420.712 561.34C379.408 815.632 552.068 1055.26 806.36 1096.56C1060.65 1137.87 1300.28 965.208 1341.58 710.916C1351.53 649.656 1349.04 589.256 1336 532.268Z" fill="white"/>
</mask>
<g mask="url(#mask4_2035_134)">
<path d="M669.58 725.44L740.992 734.38C746.264 735.04 751.6 735.052 756.876 734.42L793.972 729.96C807.884 728.288 821.908 732.016 833.152 740.38L873.436 770.34C880.848 775.852 889.872 778.756 899.108 778.604L904.664 778.512L859.748 645.768L669.58 725.44Z" fill="#0B4C52"/>
</g>
<mask id="mask5_2035_134" style="mask-type:luminance" maskUnits="userSpaceOnUse" x="414" y="169" width="972" height="934">
<path d="M1336 532.268L1385.79 401.596L1249.16 349.544C1179.39 259.896 1076.91 195.34 955.936 175.692C701.644 134.388 462.016 307.048 420.712 561.34C379.408 815.632 552.068 1055.26 806.36 1096.56C1060.65 1137.87 1300.28 965.208 1341.58 710.916C1351.53 649.656 1349.04 589.256 1336 532.268Z" fill="white"/>
</mask>
<g mask="url(#mask5_2035_134)">
<path d="M800.572 639.332C814.54 651.924 830.588 683.972 830.588 683.972L937.488 704.932L1010.05 666.608L1017.17 579.964L973.896 536.028L894.244 516.804L824.752 576.412L800.572 639.332Z" fill="#F36551"/>
<path d="M969.982 678.168C969.51 678.076 969.066 677.836 968.722 677.452C968.57 677.284 953.27 660.5 930.962 656.668C927.602 655.964 924.782 653.76 923.53 650.58C914.838 628.48 888.366 621.888 888.102 621.824C886.87 621.528 886.114 620.292 886.41 619.064C886.702 617.832 887.898 616.956 889.17 617.368C890.35 617.648 918.218 624.548 927.798 648.904C928.466 650.6 929.954 651.928 931.742 652.152C955.622 656.224 971.474 673.656 972.138 674.396C972.978 675.34 972.902 676.784 971.962 677.628C971.402 678.124 970.67 678.304 969.982 678.168Z" fill="#0B4C52"/>
<path d="M908.889 679.327C908.169 679.187 907.529 678.703 907.221 677.975C901.645 664.855 889.057 647.211 870.445 637.039C867.677 635.527 865.809 632.879 865.333 629.775C864.845 626.635 865.837 623.507 868.053 621.191C873.181 615.819 878.881 608.215 885.821 589.091C886.785 586.431 888.761 584.363 891.377 583.279C894.013 582.183 897.013 582.255 899.605 583.467C934.145 599.591 977.101 596.283 977.537 596.247C978.785 596.135 979.905 597.079 980.009 598.343C980.113 599.603 979.177 600.711 977.913 600.815C976.105 600.967 933.321 604.271 897.665 587.623C896.229 586.947 894.573 586.915 893.129 587.515C891.713 588.103 890.645 589.219 890.129 590.655C882.901 610.575 876.841 618.627 871.365 624.359C870.141 625.639 869.597 627.359 869.861 629.075C870.125 630.759 871.137 632.195 872.645 633.023C897.369 646.535 908.593 669.479 911.445 676.191C911.937 677.355 911.397 678.703 910.229 679.195C909.789 679.371 909.325 679.411 908.889 679.327Z" fill="#0B4C52"/>
<path d="M1478.76 557.952C1478.76 557.952 1456.9 571.18 1432.38 548.856C1407.85 526.532 1393.15 516.64 1372.1 521.272C1351.04 525.904 1338.81 534.696 1320.42 534.688C1302.03 534.684 1275.17 519.784 1252.07 517.004C1228.97 514.224 1216.82 509.216 1203.8 544.324C1190.78 579.432 1177.28 661.736 1161.58 701.576C1145.88 741.416 1125.58 764.584 1169.12 779.252C1212.66 793.92 1258.37 791.496 1280.66 808.132C1302.96 824.764 1303.3 859.344 1339.35 866.936C1377.2 874.904 1391.03 849.044 1430.7 865.58C1470.38 882.116 1478.48 894.376 1478.48 894.376L1478.76 557.952Z" fill="#7EC1B2"/>
<path d="M1219.36 561.611C1215.29 643.727 1188.53 701.083 1175.74 724.143C1171.9 731.059 1164.62 735.275 1156.71 735.139C1133.24 734.735 1082.78 734.639 1066.33 740.703C1044.62 748.707 1010.4 749.003 987.961 742.851C965.521 736.699 904.001 737.776 894.741 740.34C885.481 742.904 865.733 736.403 846.981 724.843C832.629 715.999 811.861 705.895 799.573 700.591C794.517 698.411 792.141 692.475 794.473 687.487C807.533 659.531 842.777 656.511 878.669 679.383C911.957 657.007 963.917 668.947 963.917 668.947C963.917 668.947 998.429 613.531 998.693 594.315C998.841 583.663 991.749 572.871 985.401 565.367C980.289 559.327 972.881 555.783 964.985 555.291C952.437 554.511 930.357 551.267 907.029 539.099C901.313 536.119 894.273 537.963 890.597 543.259C881.453 556.435 862.837 578.799 837.865 585.987C837.865 585.987 835.733 623.667 818.873 644.883C802.013 666.099 776.529 657.599 771.957 651.887C767.385 646.175 780.721 629.519 780.721 629.519C780.721 629.519 780.341 618.059 788.617 600.415C796.893 582.771 790.941 568.467 800.417 555.871C809.893 543.275 843.549 517.215 853.945 502.175C864.337 487.135 885.781 466.195 904.521 474.467C904.521 474.467 939.365 447.555 953.953 439.495C970.025 430.615 978.049 428.891 991.201 431.035C1004.35 433.179 1044.86 455.523 1062.98 456.887C1081.11 458.251 1116.06 484.111 1135.2 500.655C1154.07 516.967 1172.05 523.311 1207.66 541.447C1215.17 545.275 1219.78 553.195 1219.36 561.611Z" fill="#FEAD90"/>
<path d="M720.877 718.08L669.581 725.444C667.161 725.792 665.873 722.68 667.833 721.216L709.361 690.22C712.721 687.712 716.377 685.636 720.249 684.036L793.849 653.62L806.553 684.36L732.953 714.776C729.081 716.372 725.025 717.484 720.877 718.08Z" fill="#EDE5DA"/>
<path d="M1061.72 542.924L734.277 678.24C730.549 679.78 730.369 687.912 733.877 696.4C737.385 704.888 743.253 710.52 746.981 708.98L1074.43 573.664L1061.72 542.924Z" fill="#EDE5DA"/>
<path d="M1121.44 525.252C1120.07 521.944 1116.28 520.372 1112.98 521.74L1033.92 554.412C1030.19 555.952 1030.01 564.084 1033.52 572.572C1037.03 581.06 1042.89 586.692 1046.62 585.152L1125.68 552.48C1128.99 551.112 1130.56 547.324 1129.19 544.02L1121.44 525.252Z" fill="#EDE5DA"/>
<path d="M796.825 670.384C793.317 661.896 793.497 653.764 797.225 652.224L734.277 678.236C730.549 679.776 730.369 687.908 733.877 696.396C737.385 704.884 743.253 710.516 746.981 708.976L809.929 682.964C806.197 684.504 800.333 678.872 796.825 670.384Z" fill="#FF9F7F"/>
<path d="M1064.69 621.851C1073.64 616.451 1082.43 607.999 1086.53 596.459C1088.03 591.899 1088.69 587.248 1088.7 582.668C1088.72 576.164 1092.96 570.411 1098.97 567.927L1101.6 566.843C1104 565.851 1104.55 562.679 1102.58 560.987C1099.35 558.215 1096.07 553.495 1093.68 547.707C1091.29 541.919 1090.27 536.263 1090.61 532.019C1090.81 529.431 1088.18 527.575 1085.78 528.567L1032.48 550.591C1027.84 552.511 1027.61 562.635 1031.98 573.203C1036.35 583.775 1043.65 590.787 1048.3 588.867L1062.36 583.056C1065.81 581.628 1069.73 584.407 1069.21 588.111C1069.09 588.991 1068.91 589.859 1068.69 590.711C1066.8 596.967 1061.99 602.716 1055.31 607.228C1048.65 611.76 1040.56 615.059 1032.2 617.671C1023.82 620.391 1015 621.995 1006.03 623.575C987.438 626.615 968.898 630.247 950.646 635.623C941.53 638.331 932.478 641.451 923.666 645.495C914.91 649.547 906.17 654.543 899.106 662.431C897.494 664.239 897.554 667.023 899.298 668.743C901.098 670.519 903.998 670.503 905.774 668.703L905.978 668.499C911.686 662.719 919.598 658.447 927.866 655.155C936.162 651.827 944.894 649.275 953.742 647.111C971.47 642.815 989.714 640.147 1007.99 638.075C1017.42 636.891 1027.05 635.631 1036.55 633.067C1046.05 630.587 1055.62 627.351 1064.69 621.851Z" fill="#FF9F7F"/>
<path d="M876.097 677.86C882.197 702.528 889.157 725.156 899.033 739.62C897.145 739.84 895.665 740.084 894.737 740.34C885.477 742.904 865.729 736.404 846.977 724.844C832.641 716.008 811.897 705.916 799.605 700.608C794.533 698.42 792.141 692.456 794.485 687.452C807.245 660.196 841.121 656.752 876.097 677.86ZM771.949 651.892C776.521 657.604 802.005 666.104 818.865 644.888C835.725 623.672 837.857 585.992 837.857 585.992C838.125 585.916 838.377 585.812 838.645 585.732C820.397 581.604 805.729 569.488 797.373 561.048C792.293 572.372 795.777 585.144 788.609 600.42C780.333 618.064 780.713 629.524 780.713 629.524C780.713 629.524 767.377 646.18 771.949 651.892Z" fill="#FEAD90"/>
<path d="M1013.98 503.563C1013.7 503.507 1013.42 503.399 1013.17 503.231C1013.07 503.167 1003.24 496.803 990.825 493.951C985.761 492.791 973.281 490.515 960.077 488.103C939.053 484.271 915.205 479.919 908.825 477.859C907.621 477.467 906.961 476.179 907.353 474.971C907.745 473.767 909.069 473.135 910.237 473.495C916.333 475.471 941.041 479.979 960.901 483.595C974.749 486.119 986.693 488.307 991.853 489.487C1005.09 492.527 1015.25 499.119 1015.67 499.399C1016.73 500.091 1017.03 501.511 1016.33 502.567C1015.81 503.371 1014.87 503.739 1013.98 503.563Z" fill="#F36551"/>
<path d="M935.453 462.516C934.337 462.296 933.529 461.272 933.613 460.108C933.701 458.844 934.797 457.892 936.061 457.984C939.209 458.208 1013.45 463.54 1034.93 473.032C1036.09 473.544 1036.62 474.9 1036.1 476.056C1035.6 477.212 1034.25 477.744 1033.08 477.228C1012.33 468.044 936.505 462.612 935.741 462.56C935.645 462.548 935.545 462.532 935.453 462.516Z" fill="#F36551"/>
<path d="M963.42 448.731C962.364 448.523 961.572 447.595 961.572 446.479C961.572 445.215 962.6 444.187 963.868 444.191C965.524 444.191 1004.66 444.267 1024.92 447.099C1026.22 447.243 1027.05 448.435 1026.88 449.683C1026.7 450.939 1025.54 451.811 1024.29 451.635C1004.34 448.851 964.268 448.775 963.864 448.771C963.712 448.775 963.564 448.759 963.42 448.731Z" fill="#F36551"/>
<path d="M799.605 700.607C805.181 703.015 812.517 706.427 820.181 710.239C818.797 706.091 819.513 699.071 822.065 693.495C823.445 690.475 821.893 686.935 818.713 685.991C809.585 683.279 798.141 682.539 795.117 686.287C794.917 686.687 794.673 687.039 794.481 687.451L793.793 689.575C792.877 694.039 795.237 698.723 799.605 700.607Z" fill="#F2EDE6"/>
<path d="M780.713 629.523C780.985 631.587 783.529 633.543 785.849 634.915C787.825 636.083 788.277 638.739 786.769 640.471C783.521 644.207 778.169 649.763 773.641 651.655C771.481 652.555 769.305 650.287 770.105 648.091C771.673 643.791 774.917 636.467 780.713 629.523Z" fill="#F2EDE6"/>
<path d="M1306.15 546.659C1326.67 589.435 1302.89 730.783 1245.76 777.619" stroke="#0B4C52" stroke-width="1.1459" stroke-miterlimit="10" stroke-linecap="round" stroke-linejoin="round"/>
<path d="M1243.46 541.359C1260 545.279 1276.53 549.199 1293.07 553.119" stroke="#0B4C52" stroke-width="1.1459" stroke-miterlimit="10" stroke-linecap="round" stroke-linejoin="round"/>
<path d="M1238.29 560.716C1256.3 568.072 1275.68 572.052 1295.14 572.388" stroke="#0B4C52" stroke-width="1.1459" stroke-miterlimit="10" stroke-linecap="round" stroke-linejoin="round"/>
<path d="M1236.07 585.76C1256.07 590.948 1276.08 596.136 1296.09 601.324" stroke="#0B4C52" stroke-width="1.1459" stroke-miterlimit="10" stroke-linecap="round" stroke-linejoin="round"/>
<path d="M1230.95 615.111C1251.47 620.967 1272.07 626.547 1292.75 631.839" stroke="#0B4C52" stroke-width="1.1459" stroke-miterlimit="10" stroke-linecap="round" stroke-linejoin="round"/>
<path d="M1225.37 643.791C1244.57 650.919 1264.45 656.243 1284.65 659.659" stroke="#0B4C52" stroke-width="1.1459" stroke-miterlimit="10" stroke-linecap="round" stroke-linejoin="round"/>
<path d="M1217.03 673.271C1235.35 680.407 1254.14 686.332 1273.24 690.992" stroke="#0B4C52" stroke-width="1.1459" stroke-miterlimit="10" stroke-linecap="round" stroke-linejoin="round"/>
<path d="M1208.83 697.979C1228.66 701.875 1248.34 706.567 1267.8 712.047" stroke="#0B4C52" stroke-width="1.1459" stroke-miterlimit="10" stroke-linecap="round" stroke-linejoin="round"/>
<path d="M1196.51 723.52C1199.68 724.412 1202.9 725.139 1206.12 725.867C1222.01 729.459 1237.91 733.056 1253.8 736.648" stroke="#0B4C52" stroke-width="1.1459" stroke-miterlimit="10" stroke-linecap="round" stroke-linejoin="round"/>
<path d="M1179.7 745.483C1195.6 753.927 1213.76 756.871 1231.54 759.691" stroke="#0B4C52" stroke-width="1.1459" stroke-miterlimit="10" stroke-linecap="round" stroke-linejoin="round"/>
<path d="M1168.11 761.304C1173.81 767.592 1181.56 771.732 1189.63 774.344C1197.71 776.956 1206.16 778.14 1214.57 779.316" stroke="#0B4C52" stroke-width="1.1459" stroke-miterlimit="10" stroke-linecap="round" stroke-linejoin="round"/>
</g>
<mask id="mask6_2035_134" style="mask-type:luminance" maskUnits="userSpaceOnUse" x="414" y="169" width="972" height="934">
<path d="M1336 532.268L1385.79 401.596L1249.16 349.544C1179.39 259.896 1076.91 195.34 955.936 175.692C701.644 134.388 462.016 307.048 420.712 561.34C379.408 815.632 552.068 1055.26 806.36 1096.56C1060.65 1137.87 1300.28 965.208 1341.58 710.916C1351.53 649.656 1349.04 589.256 1336 532.268Z" fill="white"/>
</mask>
<g mask="url(#mask6_2035_134)">
<path d="M726.684 620.728L641.92 599.224L543.08 543.364C530.688 536.36 524.516 521.928 528.016 508.128L564.384 364.76L777.876 418.92L726.684 620.728Z" fill="#97B8AA"/>
<path d="M588.092 409.384C611.68 415.368 611.94 414.336 635.528 420.32C659.116 426.304 659.016 426.688 682.604 432.672" stroke="white" stroke-width="1.1459" stroke-miterlimit="10"/>
<path d="M581.648 434.779C606.252 441.019 606.736 439.107 631.34 445.347C655.96 451.591 656.056 451.211 680.676 457.455C705.296 463.699 705.22 463.995 729.84 470.239" stroke="white" stroke-width="1.1459" stroke-miterlimit="10"/>
<path d="M575.477 459.12C600.081 465.36 600.873 462.236 625.473 468.476C650.093 474.72 650.245 474.124 674.861 480.372C699.481 486.616 699.489 486.588 724.105 492.836" stroke="white" stroke-width="1.1459" stroke-miterlimit="10"/>
<path d="M569.76 481.644C594.364 487.884 594.424 487.636 619.028 493.876C643.648 500.12 643.004 502.652 667.624 508.9C692.244 515.144 692.38 514.612 716.996 520.86" stroke="white" stroke-width="1.1459" stroke-miterlimit="10"/>
<path d="M563.416 506.656C588.02 512.896 587.976 513.06 612.58 519.3C637.2 525.544 637.2 525.536 661.82 531.78C686.44 538.024 686.136 539.224 710.752 545.472" stroke="white" stroke-width="1.1459" stroke-miterlimit="10"/>
<path d="M573.233 519.6C541.757 544.648 526.297 524.46 527.621 510.52C525.361 523.568 531.405 536.764 543.081 543.364L641.921 599.224C633.269 594.008 613.209 559.492 602.169 551.816C591.129 544.14 592.337 536.908 573.233 519.6Z" fill="#0B4C52"/>
</g>
<mask id="mask7_2035_134" style="mask-type:luminance" maskUnits="userSpaceOnUse" x="414" y="169" width="972" height="934">
<path d="M1336 532.268L1385.79 401.596L1249.16 349.544C1179.39 259.896 1076.91 195.34 955.936 175.692C701.644 134.388 462.016 307.048 420.712 561.34C379.408 815.632 552.068 1055.26 806.36 1096.56C1060.65 1137.87 1300.28 965.208 1341.58 710.916C1351.53 649.656 1349.04 589.256 1336 532.268Z" fill="white"/>
</mask>
<g mask="url(#mask7_2035_134)">
<path d="M825.301 400.979C824.601 400.867 823.909 400.715 823.221 400.531C817.977 399.115 813.601 395.743 810.901 391.035C808.193 386.327 807.485 380.847 808.901 375.603C809.185 374.547 809.553 373.527 809.993 372.547L798.145 379.355C797.045 379.983 795.645 379.607 795.017 378.511C794.385 377.411 794.765 376.011 795.861 375.379L865.401 335.423C870.193 332.671 875.789 331.943 881.109 333.391C886.449 334.831 890.901 338.267 893.657 343.059C899.341 352.955 895.917 365.631 886.025 371.315L838.657 398.535C834.561 400.883 829.893 401.727 825.301 400.979ZM870.889 341.043C868.569 340.667 866.213 341.095 864.149 342.279L820.677 367.259C817.029 369.355 814.417 372.743 813.321 376.803C812.221 380.859 812.773 385.107 814.869 388.751C816.965 392.399 820.357 395.011 824.413 396.107C828.477 397.195 832.717 396.655 836.365 394.559L883.733 367.339C887.465 365.195 890.137 361.727 891.261 357.575C892.385 353.419 891.821 349.075 889.677 345.347C887.529 341.615 884.065 338.943 879.905 337.819C878.129 337.343 876.305 337.167 874.525 337.295C877.733 338.503 880.405 340.771 882.133 343.783C884.109 347.223 884.629 351.223 883.593 355.055C882.557 358.883 880.093 362.079 876.657 364.059L836.629 387.059C835.529 387.679 834.125 387.311 833.501 386.215C832.869 385.115 833.249 383.715 834.345 383.083L874.373 360.083C876.749 358.719 878.453 356.507 879.169 353.863C879.885 351.215 879.521 348.447 878.157 346.071C876.789 343.691 874.581 341.987 871.933 341.275C871.593 341.175 871.245 341.099 870.889 341.043Z" fill="#7EC1B2"/>
</g>
<mask id="mask8_2035_134" style="mask-type:luminance" maskUnits="userSpaceOnUse" x="414" y="169" width="972" height="934">
<path d="M1336 532.268L1385.79 401.596L1249.16 349.544C1179.39 259.896 1076.91 195.34 955.936 175.692C701.644 134.388 462.016 307.048 420.712 561.34C379.408 815.632 552.068 1055.26 806.36 1096.56C1060.65 1137.87 1300.28 965.208 1341.58 710.916C1351.53 649.656 1349.04 589.256 1336 532.268Z" fill="white"/>
</mask>
<g mask="url(#mask8_2035_134)">
<path d="M855.427 180.155C855.251 179.471 855.107 178.775 854.999 178.071C854.179 172.703 855.499 167.335 858.715 162.967C861.931 158.587 866.659 155.731 872.027 154.911C873.107 154.747 874.187 154.667 875.263 154.675L864.251 146.579C863.235 145.827 863.011 144.395 863.763 143.375C864.511 142.351 865.947 142.135 866.967 142.883L931.583 190.395C936.031 193.671 938.955 198.495 939.779 203.947C940.615 209.415 939.271 214.875 935.995 219.327C929.235 228.519 916.255 230.503 907.063 223.743L863.047 191.383C859.251 188.587 856.595 184.659 855.427 180.155ZM928.659 197.691C928.067 195.415 926.727 193.435 924.807 192.023L884.415 162.323C881.027 159.831 876.871 158.807 872.715 159.443C868.559 160.075 864.899 162.295 862.407 165.679C859.915 169.067 858.895 173.223 859.527 177.379C860.171 181.535 862.375 185.199 865.767 187.691L909.783 220.051C913.247 222.599 917.499 223.647 921.755 222.999C926.011 222.351 929.755 220.083 932.307 216.619C934.855 213.151 935.903 208.899 935.255 204.643C934.971 202.823 934.399 201.087 933.563 199.511C933.751 202.935 932.755 206.291 930.695 209.091C928.347 212.287 924.891 214.379 920.971 214.975C917.051 215.575 913.131 214.607 909.935 212.259L872.743 184.911C871.731 184.155 871.503 182.723 872.255 181.707C873.003 180.683 874.439 180.467 875.459 181.215L912.651 208.563C914.859 210.187 917.567 210.855 920.279 210.443C922.991 210.031 925.379 208.583 927.003 206.375C928.627 204.163 929.295 201.455 928.883 198.747C928.823 198.391 928.751 198.039 928.659 197.691Z" fill="#7EC1B2"/>
</g>
<mask id="mask9_2035_134" style="mask-type:luminance" maskUnits="userSpaceOnUse" x="414" y="169" width="972" height="934">
<path d="M1336 532.268L1385.79 401.596L1249.16 349.544C1179.39 259.896 1076.91 195.34 955.936 175.692C701.644 134.388 462.016 307.048 420.712 561.34C379.408 815.632 552.068 1055.26 806.36 1096.56C1060.65 1137.87 1300.28 965.208 1341.58 710.916C1351.53 649.656 1349.04 589.256 1336 532.268Z" fill="white"/>
</mask>
<g mask="url(#mask9_2035_134)">
<path d="M776.559 323.156L751.463 333.476L765.531 367.696L790.627 357.376C794.495 355.784 798.059 353.54 801.163 350.74L833.859 321.252C834.991 320.232 834.219 318.352 832.695 318.424L788.711 320.464C784.539 320.652 780.427 321.564 776.559 323.156Z" fill="#F2EDE6"/>
<path d="M779.251 355.252C778.247 352.808 779.511 349.828 782.167 347.452C778.607 347.632 775.611 346.404 774.607 343.96C773.603 341.516 774.867 338.536 777.523 336.16C773.963 336.34 770.967 335.112 769.963 332.668C768.907 330.096 770.347 326.932 773.295 324.5L421.123 469.304L435.191 503.524L787.363 358.72C783.559 359.06 780.307 357.824 779.251 355.252Z" fill="#7EC1B2"/>
<path d="M766.346 340.436L437.402 475.688" stroke="#0B4C52" stroke-width="0.6736" stroke-miterlimit="10" stroke-linecap="round" stroke-linejoin="round"/>
<path d="M771.21 352.271L442.27 487.523" stroke="#0B4C52" stroke-width="0.6736" stroke-miterlimit="10" stroke-linecap="round" stroke-linejoin="round"/>
<path d="M434.224 463.925L421.143 469.304L435.212 503.521L448.294 498.142L434.224 463.925Z" fill="#0B4C52"/>
<path d="M406.311 515.392L435.191 503.516L421.123 469.296L392.243 481.172C386.527 483.524 383.799 490.06 386.147 495.776L391.707 509.296C394.055 515.016 400.595 517.744 406.311 515.392Z" fill="#FEAD90"/>
<path d="M832.7 318.42L814.184 319.28L820.1 333.664L833.864 321.248C834.996 320.228 834.224 318.348 832.7 318.42Z" fill="#0B4C52"/>
</g>
<mask id="mask10_2035_134" style="mask-type:luminance" maskUnits="userSpaceOnUse" x="414" y="169" width="972" height="934">
<path d="M1336 532.268L1385.79 401.596L1249.16 349.544C1179.39 259.896 1076.91 195.34 955.936 175.692C701.644 134.388 462.016 307.048 420.712 561.34C379.408 815.632 552.068 1055.26 806.36 1096.56C1060.65 1137.87 1300.28 965.208 1341.58 710.916C1351.53 649.656 1349.04 589.256 1336 532.268Z" fill="white"/>
</mask>
<g mask="url(#mask10_2035_134)">
<path d="M787.233 295.04L702.861 309.9C693.905 311.476 685.365 305.496 683.789 296.54L679.217 270.576C677.641 261.62 683.621 253.08 692.577 251.504L776.949 236.644C785.905 235.068 794.445 241.048 796.021 250.004L800.593 275.968C802.173 284.924 796.193 293.464 787.233 295.04Z" fill="#EDE5DA"/>
<path d="M776.949 236.644L752.113 241.016L762.397 299.412L787.233 295.04C796.189 293.464 802.173 284.924 800.593 275.968L796.021 250.004C794.445 241.048 785.905 235.068 776.949 236.644Z" fill="#0B4C52"/>
<path d="M793.148 280.796L705.264 296.276C700.82 297.06 696.58 294.092 695.8 289.644L690.604 260.148C689.82 255.704 692.788 251.464 697.236 250.684L785.12 235.204C789.564 234.42 793.804 237.388 794.584 241.836L799.78 271.332C800.56 275.776 797.592 280.012 793.148 280.796Z" fill="white"/>
<path d="M785.273 235.18L752.117 241.02L760.145 286.612L793.149 280.8C797.593 280.016 800.561 275.78 799.781 271.336L794.561 241.688C793.789 237.324 789.633 234.412 785.273 235.18Z" fill="#7EC1B2"/>
</g>
<path d="M1069.59 838.664C1045.37 842.124 1013.47 830.072 1002.48 804.092C991.066 777.096 1005.25 750.116 1028.08 747C1050.91 743.888 1061.98 761.528 1081 759.8C1100.03 758.072 1146.03 712.412 1166.09 755.648C1200.34 756.684 1199.28 785.276 1194.46 828.98L1167.82 839.296L1069.59 838.664Z" fill="#F36551"/>
<path d="M1258.71 1814.76L1216.19 1462.64H1192.05L1234.87 1817.26C1235.61 1823.42 1231.95 1829.26 1226.08 1831.27L1211.83 1836.16H1286.53L1271.99 1831.17C1264.78 1828.7 1259.62 1822.32 1258.71 1814.76Z" fill="#709687"/>
<path d="M1003.43 1815.84L1094 1462.65H1118.14L1027.12 1817.96C1025.69 1823.53 1028.79 1829.26 1034.23 1831.12L1048.9 1836.15H974.201L989.505 1830.91C996.389 1828.55 1001.63 1822.88 1003.43 1815.84Z" fill="#709687"/>
<path d="M1494.32 1069.7L1435.81 1403.8L1454.82 1407.13L1513.33 1073.03L1494.32 1069.7Z" fill="#709687"/>
<path d="M1489.46 1207.61C1420.04 1218.45 1351.17 1219.23 1285.09 1209.95C1260.54 1206.5 1243.67 1183.49 1247.94 1159.08L1264.22 1066.04C1268.27 1042.89 1289.92 1026.88 1313.17 1030.26C1371.65 1038.79 1432.36 1039.4 1493.73 1032.12C1522.65 1028.68 1546.59 1054.4 1541.57 1083.09C1536.4 1112.69 1531.22 1142.29 1526.04 1171.89C1522.8 1190.42 1508.05 1204.7 1489.46 1207.61Z" fill="#EDE5DA"/>
<path d="M1537.64 1056.02C1523.87 1028.53 1482.1 1032.6 1474.22 1062.32C1473.89 1063.53 1473.62 1064.77 1473.4 1066.03L1457.13 1159.07C1455.63 1167.6 1456.73 1175.96 1459.83 1183.37C1469.56 1206.62 1501.77 1211.11 1517.37 1191.31C1517.45 1191.21 1517.52 1191.11 1517.6 1191.02C1529.6 1175.49 1529.75 1150.68 1533.08 1131.65C1536.97 1109.38 1548.34 1077.92 1537.84 1056.42C1537.78 1056.28 1537.71 1056.15 1537.64 1056.02Z" fill="#709687"/>
<path d="M1441.13 1474.65C1355.37 1478.79 1269.45 1478.79 1183.69 1474.65C1162.16 1473.62 1145.63 1455.15 1146.99 1433.64C1147 1433.38 1147.02 1433.12 1147.03 1432.86C1148.36 1411.82 1166.31 1395.75 1187.37 1396.77C1270.68 1400.79 1354.13 1400.79 1437.44 1396.77C1458.5 1395.75 1476.45 1411.82 1477.78 1432.86C1477.79 1433.12 1477.81 1433.38 1477.83 1433.64C1479.18 1455.15 1462.66 1473.62 1441.13 1474.65Z" fill="#709687"/>
<path d="M1267.04 1763.97H1199.48V1638.07H1238.66C1254.34 1638.07 1267.04 1650.78 1267.04 1666.46V1763.97Z" fill="#0B4C52"/>
<path d="M1176.6 1229.31L1028.06 1232.35C987.025 1233.19 949.853 1256.74 931.573 1293.49C911.825 1333.18 917.768 1380.85 946.66 1414.48L1163.11 1666.42C1172.95 1677.87 1177.8 1692.79 1176.58 1707.84L1171.42 1771.44C1170.74 1779.75 1167.52 1787.65 1162.14 1794.02C1153.53 1804.19 1141.38 1821.38 1142.61 1836.15H1195.91C1215.36 1836.15 1233.18 1825.27 1242.07 1807.97L1245.88 1800.55C1249.58 1793.34 1251.52 1785.34 1251.52 1777.22V1697.66L1254.04 1678.06C1255.91 1663.48 1248.16 1649.36 1234.85 1643.12L1222.82 1637.48C1218.99 1635.69 1215.89 1632.62 1214.06 1628.8L1115.54 1423.19L1288.66 1236.23L1176.6 1229.31Z" fill="#FEAD90"/>
<path d="M1179.32 1731.7C1196.42 1726.46 1227.78 1721.39 1257.4 1740.47V1799.68C1257.4 1819.82 1241.06 1836.16 1220.92 1836.16H1152.6C1139.78 1836.16 1131.88 1822.02 1138.74 1811.19C1143.18 1804.18 1149 1796.1 1156.54 1787.45C1161.82 1781.4 1164.84 1773.7 1165.16 1765.68L1165.81 1749.44C1166.14 1741.28 1171.51 1734.09 1179.32 1731.7Z" fill="#0B4C52"/>
<path d="M1157.73 1511.25L1110.91 1539.03V1605.66L1150.01 1651.17C1156.36 1633.14 1172.73 1628.26 1189.64 1626.42C1200.43 1625.25 1206.94 1613.94 1202.25 1604.16L1157.73 1511.25Z" fill="#0B4C52"/>
<path d="M1288.65 1236.23L1176.6 1229.31L1028.06 1232.35C987.025 1233.19 949.853 1256.74 931.573 1293.49C911.825 1333.18 917.768 1380.85 946.66 1414.48L1060.97 1547.53L1135.01 1463.83L1115.54 1423.2L1288.65 1236.23Z" fill="#B08F56"/>
<path d="M1488.5 1814.76L1445.99 1462.64H1421.84L1464.66 1817.26C1465.41 1823.42 1461.74 1829.26 1455.88 1831.27L1441.63 1836.16H1516.33L1501.78 1831.17C1494.58 1828.7 1489.42 1822.32 1488.5 1814.76Z" fill="#709687"/>
<path d="M1233.23 1815.84L1323.79 1462.65H1347.94L1256.92 1817.96C1255.49 1823.53 1258.58 1829.26 1264.02 1831.12L1278.7 1836.15H1204L1219.3 1830.91C1226.19 1828.55 1231.42 1822.88 1233.23 1815.84Z" fill="#709687"/>
<path d="M1115.02 1142.6L1089.03 1141.26C1077.66 1140.67 1066.84 1146.22 1060.68 1155.8L1044.52 1180.94C1040.03 1187.92 1045.04 1197.1 1053.34 1197.1H1122.26L1115.02 1142.6Z" fill="#FEAD90"/>
<path d="M1122.26 1197.1L1116.52 1153.9L1107.67 1142.22C1107.67 1142.22 1074.46 1162.67 1072.76 1197.1H1122.26Z" fill="#0B4C52"/>
<path d="M1066.97 1558.92L1050.16 1732.66C1048.08 1754.19 1035.48 1773.3 1016.5 1783.7L1076.09 1809.72H1102.38C1115.43 1809.72 1124.62 1796.9 1120.44 1784.53L1111.34 1757.68L1157.5 1558.92H1066.97Z" fill="#FEAD90"/>
<path d="M1066.97 1558.92L1064.3 1586.45C1064.3 1586.45 1106.36 1591.58 1143.45 1619.44L1157.5 1558.92H1066.97Z" fill="#F36551"/>
<path d="M1416.86 1254.07C1440.36 1306.95 1413.51 1408.51 1325.38 1408.51C1237.24 1408.51 1238.08 1399.28 1238.08 1399.28C1238.08 1399.28 1234.16 1440.4 1216.26 1468.1C1225.49 1507.55 1210.38 1534.41 1210.38 1534.41C1210.38 1534.41 1216.26 1565.47 1201.99 1586.45H1050.91L1072.74 1360.8C1078.01 1306.35 1119.36 1262.05 1173.43 1253.78C1213.8 1247.6 1261.15 1243.66 1301.92 1249.18C1375.35 1259.09 1416.86 1254.07 1416.86 1254.07Z" fill="#FBCA60"/>
<path d="M1383.72 1279.04C1383.72 1279.04 1363.48 1308.28 1326.64 1294.61" stroke="#0B4C52" stroke-width="1.1191" stroke-miterlimit="10" stroke-linecap="round" stroke-linejoin="round"/>
<path d="M1365.88 1266.52C1365.88 1266.52 1320.56 1303.15 1278.38 1305.89C1236.2 1308.63 1206.42 1313.66 1196.45 1331.29C1186.48 1348.91 1200.95 1373.46 1188.36 1404.31C1200.32 1432.01 1181.44 1462.65 1181.44 1462.65C1181.44 1462.65 1189.38 1513.43 1175.34 1526.23C1177.66 1539.03 1168.22 1558.94 1168.22 1558.94" stroke="#0B4C52" stroke-width="1.1191" stroke-miterlimit="10" stroke-linecap="round" stroke-linejoin="round"/>
<path d="M1281.78 1247.3C1298.03 1253.2 1313.5 1266.24 1342.47 1271.7C1371.38 1277.14 1386.3 1292.84 1408.52 1294.56C1417.49 1295.26 1425 1287.54 1423.71 1278.64C1422.43 1269.77 1420.14 1261.45 1416.86 1254.07C1416.86 1254.07 1375.35 1259.1 1301.92 1249.17C1295.37 1248.28 1288.61 1247.72 1281.78 1247.3Z" fill="#0B4C52"/>
<path d="M1056.74 1526.22L1072.74 1360.79C1078.01 1306.35 1119.36 1262.04 1173.43 1253.78C1183.27 1252.27 1193.53 1250.9 1204 1249.76" stroke="#0B4C52" stroke-width="1.1191" stroke-miterlimit="10" stroke-linecap="round" stroke-linejoin="round"/>
<path d="M1186.82 893.78C1211.85 893.152 1264.73 870.488 1312.57 893.78C1360.42 917.072 1384.34 959.88 1396.92 1038.57C1409.52 1117.26 1412.03 1189.02 1429.03 1208.54C1446.02 1228.05 1443.11 1269 1423.6 1270.26C1404.08 1271.52 1272.28 1237.49 1232.62 1243.79C1209.72 1247.42 1186.81 1239.3 1171.55 1231.79C1162.76 1227.46 1161.82 1215.33 1169.92 1209.82C1177.35 1204.76 1179.9 1194.99 1175.89 1186.94L1109.23 1053.05L1034.11 1133.02C1034.11 1133.02 1032.62 1197.88 979.108 1197.88C925.6 1197.88 888.484 1157.55 925.216 1097.12C937.016 1029.13 983.336 1016.54 983.336 1016.54C983.336 1016.54 1006 969.96 1026.14 959.888C1038.74 930.932 1071.47 897.568 1109.87 900.084C1148.27 902.596 1186.82 893.78 1186.82 893.78Z" fill="#7EC1B2"/>
<path d="M955.648 1087.99C959.108 1086.97 962.628 1086 966.2 1085.21L971.656 1084.51C973.48 1084.24 975.316 1084.05 977.172 1084.17L982.74 1084.25C984.592 1084.41 986.428 1084.79 988.28 1085.05L991.052 1085.5L993.756 1086.29C995.532 1086.9 997.4 1087.26 999.096 1088.09C1006.17 1090.74 1012.43 1095.33 1017.58 1100.72C1022.69 1106.19 1026.58 1112.65 1028.74 1119.78C1028.89 1120.29 1028.6 1120.83 1028.09 1120.98C1027.66 1121.12 1027.21 1120.93 1026.99 1120.56L1026.94 1120.47C1023.35 1114.51 1018.88 1109.05 1013.85 1104.46C1008.82 1099.86 1003.16 1096 996.892 1093.42C990.608 1090.98 983.964 1089.16 977.036 1088.84C973.6 1088.36 970.116 1088.81 966.604 1088.66C963.104 1088.84 959.616 1089.39 956.032 1089.58L955.928 1089.59C955.476 1089.61 955.092 1089.27 955.068 1088.82C955.044 1088.43 955.292 1088.09 955.648 1087.99Z" fill="#0B4C52"/>
<path d="M1047.54 973.131C1053.05 977.083 1058.34 981.187 1063.45 985.587C1068.54 990.003 1073.53 994.595 1077.65 1000.16C1078.11 1000.79 1077.98 1001.68 1077.35 1002.14C1076.74 1002.6 1075.88 1002.48 1075.41 1001.9L1075.37 1001.85C1071.34 996.835 1066.27 992.511 1061.12 988.407C1055.95 984.319 1050.53 980.451 1045.04 976.847L1045.01 976.823C1043.98 976.143 1043.69 974.755 1044.37 973.723C1045.05 972.691 1046.44 972.403 1047.47 973.083C1047.49 973.091 1047.52 973.115 1047.54 973.131Z" fill="#0B4C52"/>
<path d="M1034.56 1029.03C1041.86 1030.81 1048.77 1033.28 1055.51 1036.39C1062.18 1039.56 1068.62 1043.48 1073.9 1048.84C1074.36 1049.31 1074.35 1050.07 1073.88 1050.53C1073.42 1050.98 1072.7 1050.99 1072.24 1050.56L1072.21 1050.54C1067.02 1045.74 1060.69 1042.28 1054.12 1039.53C1047.53 1036.85 1040.57 1034.75 1033.68 1033.42L1033.6 1033.4C1032.38 1033.17 1031.59 1032 1031.83 1030.78C1032.06 1029.56 1033.24 1028.77 1034.45 1029.01C1034.48 1029.01 1034.52 1029.02 1034.56 1029.03Z" fill="#0B4C52"/>
<path d="M1154.74 1131.08C1161.61 1126.74 1168.85 1123.11 1176.29 1119.91C1183.74 1116.72 1191.38 1113.93 1199.22 1111.75C1207.04 1109.52 1215.07 1107.93 1223.18 1106.9C1231.28 1105.68 1239.52 1105.7 1247.73 1105.98C1249.34 1106.04 1250.6 1107.39 1250.54 1109C1250.48 1110.6 1249.14 1111.86 1247.53 1111.81H1247.5L1247.33 1111.8C1239.49 1111.45 1231.6 1111.26 1223.73 1112.1C1215.87 1112.81 1208.02 1114.06 1200.3 1115.96C1192.58 1117.8 1184.9 1119.98 1177.4 1122.72C1169.93 1125.48 1162.52 1128.59 1155.43 1132.22L1155.4 1132.24C1155.07 1132.41 1154.67 1132.28 1154.5 1131.95C1154.35 1131.64 1154.46 1131.26 1154.74 1131.08Z" fill="#0B4C52"/>
<path d="M1230.2 1108.88C1227.92 1092.22 1228.92 1075.62 1231.27 1059.23C1232.49 1051.04 1234.23 1042.94 1236.42 1034.97C1238.32 1026.94 1241.68 1019.22 1243.25 1011.44C1244.97 1003.59 1245.35 995.448 1244.69 987.412C1243.86 979.512 1242.09 971.172 1242.29 962.784C1242.32 954.4 1243.85 945.948 1246.96 938.044C1250.08 930.116 1254.59 922.8 1261.52 917.068C1262.48 916.28 1263.88 916.416 1264.67 917.364C1265.46 918.316 1265.32 919.724 1264.38 920.512L1264.36 920.52L1264.18 920.672C1261.42 922.928 1258.82 926.14 1256.66 929.32C1254.46 932.552 1252.6 936.048 1251.18 939.72C1248.26 947.044 1246.8 954.944 1246.42 962.908C1245.93 970.928 1247.11 978.8 1247.71 987.192C1248.22 995.476 1247.88 1003.83 1246.47 1012.06C1244.93 1020.37 1242.36 1028.03 1240.92 1036.04C1239.34 1044 1237.94 1051.99 1236.97 1060.02C1234.88 1076.04 1233.99 1092.36 1234.64 1108.32L1234.65 1108.48C1234.7 1109.71 1233.74 1110.76 1232.51 1110.8C1231.35 1110.85 1230.36 1110 1230.2 1108.88Z" fill="#0B4C52"/>
<path d="M1254.3 1197.48L1287.45 1197.25C1298.05 1197.03 1308.5 1193.35 1317 1187C1325.55 1180.7 1332.14 1171.85 1335.94 1161.91C1339.53 1151.85 1341.94 1140.88 1343.62 1130.12C1344.43 1124.69 1345.04 1119.24 1345.35 1113.76C1345.79 1108.28 1345.38 1102.81 1345.75 1097.14C1346.47 1085.9 1349.04 1074.87 1352.99 1064.4C1361.12 1043.93 1361.12 1021.26 1357.37 999.772C1357.16 998.552 1357.98 997.396 1359.19 997.18C1360.41 996.968 1361.57 997.784 1361.78 999C1361.79 999.028 1361.8 999.076 1361.8 999.104C1364.7 1021.19 1364.06 1044.44 1355.66 1065.4C1351.8 1075.64 1349 1086.37 1348.55 1097.29C1348.3 1102.68 1348.66 1108.29 1348.46 1113.89C1348.33 1119.48 1347.92 1125.06 1347.25 1130.61C1345.82 1141.76 1343.8 1152.62 1340.27 1163.54C1336.29 1174.34 1329.09 1183.94 1319.82 1190.82C1310.59 1197.74 1299.17 1201.79 1287.6 1202.06C1276.38 1202.25 1265.41 1201.98 1254.3 1201.97C1253.06 1201.97 1252.06 1200.96 1252.06 1199.73C1252.06 1198.49 1253.07 1197.49 1254.3 1197.48Z" fill="#0B4C52"/>
<path d="M1385.01 1135.28C1383.42 1142.84 1380.75 1149.93 1377.36 1156.77C1373.99 1163.6 1369.79 1170.05 1364.85 1175.9C1359.94 1181.78 1354.35 1187.17 1348.04 1191.61C1341.88 1196.3 1334.92 1199.75 1327.87 1202.92C1326.14 1203.7 1324.11 1202.92 1323.34 1201.2C1322.56 1199.47 1323.33 1197.45 1325.06 1196.67C1325.1 1196.65 1325.14 1196.64 1325.18 1196.62L1325.41 1196.53C1332.1 1193.88 1338.77 1190.97 1344.73 1186.84C1350.85 1182.97 1356.34 1178.14 1361.27 1172.78C1366.22 1167.45 1370.53 1161.47 1374.08 1155.05C1377.64 1148.67 1380.58 1141.77 1382.41 1134.78L1382.44 1134.68C1382.62 1133.97 1383.34 1133.55 1384.05 1133.73C1384.74 1133.91 1385.16 1134.6 1385.01 1135.28Z" fill="#0B4C52"/>
<path d="M1123.15 997.8C1130.85 1004.93 1139.3 1011.58 1148.04 1017.62C1156.76 1023.73 1165.86 1029.3 1175.21 1034.41C1184.51 1039.62 1194.28 1043.93 1204.21 1047.73C1214.08 1051.72 1224.37 1054.5 1234.7 1056.85L1234.8 1056.87C1236.01 1057.15 1236.77 1058.34 1236.49 1059.55C1236.22 1060.76 1235.02 1061.52 1233.81 1061.24C1233.78 1061.23 1233.73 1061.22 1233.7 1061.21C1223.28 1058.24 1212.88 1055.22 1202.91 1051.07C1192.86 1047.12 1183.15 1042.4 1173.63 1037.36C1164.11 1032.3 1154.84 1026.76 1145.94 1020.68C1137.04 1014.56 1128.38 1008.22 1120.1 1001.07C1119.17 1000.26 1119.06 998.852 1119.87 997.916C1120.68 996.98 1122.09 996.876 1123.03 997.684C1123.04 997.7 1123.06 997.712 1123.08 997.728L1123.15 997.8Z" fill="#0B4C52"/>
<path d="M1109.25 1053.05C1102.32 1038.57 1079.33 1005.84 1074.14 1008.98C1068.96 1012.13 1084.07 1025.98 1083.43 1036.68C1082.81 1047.38 1088.1 1060.03 1097.1 1065.98L1109.25 1053.05Z" fill="#0B4C52"/>
<path d="M1243.96 1117.15L1138.38 1135.41C1111.76 1125.34 1079.33 1163.74 1085.47 1197.1H1308.16L1243.96 1117.15Z" fill="#7EC1B2"/>
<path d="M1043.86 1756.82C1059.74 1762.25 1081.17 1773.79 1091.21 1797.74C1094.31 1805.12 1101.8 1809.71 1109.82 1809.71H1124.15C1131.45 1809.71 1137.37 1815.63 1137.37 1822.93C1137.37 1830.23 1131.45 1836.15 1124.15 1836.15H921.334C911.318 1836.15 906.006 1824.34 912.638 1816.84C924.734 1803.15 944.462 1786.62 971.122 1783.11C978.07 1782.19 984.582 1779.16 990.138 1774.89C997.186 1769.47 1004.09 1764.76 1009.83 1761.06C1019.95 1754.53 1032.46 1752.92 1043.86 1756.82Z" fill="#0B4C52"/>
<path d="M1005.71 1179.61L1006.65 1197.92L1000.74 1189.59L994.832 1181.26L1002.22 1178.67C1002.85 1179.34 1003.56 1179.92 1004.32 1180.46C1004.81 1180.2 1005.26 1179.88 1005.71 1179.61Z" fill="#F2EDE6"/>
<path d="M996.845 1152.44L982.877 1112.2C984.981 1112.82 986.997 1113.54 988.829 1114.34C990.081 1123.84 991.961 1133.64 997.381 1139.28C997.873 1139.77 998.589 1139.91 999.217 1139.68C999.577 1139.6 999.845 1139.37 1000.11 1139.06C1000.6 1138.38 1000.47 1137.4 999.889 1136.77C995.637 1132.34 993.801 1124.33 992.637 1116.18C999.577 1119.8 1004.5 1124.55 1008.3 1129.48C1014.39 1137.44 1022.54 1168.33 1005.71 1179.61C1005.26 1179.88 1004.81 1180.19 1004.32 1180.46C1003.56 1179.93 1002.84 1179.34 1002.22 1178.67C996.353 1172.63 995.993 1161.39 996.889 1152.44H996.845Z" fill="#FEAD90"/>
<path d="M971.551 1079.65L960.807 1083.41L957.943 1075.18L968.687 1071.42L971.551 1079.65Z" fill="#EDE5DA"/>
<path d="M971.553 1079.7C971.913 1080.64 972.853 1081.22 973.881 1081.08C976.657 1080.72 978.985 1081.04 981.045 1082.16C984.941 1084.26 987.761 1089.05 989.817 1097.29C990.669 1100.65 991.205 1104.9 991.741 1109.42C992.009 1111.66 992.277 1113.94 992.637 1116.18C993.801 1124.33 995.637 1132.34 999.889 1136.78C1000.47 1137.4 1000.6 1138.39 1000.11 1139.06C999.845 1139.37 999.577 1139.6 999.217 1139.69C998.589 1139.91 997.873 1139.78 997.381 1139.28C991.965 1133.64 990.085 1123.84 988.829 1114.35C988.605 1112.83 988.425 1111.3 988.249 1109.83C987.713 1105.44 987.221 1101.28 986.413 1098.14C984.221 1089.55 982.117 1084.31 975.713 1084.44C974.461 1084.49 973.653 1085.74 974.057 1086.86L974.729 1088.78L963.941 1092.5L960.809 1083.41L971.553 1079.7Z" fill="#F5C365"/>
<path d="M969.851 1109.56L963.943 1092.5L974.731 1088.78L982.879 1112.2L996.847 1152.44H996.891C995.995 1161.39 996.355 1172.63 1002.22 1178.67L994.831 1181.27L985.119 1153.38C986.999 1151.99 988.343 1149.89 988.655 1147.34C989.103 1143.58 987.131 1139.9 983.687 1138.25L979.075 1136.01L969.851 1109.56Z" fill="#EDE5DA"/>
<path d="M979.116 1197.88C969.044 1197.88 950.376 1198.82 949.752 1183.51C939.276 1176.79 943.036 1166.23 943.44 1164.12C933.592 1157.18 936.548 1143.98 940.308 1141.43C926.88 1131.8 932.564 1107.86 961.704 1108.93C964.568 1109.02 967.3 1109.24 969.852 1109.56L979.072 1136.01L983.684 1138.25C987.132 1139.91 989.1 1143.58 988.652 1147.34C988.34 1149.89 986.996 1152 985.116 1153.38L994.828 1181.27L1000.74 1189.6C995.724 1196.4 986.592 1197.88 979.116 1197.88Z" fill="#FEAD90"/>
<path d="M952.385 1123.09L983.497 1138.24C986.917 1139.91 988.901 1143.56 988.437 1147.34C987.717 1153.18 981.625 1156.74 976.185 1154.48L948.297 1142.92" stroke="#F36551" stroke-width="0.5596" stroke-miterlimit="10" stroke-linecap="round" stroke-linejoin="round"/>
<path d="M1004.11 1180.48C992.92 1172.78 996.544 1150.2 998.276 1142.08" stroke="#F36551" stroke-width="0.5596" stroke-miterlimit="10" stroke-linecap="round" stroke-linejoin="round"/>
<path d="M949.553 1166L973.405 1170.86C978.645 1171.93 983.549 1167.92 983.549 1162.58C983.549 1158.92 981.205 1155.68 977.733 1154.54L970.973 1152.32" stroke="#F36551" stroke-width="0.5596" stroke-miterlimit="10" stroke-linecap="round" stroke-linejoin="round"/>
<path d="M957.736 1183.84L976.72 1182.57C981.376 1182.26 984.416 1177.55 982.78 1173.18L981.036 1168.53" stroke="#F36551" stroke-width="0.5596" stroke-miterlimit="10" stroke-linecap="round" stroke-linejoin="round"/>
<path d="M1412.65 1220.06C1403.24 1222.17 1393.81 1223.53 1384.28 1224.47C1374.76 1225.38 1365.18 1225.76 1355.6 1225.54C1346.02 1225.19 1336.44 1224.17 1326.97 1222.32C1317.55 1220.23 1308.31 1217.18 1299.58 1212.82C1298.47 1212.27 1298.02 1210.93 1298.57 1209.82C1299.12 1208.72 1300.47 1208.27 1301.57 1208.82L1301.59 1208.83L1301.66 1208.87C1309.91 1213.07 1318.75 1216.1 1327.85 1218.2C1337.01 1220.08 1346.34 1221.17 1355.73 1221.59C1365.13 1221.9 1374.55 1221.62 1383.94 1220.8C1393.31 1219.96 1402.72 1218.7 1411.86 1216.73L1411.91 1216.72C1412.84 1216.52 1413.74 1217.11 1413.94 1218.03C1414.14 1218.95 1413.56 1219.86 1412.65 1220.06Z" fill="#0B4C52"/>
<path d="M1185.12 861.107C1185.12 861.107 1201.22 889.235 1206.97 898.375C1225.46 927.723 1163.67 962.647 1142.23 930.439L1127.52 903.919L1185.12 861.107Z" fill="#FEAD90"/>
<path d="M1171.29 906.923C1183.22 896.775 1176.81 875.563 1176.81 875.563L1137.66 896.387L1127.52 903.927L1142.23 930.447C1142.74 931.219 1143.3 931.919 1143.86 932.615C1152.44 927.823 1161.14 915.559 1171.29 906.923Z" fill="#0B4C52"/>
<path d="M1131.41 930.328C1132.53 935.912 1135.22 941.116 1139.24 945.1C1143.25 949.096 1148.37 951.872 1153.77 953.644C1164.64 957.144 1176.63 956.968 1187.58 953.976C1198.45 950.808 1208.72 944.604 1215.92 936.016C1219.48 931.7 1222.11 926.676 1223.29 921.308C1224.49 915.94 1224.2 910.328 1222.9 904.928L1222.88 904.864C1222.6 903.66 1223.34 902.452 1224.54 902.164C1225.74 901.876 1226.95 902.616 1227.24 903.82C1227.24 903.828 1227.25 903.848 1227.25 903.856C1228.58 909.852 1228.81 916.204 1227.33 922.252C1225.89 928.3 1222.82 933.852 1218.86 938.476C1210.81 947.68 1200 953.876 1188.42 957.048C1176.79 959.984 1164.37 959.936 1152.96 956.048C1147.3 954.08 1141.9 951.032 1137.66 946.652C1133.42 942.292 1130.62 936.608 1129.56 930.684C1129.46 930.172 1129.8 929.68 1130.32 929.588C1130.82 929.492 1131.31 929.824 1131.41 930.328Z" fill="#0B4C52"/>
<path d="M1642.04 1338.62C1605.86 1343.58 1599.27 1350.91 1595.2 1394.44C1595.05 1396.06 1592.66 1396.06 1592.5 1394.44C1588.43 1350.91 1581.84 1343.58 1545.66 1338.62C1544.1 1338.4 1544.1 1336.15 1545.66 1335.94C1581.85 1330.97 1588.43 1323.64 1592.5 1280.12C1592.66 1278.49 1595.05 1278.49 1595.2 1280.12C1599.27 1323.64 1605.86 1330.97 1642.04 1335.94C1643.6 1336.15 1643.6 1338.4 1642.04 1338.62Z" fill="white"/>
<path d="M467.272 1321.42C439.568 1325.22 434.528 1330.84 431.408 1364.16C431.292 1365.41 429.46 1365.41 429.344 1364.16C426.224 1330.83 421.184 1325.22 393.48 1321.42C392.288 1321.26 392.288 1319.54 393.48 1319.37C421.184 1315.57 426.224 1309.96 429.344 1276.64C429.46 1275.39 431.292 1275.39 431.408 1276.64C434.528 1309.96 439.568 1315.57 467.272 1319.37C468.464 1319.54 468.464 1321.26 467.272 1321.42Z" fill="white"/>
<path d="M1461.85 561.764C1434.14 565.564 1429.1 571.176 1425.98 604.5C1425.87 605.748 1424.04 605.748 1423.92 604.5C1420.8 571.172 1415.76 565.564 1388.06 561.764C1386.86 561.6 1386.86 559.876 1388.06 559.712C1415.76 555.912 1420.8 550.3 1423.92 516.976C1424.04 515.728 1425.87 515.728 1425.98 516.976C1429.1 550.304 1434.14 555.912 1461.85 559.712C1463.04 559.876 1463.04 561.6 1461.85 561.764Z" fill="white"/>
<path d="M1254.79 1832.65L1236.92 1836.15H1323.8L1305.93 1832.65C1296.56 1830.82 1289.8 1822.61 1289.8 1813.07V1216.3H1270.92V1383.67C1270.92 1392.98 1263.37 1400.53 1254.05 1400.53H1021.84C1012.52 1400.53 1004.97 1392.98 1004.97 1383.67V1216.3H986.084V1813.07C986.084 1822.61 979.328 1830.82 969.96 1832.65L952.092 1836.15H1038.96L1021.1 1832.65C1011.73 1830.82 1004.97 1822.61 1004.97 1813.07V1435.03C1004.97 1425.71 1012.52 1418.16 1021.84 1418.16H1254.06C1263.37 1418.16 1270.92 1425.71 1270.92 1435.03V1813.07C1270.92 1822.61 1264.16 1830.82 1254.79 1832.65Z" fill="#EDE5DA"/>
<path d="M786.02 1832.66L768.152 1836.15H855.024L837.156 1832.66C827.788 1830.82 821.032 1822.62 821.032 1813.07V1218.4H802.148V1383.66C802.148 1392.98 794.596 1400.53 785.28 1400.53H553.064C543.748 1400.53 536.196 1392.98 536.196 1383.66V1218.4H517.312V1813.07C517.312 1822.61 510.556 1830.82 501.188 1832.65L483.32 1836.15H570.192L552.324 1832.65C542.956 1830.82 536.2 1822.61 536.2 1813.07V1435.02C536.2 1425.71 543.752 1418.16 553.068 1418.16H785.284C794.6 1418.16 802.152 1425.71 802.152 1435.02V1813.07C802.144 1822.62 795.384 1830.82 786.02 1832.66Z" fill="#EDE5DA"/>
<path d="M797.281 1423.2C800.281 1426.24 802.141 1430.42 802.141 1435.03V1705.53L821.025 1712.86V1423.19H797.281V1423.2Z" fill="#709687"/>
<path d="M541.053 1423.2H517.305V1594.87L536.189 1602.2V1435.03C536.189 1430.42 538.049 1426.24 541.053 1423.2Z" fill="#709687"/>
<path d="M986.077 1218.4H517.305V1539.02H986.077V1218.4Z" fill="#EDE5DA"/>
<path d="M552.697 1256.76C552.697 1251.38 557.057 1247.02 562.441 1247.02C563.837 1247.02 565.157 1247.32 566.357 1247.85C564.489 1246.24 562.085 1245.22 559.421 1245.22C553.541 1245.22 548.773 1249.99 548.773 1255.87C548.773 1261.75 553.541 1266.52 559.421 1266.52C559.973 1266.52 560.501 1266.44 561.029 1266.36C556.321 1265.67 552.697 1261.66 552.697 1256.76Z" fill="#709687"/>
<path d="M601.229 1256.76C601.229 1251.38 605.589 1247.02 610.973 1247.02C612.369 1247.02 613.689 1247.32 614.889 1247.85C613.021 1246.24 610.617 1245.22 607.953 1245.22C602.073 1245.22 597.305 1249.99 597.305 1255.87C597.305 1261.75 602.073 1266.52 607.953 1266.52C608.505 1266.52 609.033 1266.44 609.561 1266.36C604.853 1265.67 601.229 1261.66 601.229 1256.76Z" fill="#709687"/>
<path d="M649.762 1256.76C649.762 1251.38 654.122 1247.02 659.506 1247.02C660.902 1247.02 662.222 1247.32 663.422 1247.85C661.554 1246.24 659.15 1245.22 656.486 1245.22C650.606 1245.22 645.838 1249.99 645.838 1255.87C645.838 1261.75 650.606 1266.52 656.486 1266.52C657.038 1266.52 657.566 1266.44 658.09 1266.36C653.386 1265.67 649.762 1261.66 649.762 1256.76Z" fill="#709687"/>
<path d="M698.289 1256.76C698.289 1251.38 702.649 1247.02 708.033 1247.02C709.429 1247.02 710.749 1247.32 711.949 1247.85C710.081 1246.24 707.677 1245.22 705.013 1245.22C699.133 1245.22 694.365 1249.99 694.365 1255.87C694.365 1261.75 699.133 1266.52 705.013 1266.52C705.565 1266.52 706.093 1266.44 706.621 1266.36C701.917 1265.67 698.289 1261.66 698.289 1256.76Z" fill="#709687"/>
<path d="M746.822 1256.76C746.822 1251.38 751.182 1247.02 756.566 1247.02C757.962 1247.02 759.282 1247.32 760.482 1247.85C758.614 1246.24 756.21 1245.22 753.546 1245.22C747.666 1245.22 742.898 1249.99 742.898 1255.87C742.898 1261.75 747.666 1266.52 753.546 1266.52C754.098 1266.52 754.626 1266.44 755.15 1266.36C750.45 1265.67 746.822 1261.66 746.822 1256.76Z" fill="#709687"/>
<path d="M795.354 1256.76C795.354 1251.38 799.714 1247.02 805.098 1247.02C806.494 1247.02 807.814 1247.32 809.014 1247.85C807.146 1246.24 804.742 1245.22 802.078 1245.22C796.198 1245.22 791.43 1249.99 791.43 1255.87C791.43 1261.75 796.198 1266.52 802.078 1266.52C802.63 1266.52 803.158 1266.44 803.686 1266.36C798.982 1265.67 795.354 1261.66 795.354 1256.76Z" fill="#709687"/>
<path d="M843.885 1256.76C843.885 1251.38 848.245 1247.02 853.629 1247.02C855.025 1247.02 856.345 1247.32 857.545 1247.85C855.677 1246.24 853.273 1245.22 850.609 1245.22C844.729 1245.22 839.961 1249.99 839.961 1255.87C839.961 1261.75 844.729 1266.52 850.609 1266.52C851.161 1266.52 851.689 1266.44 852.217 1266.36C847.513 1265.67 843.885 1261.66 843.885 1256.76Z" fill="#709687"/>
<path d="M892.418 1256.76C892.418 1251.38 896.778 1247.02 902.162 1247.02C903.558 1247.02 904.878 1247.32 906.078 1247.85C904.21 1246.24 901.806 1245.22 899.142 1245.22C893.262 1245.22 888.494 1249.99 888.494 1255.87C888.494 1261.75 893.262 1266.52 899.142 1266.52C899.694 1266.52 900.222 1266.44 900.75 1266.36C896.046 1265.67 892.418 1261.66 892.418 1256.76Z" fill="#709687"/>
<path d="M940.949 1256.76C940.949 1251.38 945.309 1247.02 950.693 1247.02C952.089 1247.02 953.409 1247.32 954.609 1247.85C952.741 1246.24 950.337 1245.22 947.673 1245.22C941.793 1245.22 937.025 1249.99 937.025 1255.87C937.025 1261.75 941.793 1266.52 947.673 1266.52C948.225 1266.52 948.753 1266.44 949.281 1266.36C944.577 1265.67 940.949 1261.66 940.949 1256.76Z" fill="#709687"/>
<path d="M552.697 1318.18C552.697 1312.8 557.057 1308.44 562.441 1308.44C563.837 1308.44 565.157 1308.74 566.357 1309.27C564.489 1307.65 562.085 1306.64 559.421 1306.64C553.541 1306.64 548.773 1311.41 548.773 1317.29C548.773 1323.17 553.541 1327.94 559.421 1327.94C559.973 1327.94 560.501 1327.86 561.029 1327.78C556.321 1327.09 552.697 1323.08 552.697 1318.18Z" fill="#709687"/>
<path d="M601.229 1318.18C601.229 1312.8 605.589 1308.44 610.973 1308.44C612.369 1308.44 613.689 1308.74 614.889 1309.27C613.021 1307.65 610.617 1306.64 607.953 1306.64C602.073 1306.64 597.305 1311.41 597.305 1317.29C597.305 1323.17 602.073 1327.94 607.953 1327.94C608.505 1327.94 609.033 1327.86 609.561 1327.78C604.853 1327.09 601.229 1323.08 601.229 1318.18Z" fill="#709687"/>
<path d="M649.762 1318.18C649.762 1312.8 654.122 1308.44 659.506 1308.44C660.902 1308.44 662.222 1308.74 663.422 1309.27C661.554 1307.65 659.15 1306.64 656.486 1306.64C650.606 1306.64 645.838 1311.41 645.838 1317.29C645.838 1323.17 650.606 1327.94 656.486 1327.94C657.038 1327.94 657.566 1327.86 658.09 1327.78C653.386 1327.09 649.762 1323.08 649.762 1318.18Z" fill="#709687"/>
<path d="M698.289 1318.18C698.289 1312.8 702.649 1308.44 708.033 1308.44C709.429 1308.44 710.749 1308.74 711.949 1309.27C710.081 1307.65 707.677 1306.64 705.013 1306.64C699.133 1306.64 694.365 1311.41 694.365 1317.29C694.365 1323.17 699.133 1327.94 705.013 1327.94C705.565 1327.94 706.093 1327.86 706.621 1327.78C701.917 1327.09 698.289 1323.08 698.289 1318.18Z" fill="#709687"/>
<path d="M746.822 1318.18C746.822 1312.8 751.182 1308.44 756.566 1308.44C757.962 1308.44 759.282 1308.74 760.482 1309.27C758.614 1307.65 756.21 1306.64 753.546 1306.64C747.666 1306.64 742.898 1311.41 742.898 1317.29C742.898 1323.17 747.666 1327.94 753.546 1327.94C754.098 1327.94 754.626 1327.86 755.15 1327.78C750.45 1327.09 746.822 1323.08 746.822 1318.18Z" fill="#709687"/>
<path d="M795.354 1318.18C795.354 1312.8 799.714 1308.44 805.098 1308.44C806.494 1308.44 807.814 1308.74 809.014 1309.27C807.146 1307.65 804.742 1306.64 802.078 1306.64C796.198 1306.64 791.43 1311.41 791.43 1317.29C791.43 1323.17 796.198 1327.94 802.078 1327.94C802.63 1327.94 803.158 1327.86 803.686 1327.78C798.982 1327.09 795.354 1323.08 795.354 1318.18Z" fill="#709687"/>
<path d="M843.885 1318.18C843.885 1312.8 848.245 1308.44 853.629 1308.44C855.025 1308.44 856.345 1308.74 857.545 1309.27C855.677 1307.65 853.273 1306.64 850.609 1306.64C844.729 1306.64 839.961 1311.41 839.961 1317.29C839.961 1323.17 844.729 1327.94 850.609 1327.94C851.161 1327.94 851.689 1327.86 852.217 1327.78C847.513 1327.09 843.885 1323.08 843.885 1318.18Z" fill="#709687"/>
<path d="M892.418 1318.18C892.418 1312.8 896.778 1308.44 902.162 1308.44C903.558 1308.44 904.878 1308.74 906.078 1309.27C904.21 1307.65 901.806 1306.64 899.142 1306.64C893.262 1306.64 888.494 1311.41 888.494 1317.29C888.494 1323.17 893.262 1327.94 899.142 1327.94C899.694 1327.94 900.222 1327.86 900.75 1327.78C896.046 1327.09 892.418 1323.08 892.418 1318.18Z" fill="#709687"/>
<path d="M940.949 1318.18C940.949 1312.8 945.309 1308.44 950.693 1308.44C952.089 1308.44 953.409 1308.74 954.609 1309.27C952.741 1307.65 950.337 1306.64 947.673 1306.64C941.793 1306.64 937.025 1311.41 937.025 1317.29C937.025 1323.17 941.793 1327.94 947.673 1327.94C948.225 1327.94 948.753 1327.86 949.281 1327.78C944.577 1327.09 940.949 1323.08 940.949 1318.18Z" fill="#709687"/>
<path d="M552.697 1379.6C552.697 1374.22 557.057 1369.86 562.441 1369.86C563.837 1369.86 565.157 1370.16 566.357 1370.69C564.489 1369.07 562.085 1368.06 559.421 1368.06C553.541 1368.06 548.773 1372.83 548.773 1378.71C548.773 1384.59 553.541 1389.36 559.421 1389.36C559.973 1389.36 560.501 1389.28 561.029 1389.2C556.321 1388.51 552.697 1384.5 552.697 1379.6Z" fill="#709687"/>
<path d="M601.229 1379.6C601.229 1374.22 605.589 1369.86 610.973 1369.86C612.369 1369.86 613.689 1370.16 614.889 1370.69C613.021 1369.07 610.617 1368.06 607.953 1368.06C602.073 1368.06 597.305 1372.83 597.305 1378.71C597.305 1384.59 602.073 1389.36 607.953 1389.36C608.505 1389.36 609.033 1389.28 609.561 1389.2C604.853 1388.51 601.229 1384.5 601.229 1379.6Z" fill="#709687"/>
<path d="M649.762 1379.6C649.762 1374.22 654.122 1369.86 659.506 1369.86C660.902 1369.86 662.222 1370.16 663.422 1370.69C661.554 1369.07 659.15 1368.06 656.486 1368.06C650.606 1368.06 645.838 1372.83 645.838 1378.71C645.838 1384.59 650.606 1389.36 656.486 1389.36C657.038 1389.36 657.566 1389.28 658.09 1389.2C653.386 1388.51 649.762 1384.5 649.762 1379.6Z" fill="#709687"/>
<path d="M698.289 1379.6C698.289 1374.22 702.649 1369.86 708.033 1369.86C709.429 1369.86 710.749 1370.16 711.949 1370.69C710.081 1369.07 707.677 1368.06 705.013 1368.06C699.133 1368.06 694.365 1372.83 694.365 1378.71C694.365 1384.59 699.133 1389.36 705.013 1389.36C705.565 1389.36 706.093 1389.28 706.621 1389.2C701.917 1388.51 698.289 1384.5 698.289 1379.6Z" fill="#709687"/>
<path d="M746.822 1379.6C746.822 1374.22 751.182 1369.86 756.566 1369.86C757.962 1369.86 759.282 1370.16 760.482 1370.69C758.614 1369.07 756.21 1368.06 753.546 1368.06C747.666 1368.06 742.898 1372.83 742.898 1378.71C742.898 1384.59 747.666 1389.36 753.546 1389.36C754.098 1389.36 754.626 1389.28 755.15 1389.2C750.45 1388.51 746.822 1384.5 746.822 1379.6Z" fill="#709687"/>
<path d="M795.354 1379.6C795.354 1374.22 799.714 1369.86 805.098 1369.86C806.494 1369.86 807.814 1370.16 809.014 1370.69C807.146 1369.07 804.742 1368.06 802.078 1368.06C796.198 1368.06 791.43 1372.83 791.43 1378.71C791.43 1384.59 796.198 1389.36 802.078 1389.36C802.63 1389.36 803.158 1389.28 803.686 1389.2C798.982 1388.51 795.354 1384.5 795.354 1379.6Z" fill="#709687"/>
<path d="M843.885 1379.6C843.885 1374.22 848.245 1369.86 853.629 1369.86C855.025 1369.86 856.345 1370.16 857.545 1370.69C855.677 1369.07 853.273 1368.06 850.609 1368.06C844.729 1368.06 839.961 1372.83 839.961 1378.71C839.961 1384.59 844.729 1389.36 850.609 1389.36C851.161 1389.36 851.689 1389.28 852.217 1389.2C847.513 1388.51 843.885 1384.5 843.885 1379.6Z" fill="#709687"/>
<path d="M892.418 1379.6C892.418 1374.22 896.778 1369.86 902.162 1369.86C903.558 1369.86 904.878 1370.16 906.078 1370.69C904.21 1369.07 901.806 1368.06 899.142 1368.06C893.262 1368.06 888.494 1372.83 888.494 1378.71C888.494 1384.59 893.262 1389.36 899.142 1389.36C899.694 1389.36 900.222 1389.28 900.75 1389.2C896.046 1388.51 892.418 1384.5 892.418 1379.6Z" fill="#709687"/>
<path d="M940.949 1379.6C940.949 1374.22 945.309 1369.86 950.693 1369.86C952.089 1369.86 953.409 1370.16 954.609 1370.69C952.741 1369.07 950.337 1368.06 947.673 1368.06C941.793 1368.06 937.025 1372.83 937.025 1378.71C937.025 1384.59 941.793 1389.36 947.673 1389.36C948.225 1389.36 948.753 1389.28 949.281 1389.2C944.577 1388.51 940.949 1384.5 940.949 1379.6Z" fill="#709687"/>
<path d="M552.697 1441.02C552.697 1435.64 557.057 1431.27 562.441 1431.27C563.837 1431.27 565.157 1431.58 566.357 1432.1C564.489 1430.49 562.085 1429.48 559.421 1429.48C553.541 1429.48 548.773 1434.24 548.773 1440.12C548.773 1446 553.541 1450.77 559.421 1450.77C559.973 1450.77 560.501 1450.69 561.029 1450.61C556.321 1449.93 552.697 1445.91 552.697 1441.02Z" fill="#709687"/>
<path d="M601.229 1441.02C601.229 1435.64 605.589 1431.27 610.973 1431.27C612.369 1431.27 613.689 1431.58 614.889 1432.1C613.021 1430.49 610.617 1429.48 607.953 1429.48C602.073 1429.48 597.305 1434.24 597.305 1440.12C597.305 1446 602.073 1450.77 607.953 1450.77C608.505 1450.77 609.033 1450.69 609.561 1450.61C604.853 1449.93 601.229 1445.91 601.229 1441.02Z" fill="#709687"/>
<path d="M649.762 1441.02C649.762 1435.64 654.122 1431.27 659.506 1431.27C660.902 1431.27 662.222 1431.58 663.422 1432.1C661.554 1430.49 659.15 1429.48 656.486 1429.48C650.606 1429.48 645.838 1434.24 645.838 1440.12C645.838 1446 650.606 1450.77 656.486 1450.77C657.038 1450.77 657.566 1450.69 658.09 1450.61C653.386 1449.93 649.762 1445.91 649.762 1441.02Z" fill="#709687"/>
<path d="M698.289 1441.02C698.289 1435.64 702.649 1431.27 708.033 1431.27C709.429 1431.27 710.749 1431.58 711.949 1432.1C710.081 1430.49 707.677 1429.48 705.013 1429.48C699.133 1429.48 694.365 1434.24 694.365 1440.12C694.365 1446 699.133 1450.77 705.013 1450.77C705.565 1450.77 706.093 1450.69 706.621 1450.61C701.917 1449.93 698.289 1445.91 698.289 1441.02Z" fill="#709687"/>
<path d="M746.822 1441.02C746.822 1435.64 751.182 1431.27 756.566 1431.27C757.962 1431.27 759.282 1431.58 760.482 1432.1C758.614 1430.49 756.21 1429.48 753.546 1429.48C747.666 1429.48 742.898 1434.24 742.898 1440.12C742.898 1446 747.666 1450.77 753.546 1450.77C754.098 1450.77 754.626 1450.69 755.15 1450.61C750.45 1449.93 746.822 1445.91 746.822 1441.02Z" fill="#709687"/>
<path d="M795.354 1441.02C795.354 1435.64 799.714 1431.27 805.098 1431.27C806.494 1431.27 807.814 1431.58 809.014 1432.1C807.146 1430.49 804.742 1429.48 802.078 1429.48C796.198 1429.48 791.43 1434.24 791.43 1440.12C791.43 1446 796.198 1450.77 802.078 1450.77C802.63 1450.77 803.158 1450.69 803.686 1450.61C798.982 1449.93 795.354 1445.91 795.354 1441.02Z" fill="#709687"/>
<path d="M843.885 1441.02C843.885 1435.64 848.245 1431.27 853.629 1431.27C855.025 1431.27 856.345 1431.58 857.545 1432.1C855.677 1430.49 853.273 1429.48 850.609 1429.48C844.729 1429.48 839.961 1434.24 839.961 1440.12C839.961 1446 844.729 1450.77 850.609 1450.77C851.161 1450.77 851.689 1450.69 852.217 1450.61C847.513 1449.93 843.885 1445.91 843.885 1441.02Z" fill="#709687"/>
<path d="M892.418 1441.02C892.418 1435.64 896.778 1431.27 902.162 1431.27C903.558 1431.27 904.878 1431.58 906.078 1432.1C904.21 1430.49 901.806 1429.48 899.142 1429.48C893.262 1429.48 888.494 1434.24 888.494 1440.12C888.494 1446 893.262 1450.77 899.142 1450.77C899.694 1450.77 900.222 1450.69 900.75 1450.61C896.046 1449.93 892.418 1445.91 892.418 1441.02Z" fill="#709687"/>
<path d="M940.949 1441.02C940.949 1435.64 945.309 1431.27 950.693 1431.27C952.089 1431.27 953.409 1431.58 954.609 1432.1C952.741 1430.49 950.337 1429.48 947.673 1429.48C941.793 1429.48 937.025 1434.24 937.025 1440.12C937.025 1446 941.793 1450.77 947.673 1450.77C948.225 1450.77 948.753 1450.69 949.281 1450.61C944.577 1449.93 940.949 1445.91 940.949 1441.02Z" fill="#709687"/>
<path d="M552.697 1502.44C552.697 1497.06 557.057 1492.69 562.441 1492.69C563.837 1492.69 565.157 1493 566.357 1493.52C564.489 1491.91 562.085 1490.9 559.421 1490.9C553.541 1490.9 548.773 1495.66 548.773 1501.54C548.773 1507.42 553.541 1512.19 559.421 1512.19C559.973 1512.19 560.501 1512.11 561.029 1512.03C556.321 1511.34 552.697 1507.33 552.697 1502.44Z" fill="#709687"/>
<path d="M601.229 1502.44C601.229 1497.06 605.589 1492.69 610.973 1492.69C612.369 1492.69 613.689 1493 614.889 1493.52C613.021 1491.91 610.617 1490.9 607.953 1490.9C602.073 1490.9 597.305 1495.66 597.305 1501.54C597.305 1507.42 602.073 1512.19 607.953 1512.19C608.505 1512.19 609.033 1512.11 609.561 1512.03C604.853 1511.34 601.229 1507.33 601.229 1502.44Z" fill="#709687"/>
<path d="M649.762 1502.44C649.762 1497.06 654.122 1492.69 659.506 1492.69C660.902 1492.69 662.222 1493 663.422 1493.52C661.554 1491.91 659.15 1490.9 656.486 1490.9C650.606 1490.9 645.838 1495.66 645.838 1501.54C645.838 1507.42 650.606 1512.19 656.486 1512.19C657.038 1512.19 657.566 1512.11 658.09 1512.03C653.386 1511.34 649.762 1507.33 649.762 1502.44Z" fill="#709687"/>
<path d="M698.289 1502.44C698.289 1497.06 702.649 1492.69 708.033 1492.69C709.429 1492.69 710.749 1493 711.949 1493.52C710.081 1491.91 707.677 1490.9 705.013 1490.9C699.133 1490.9 694.365 1495.66 694.365 1501.54C694.365 1507.42 699.133 1512.19 705.013 1512.19C705.565 1512.19 706.093 1512.11 706.621 1512.03C701.917 1511.34 698.289 1507.33 698.289 1502.44Z" fill="#709687"/>
<path d="M746.822 1502.44C746.822 1497.06 751.182 1492.69 756.566 1492.69C757.962 1492.69 759.282 1493 760.482 1493.52C758.614 1491.91 756.21 1490.9 753.546 1490.9C747.666 1490.9 742.898 1495.66 742.898 1501.54C742.898 1507.42 747.666 1512.19 753.546 1512.19C754.098 1512.19 754.626 1512.11 755.15 1512.03C750.45 1511.34 746.822 1507.33 746.822 1502.44Z" fill="#709687"/>
<path d="M795.354 1502.44C795.354 1497.06 799.714 1492.69 805.098 1492.69C806.494 1492.69 807.814 1493 809.014 1493.52C807.146 1491.91 804.742 1490.9 802.078 1490.9C796.198 1490.9 791.43 1495.66 791.43 1501.54C791.43 1507.42 796.198 1512.19 802.078 1512.19C802.63 1512.19 803.158 1512.11 803.686 1512.03C798.982 1511.34 795.354 1507.33 795.354 1502.44Z" fill="#709687"/>
<path d="M843.885 1502.44C843.885 1497.06 848.245 1492.69 853.629 1492.69C855.025 1492.69 856.345 1493 857.545 1493.52C855.677 1491.91 853.273 1490.9 850.609 1490.9C844.729 1490.9 839.961 1495.66 839.961 1501.54C839.961 1507.42 844.729 1512.19 850.609 1512.19C851.161 1512.19 851.689 1512.11 852.217 1512.03C847.513 1511.34 843.885 1507.33 843.885 1502.44Z" fill="#709687"/>
<path d="M892.418 1502.44C892.418 1497.06 896.778 1492.69 902.162 1492.69C903.558 1492.69 904.878 1493 906.078 1493.52C904.21 1491.91 901.806 1490.9 899.142 1490.9C893.262 1490.9 888.494 1495.66 888.494 1501.54C888.494 1507.42 893.262 1512.19 899.142 1512.19C899.694 1512.19 900.222 1512.11 900.75 1512.03C896.046 1511.34 892.418 1507.33 892.418 1502.44Z" fill="#709687"/>
<path d="M940.949 1502.44C940.949 1497.06 945.309 1492.69 950.693 1492.69C952.089 1492.69 953.409 1493 954.609 1493.52C952.741 1491.91 950.337 1490.9 947.673 1490.9C941.793 1490.9 937.025 1495.66 937.025 1501.54C937.025 1507.42 941.793 1512.19 947.673 1512.19C948.225 1512.19 948.753 1512.11 949.281 1512.03C944.577 1511.34 940.949 1507.33 940.949 1502.44Z" fill="#709687"/>
<path d="M1342.47 1196.57H464.637V1218.4H1342.47V1196.57Z" fill="#EDE5DA"/>
<path d="M1342.47 1196.57H933.408V1218.4H1342.47V1196.57Z" fill="#EDE5DA"/>
<path d="M517.305 1218.4H986.077V1275.47L517.305 1218.4Z" fill="#0B4C52"/>
<path d="M1064.3 1562.95H1194.44C1194.44 1562.95 1129.38 1544.9 1064.3 1562.95Z" fill="#0B4C52"/>
<path d="M1035.39 1297.3L1087 1314.48" stroke="#0B4C52" stroke-width="1.1191" stroke-miterlimit="10" stroke-linecap="round" stroke-linejoin="round"/>
<path d="M1025.95 1327.94C1025.95 1327.94 1060.51 1317.67 1080.69 1327.94" stroke="#0B4C52" stroke-width="1.1191" stroke-miterlimit="10" stroke-linecap="round" stroke-linejoin="round"/>
<path d="M1225.08 1358.57C1225.08 1358.57 1209.13 1316.6 1185.63 1310.72" stroke="#0B4C52" stroke-width="1.1191" stroke-miterlimit="10" stroke-linecap="round" stroke-linejoin="round"/>
<path d="M1181.43 1347.66L1210.81 1358.57" stroke="#0B4C52" stroke-width="1.1191" stroke-miterlimit="10" stroke-linecap="round" stroke-linejoin="round"/>
<path d="M986.076 1218.4V1527.28" stroke="#B8E0D0" stroke-width="1.1191" stroke-miterlimit="10"/>
<path d="M1065.29 830.744C1062.29 831.132 1060.62 834.444 1062.07 837.096C1065.4 843.18 1070.51 853.296 1074.86 865.284C1082.03 884.984 1096.36 917.672 1129.94 918.12C1161.92 918.548 1177.25 887.308 1181.73 867.312C1182.17 865.372 1182.21 863.38 1181.98 861.408L1178.3 829.464C1178.3 829.464 1145.8 836.728 1129.56 807.096C1127.68 803.668 1123.07 803.076 1120.3 805.832C1108.97 817.096 1094.68 818.832 1087.49 818.912C1084.84 818.94 1082.39 820.24 1080.78 822.348C1078.39 825.476 1073.7 829.652 1065.29 830.744Z" fill="#FEAD90"/>
<path d="M1144.42 879.483C1150.72 879.483 1155.83 874.372 1155.83 868.067C1155.83 861.763 1150.72 856.651 1144.42 856.651C1138.11 856.651 1133 861.763 1133 868.067C1133 874.372 1138.11 879.483 1144.42 879.483Z" fill="#FEAD90"/>
<path d="M1092.33 872.256C1094.87 871.086 1095.54 867.136 1093.83 863.435C1092.13 859.734 1088.69 857.682 1086.15 858.852C1083.61 860.022 1082.94 863.971 1084.64 867.672C1086.35 871.374 1089.79 873.426 1092.33 872.256Z" fill="#0B4C52"/>
<path d="M1124.65 858.808C1127.19 857.638 1127.87 853.689 1126.16 849.988C1124.45 846.287 1121.01 844.235 1118.47 845.405C1115.94 846.575 1115.26 850.524 1116.97 854.225C1118.68 857.927 1122.12 859.978 1124.65 858.808Z" fill="#0B4C52"/>
<path d="M1170.67 834.356L1169.47 830.868L1140.2 840.932C1138.37 841.56 1136.31 841.032 1135.1 839.528C1132.44 836.224 1129.18 833.636 1125.59 832.112C1120.51 829.96 1115.44 830.088 1111.29 832.48C1105.81 835.644 1103.24 842.204 1103.83 849.384L1097.4 853.24C1095.16 851.032 1092.65 849.236 1089.92 848.08C1084.85 845.924 1079.78 846.056 1075.63 848.448C1071.49 850.84 1068.84 855.168 1068.17 860.644C1067.52 865.924 1068.8 871.672 1071.78 876.832C1074.76 881.992 1079.1 885.976 1084 888.056C1086.4 889.076 1088.8 889.58 1091.1 889.58C1093.66 889.58 1096.11 888.948 1098.29 887.688C1106.66 882.856 1108.39 870.12 1102.14 859.304C1101.47 858.144 1100.71 857.068 1099.92 856.036L1104.46 853.308C1105.07 855.848 1106.02 858.404 1107.44 860.86C1112.05 868.844 1119.73 873.588 1126.8 873.588C1129.32 873.588 1131.76 872.988 1133.95 871.72C1138.09 869.328 1140.74 864.996 1141.41 859.524C1141.8 856.332 1141.45 852.98 1140.46 849.688C1139.72 847.212 1140.94 844.58 1143.38 843.74L1170.67 834.356ZM1096.45 884.492C1093.33 886.288 1089.43 886.344 1085.44 884.656C1081.28 882.888 1077.56 879.452 1074.98 874.984C1072.4 870.516 1071.28 865.58 1071.83 861.092C1072.36 856.796 1074.36 853.44 1077.48 851.644C1079.08 850.716 1080.9 850.252 1082.83 850.252C1084.64 850.252 1086.55 850.664 1088.48 851.48C1092.64 853.248 1096.36 856.684 1098.94 861.152C1104.18 870.204 1103.05 880.676 1096.45 884.492ZM1137.75 859.072C1137.22 863.368 1135.22 866.724 1132.11 868.524C1125.49 872.344 1115.87 868.072 1110.64 859.016C1105.41 849.96 1106.53 839.488 1113.14 835.672C1114.75 834.744 1116.57 834.28 1118.5 834.28C1120.31 834.28 1122.22 834.692 1124.15 835.508C1128.31 837.276 1132.02 840.712 1134.6 845.18H1134.6C1137.19 849.652 1138.3 854.584 1137.75 859.072Z" fill="#0B4C52"/>
<path d="M1099.6 835.123C1099.85 832.967 1100.74 830.823 1102.13 829.047C1103.55 827.315 1105.34 825.883 1107.34 824.995C1111.33 823.163 1115.76 822.987 1119.69 824.011C1120.7 824.275 1121.31 825.303 1121.05 826.315C1120.82 827.187 1120.02 827.759 1119.15 827.727L1119.1 827.723C1115.65 827.603 1112.27 828.015 1109.43 829.403C1106.59 830.771 1104.49 832.999 1103.27 835.983L1103.23 836.059C1102.83 837.023 1101.73 837.487 1100.77 837.087C1099.96 836.755 1099.51 835.939 1099.6 835.123Z" fill="#F36551"/>
<path d="M1068.04 845.68C1070.06 842.668 1073.46 840.724 1076.86 840.064C1080.28 839.4 1083.77 839.592 1086.94 840.628C1088.05 840.992 1088.66 842.188 1088.3 843.3C1087.97 844.3 1086.96 844.892 1085.96 844.736L1085.91 844.728C1083.18 844.3 1080.44 844.148 1077.9 844.792C1075.38 845.412 1073.13 846.548 1071.34 848.32L1071.28 848.372C1070.45 849.196 1069.11 849.188 1068.29 848.356C1067.56 847.624 1067.48 846.5 1068.04 845.68Z" fill="#F36551"/>
<path d="M1186.84 872.912C1199.64 872.912 1210.02 859.67 1210.02 843.336C1210.02 827.001 1199.64 813.76 1186.84 813.76C1174.04 813.76 1163.67 827.001 1163.67 843.336C1163.67 859.67 1174.04 872.912 1186.84 872.912Z" fill="white"/>
<path d="M1153.27 745.664C1147.56 742.032 1141.36 739.404 1134.97 737.58C1119.19 733.08 1102.09 734.02 1087.19 740.872C1077.35 745.4 1070.47 751.316 1065.6 757.232C1070.38 759.096 1075.34 760.316 1081.01 759.8C1082.38 759.676 1083.91 759.3 1085.54 758.768C1089.92 757.34 1095.17 754.64 1100.91 751.6C1115.57 747.532 1132.27 749.8 1145.37 758.12C1158.58 766.512 1174.39 784.528 1174.69 822.696L1189.45 822.58C1189.17 787.62 1176.33 760.304 1153.27 745.664Z" fill="white"/>
<path d="M1106.88 859.776C1109.17 862.536 1110.66 865.86 1111.56 869.236C1112.54 872.612 1112.9 876.096 1113.06 879.556C1113.13 881.292 1113.13 883.028 1113.01 884.768C1112.89 885.508 1113.55 886.22 1114.4 886.244C1114.89 886.196 1114.96 886.232 1115.74 885.628L1117.77 884.14L1121.86 881.18C1122.41 880.78 1123.18 880.904 1123.58 881.456C1123.95 881.976 1123.86 882.696 1123.39 883.108L1119.57 886.408L1117.66 888.052C1117.18 888.536 1115.72 889.512 1114.5 889.456C1111.94 889.68 1109.38 887.32 1109.57 884.592C1109.61 882.976 1109.61 881.348 1109.51 879.728C1109.08 873.244 1107.7 866.832 1104.85 861.164L1104.83 861.12C1104.52 860.512 1104.77 859.768 1105.38 859.46C1105.9 859.196 1106.52 859.344 1106.88 859.776Z" fill="#F36551"/>
<path d="M1121.73 888.271C1125.23 888.035 1128.79 886.731 1131.65 884.719C1134.55 882.699 1136.59 879.935 1137.64 876.507L1137.66 876.439C1137.89 875.687 1138.69 875.263 1139.44 875.495C1140.05 875.683 1140.45 876.251 1140.45 876.863C1140.44 879.079 1139.79 881.339 1138.63 883.295C1137.41 885.207 1135.84 886.891 1133.99 888.103C1130.31 890.527 1125.91 891.851 1121.46 891.087C1120.69 890.955 1120.17 890.223 1120.3 889.451C1120.41 888.795 1120.96 888.323 1121.6 888.279L1121.73 888.271Z" fill="#F36551"/>
<path d="M1186.85 868.531C1186.71 868.531 1186.58 868.519 1186.44 868.495C1178.38 867.011 1172.66 861.375 1170.36 852.623C1167.43 841.539 1170.5 827.075 1176.94 821.675C1177.88 820.879 1179.3 820.999 1180.09 821.951C1180.89 822.899 1180.76 824.311 1179.82 825.103C1175.24 828.947 1172 841.307 1174.68 851.483C1175.99 856.423 1179.23 862.619 1187.25 864.095C1188.46 864.319 1189.27 865.487 1189.04 866.699C1188.85 867.775 1187.91 868.531 1186.85 868.531Z" fill="#B8E0D0"/>
<path d="M448.409 915.683C445.361 920.131 444.025 925.571 443.769 930.947C443.585 934.823 443.905 938.839 442.505 942.459C441.249 945.707 438.713 948.323 437.361 951.531C435.609 955.683 436.001 960.419 436.917 964.831C437.797 969.067 439.137 973.207 440.901 977.163C444.441 974.187 445.081 968.799 448.505 965.695C451.873 962.639 456.961 962.591 461.073 960.643C465.661 958.471 468.721 954.115 471.941 950.203C479.437 941.095 490.217 933.115 501.977 934.283C500.457 925.635 495.393 917.659 488.201 912.591C476.849 904.595 457.165 902.907 448.409 915.683Z" fill="#0B4C52"/>
<path d="M553.432 963.024C550.116 960.252 546.512 957.708 543.956 954.228C539.152 947.688 538.8 939.048 537.844 931C536.888 922.952 534.56 914.108 527.64 909.848C522.804 906.872 516.716 906.828 511.092 907.648C505.468 908.468 499.92 910.056 494.236 910.024C488.016 909.988 481.996 908.012 475.876 906.88C469.76 905.748 463.052 905.564 457.732 908.776C463.472 907.932 469.996 907.292 474.44 911.008C477.196 913.312 478.552 916.892 479.168 920.424C481.192 932 476.624 944.876 482.344 955.148C488.328 965.9 502.592 968.54 511.944 976.56C522.128 985.292 525.456 999.368 528.224 1012.47C528.664 1014.55 550.924 1008.52 552.976 1007.78C558.652 1005.75 565.44 1003.06 568.308 997.316C574.288 985.384 561.916 970.112 553.432 963.024Z" fill="#0B4C52"/>
<path d="M561.173 971.011C554.861 963.563 545.849 958.959 536.201 957.491C511.569 953.743 480.341 953.103 479.369 941.827C479.445 946.519 480.065 951.047 482.353 955.155C488.337 965.907 502.601 968.547 511.953 976.567C522.137 985.299 525.465 999.375 528.233 1012.48C528.673 1014.56 550.933 1008.52 552.985 1007.79C558.661 1005.76 565.449 1003.06 568.317 997.323C572.757 988.451 567.761 978.783 561.173 971.011Z" fill="#0B4C52"/>
<path d="M542.036 1021.26C544.24 1016.17 546.448 1011.06 548.032 1005.74C551.616 993.699 552.636 979.507 562.316 971.683C567.06 967.847 573.264 966.215 577.924 962.271C584.968 956.311 587.184 946.327 592.684 938.871C596.952 933.083 603.284 928.903 610.216 927.295C616.312 925.879 622.76 926.395 628.752 924.575C641.784 920.623 649.316 907.027 660.296 898.859C668.188 892.987 678.368 889.955 687.96 891.879C697.552 893.803 706.22 901.127 708.696 910.751C705.26 908.195 700.2 909.151 696.852 911.831C693.508 914.511 691.496 918.523 689.684 922.443C685.884 930.655 682.46 939.099 677.604 946.719C672.752 954.335 666.272 961.199 658.036 964.687C647.892 968.983 634.924 968.459 628.036 977.171C623.184 983.311 623.24 991.895 621.992 999.671C621.016 1005.76 618.964 1011.93 614.648 1016.26C609.596 1021.34 602.316 1023.14 595.72 1025.81C589.124 1028.48 582.296 1033.1 581.088 1040.21C580.14 1040.21 578.724 1039.79 577.776 1039.79L533.572 1039.77C535.56 1033.32 539.36 1027.44 542.036 1021.26Z" fill="#0B4C52"/>
<path d="M614.652 1016.25C618.964 1011.92 621.02 1005.75 621.996 999.66C622.116 998.916 622.216 998.16 622.316 997.404C613.476 999.6 597.992 1003.15 583.664 1004.96C571.696 1006.47 566.796 999.624 562.956 991.252C560.56 986.032 552.936 986.596 551.492 992.156C550.316 996.692 549.34 1001.35 548.036 1005.74C546.452 1011.06 544.244 1016.16 542.04 1021.25C539.364 1027.44 535.564 1033.32 533.572 1039.76L577.776 1039.78C578.724 1039.78 580.14 1040.2 581.088 1040.2C582.296 1033.08 589.124 1028.47 595.72 1025.8C602.32 1023.13 609.6 1021.33 614.652 1016.25Z" fill="#0B4C52"/>
<path d="M553.657 1034.34H521.553C521.553 1034.34 518.457 1021.74 513.817 1017.55C509.177 1013.35 523.441 984.396 523.441 984.396C523.441 984.396 536.241 983.976 537.081 984.396C537.921 984.816 546.733 997.824 546.733 997.824C546.733 997.824 555.965 1014.82 553.657 1034.34Z" fill="#0B4C52"/>
<path d="M581.992 1196.54H527.444C519.916 1196.54 513.816 1190.44 513.816 1182.91V1034.31H595.624V1182.91C595.624 1190.44 589.52 1196.54 581.992 1196.54Z" fill="#626A7A"/>
<path d="M566.357 1034.3C575.481 1034.3 575.901 1078.61 595.625 1088.26V1034.3H566.357Z" fill="#0B4C52"/>
<path d="M575.773 1017.03C583.137 1013.72 591.397 1012.11 599.389 1013.3C607.381 1014.48 615.053 1018.63 619.737 1025.2C623.297 1030.18 625.017 1036.28 628.505 1041.32C632.213 1046.67 637.777 1050.62 641.085 1056.23C644.753 1062.45 645.233 1069.97 645.493 1077.18C645.681 1082.37 645.789 1087.63 644.497 1092.66C643.201 1097.69 640.313 1102.52 635.765 1105.06C636.661 1099.8 632.809 1094.78 628.257 1091.98C623.705 1089.18 618.389 1087.87 613.645 1085.41C599.333 1077.98 592.533 1061.65 586.825 1046.6C585.193 1042.3 583.525 1037.94 580.761 1034.25C577.997 1030.57 573.937 1027.6 569.341 1027.21C565.673 1026.89 562.681 1029.18 559.225 1029.06C562.597 1023.78 570.061 1019.61 575.773 1017.03Z" fill="#0B4C52"/>
<path d="M540.181 994.056C546.785 999.492 547.313 1009.21 547.313 1017.75C547.313 1023.35 547.425 1028.82 547.529 1034.3H559.221C559.289 1022.63 557.469 1010.94 554.165 999.728C551.893 992.02 548.845 984.36 543.637 978.224C538.429 972.088 530.761 967.632 522.701 967.836C516.773 967.988 511.177 970.584 506.117 973.668C499.629 977.624 493.477 982.744 490.449 989.692C488.589 993.968 487.961 998.808 485.321 1002.66C482.629 1006.57 478.233 1008.9 474.069 1011.2C466.689 1015.28 459.513 1019.72 452.573 1024.5C449.801 1026.4 447.045 1028.39 444.765 1030.86C439.613 1036.46 437.293 1044.26 437.389 1051.85C437.485 1059.44 439.833 1066.86 443.049 1073.74C444.733 1077.35 444.081 1081.39 442.461 1085.03C440.841 1088.66 438.277 1091.78 435.933 1095C428.405 1105.33 422.777 1117.88 424.249 1130.56C425.717 1143.24 436.169 1155.41 448.981 1155.41C448.813 1142.25 449.209 1127.61 458.405 1118.16C466.589 1109.76 479.293 1108.07 490.965 1106.7C495.141 1106.21 499.441 1105.66 503.081 1103.56C510.337 1099.38 513.061 1090.05 512.473 1081.72C511.885 1073.39 508.709 1065.48 506.985 1057.3C505.261 1049.12 505.201 1039.92 510.173 1033.2C513.597 1028.56 519.041 1025.63 522.113 1020.76C526.237 1014.22 525.249 1005.68 528.157 998.532C529.545 995.12 532.561 991.728 536.229 992.16C537.701 992.332 539.037 993.116 540.181 994.056Z" fill="#0B4C52"/>
<path d="M570.01 1010.39C569.97 1010.39 569.93 1010.39 569.89 1010.38C569.274 1010.32 568.826 1009.77 568.894 1009.16C570.27 995.967 576.914 983.747 586.67 976.467C587.914 975.535 588.942 974.815 589.83 974.195C594.446 970.963 595.154 970.463 604.322 955.275C610.726 944.659 619.998 943.235 628.962 941.851C635.862 940.787 642.377 939.787 647.273 934.623C650.269 931.467 653.286 927.719 656.478 923.759C665.774 912.215 675.386 900.283 686.486 900.283C687.106 900.283 687.606 900.783 687.606 901.403C687.606 902.023 687.106 902.523 686.486 902.523C676.458 902.523 667.185 914.035 658.221 925.167C655.001 929.167 651.954 932.947 648.898 936.167C643.474 941.887 636.27 942.995 629.306 944.067C620.462 945.431 612.102 946.715 606.238 956.435C596.83 972.027 595.958 972.639 591.114 976.027C590.242 976.639 589.234 977.347 588.006 978.259C578.746 985.171 572.434 996.811 571.118 1009.39C571.058 1009.96 570.574 1010.39 570.01 1010.39Z" fill="#0B4C52"/>
<path d="M513.148 970.075C509.312 974.699 506.144 980.459 503.868 987.163C503.228 989.051 502.66 990.971 502.088 992.895C500.512 998.207 498.884 1003.7 495.704 1008.19C492.368 1012.9 487.368 1016.43 482.532 1019.84C476.396 1024.18 470.052 1028.66 466.896 1035.64C463.68 1042.77 464.144 1051.64 468.324 1062.78L468.948 1064.42C470.324 1067.99 471.744 1071.7 471.736 1075.44C471.712 1084.54 463.412 1091.66 456.448 1096.02C455.64 1096.52 454.828 1097.02 454.012 1097.52C450.56 1099.62 446.992 1101.79 444.04 1104.71C439.772 1108.92 437.636 1114.27 438.324 1119.01C438.404 1119.57 438.884 1119.97 439.428 1119.97C439.484 1119.97 439.536 1119.96 439.592 1119.96C440.204 1119.87 440.624 1119.3 440.54 1118.69C439.952 1114.65 441.848 1110.02 445.612 1106.3C448.38 1103.56 451.836 1101.46 455.176 1099.43C456 1098.92 456.824 1098.43 457.64 1097.92C468.308 1091.23 473.956 1083.46 473.976 1075.45C473.988 1071.28 472.488 1067.39 471.04 1063.62L470.42 1062C466.46 1051.44 465.976 1043.13 468.94 1036.57C471.848 1030.14 477.664 1026.03 483.828 1021.68C488.816 1018.16 493.976 1014.52 497.536 1009.49C500.928 1004.7 502.608 999.023 504.236 993.539C504.796 991.643 505.356 989.747 505.988 987.891C507.724 982.775 511.276 974.787 517.556 968.619C516.056 968.983 514.588 969.479 513.148 970.075Z" fill="#0B4C52"/>
<path d="M633.457 1075.86C633.513 1076.44 634.001 1076.87 634.569 1076.87C634.605 1076.87 634.645 1076.87 634.681 1076.87C635.297 1076.81 635.745 1076.26 635.685 1075.64C635.273 1071.48 633.429 1067.54 630.485 1064.55C628.337 1062.38 625.721 1060.81 623.185 1059.3C620.753 1057.84 618.453 1056.46 616.537 1054.6C613.637 1051.77 611.821 1047.98 610.069 1044.32L603.345 1030.28C602.065 1027.61 600.745 1024.85 598.917 1022.4C595.745 1018.14 591.013 1015.18 585.869 1013.78C584.125 1014.13 582.397 1014.58 580.701 1015.14C587.061 1015.53 593.321 1018.63 597.121 1023.74C598.821 1026.02 600.093 1028.67 601.325 1031.24L608.049 1045.29C609.801 1048.95 611.789 1053.1 614.973 1056.2C617.077 1058.25 619.597 1059.76 622.037 1061.22C624.561 1062.72 626.945 1064.15 628.893 1066.12C631.477 1068.75 633.101 1072.21 633.457 1075.86Z" fill="#0B4C52"/>
<path d="M513.588 945.007C513.892 945.007 514.2 944.879 514.42 944.635C514.832 944.175 514.792 943.467 514.336 943.055C512.02 940.979 510.508 937.791 509.58 933.015C509.364 931.919 509.188 930.815 509.008 929.707C508.544 926.843 508.068 923.879 506.972 921.083C505.056 916.199 501.248 912.235 496.616 909.895C495.824 909.947 495.036 910.035 494.24 910.031C492 910.019 489.792 909.711 487.588 909.323C487.772 909.615 488.04 909.843 488.412 909.867C495.512 910.327 502.288 915.275 504.888 921.899C505.896 924.471 506.336 927.187 506.8 930.059C506.98 931.191 507.164 932.323 507.38 933.439C508.028 936.763 509.296 941.543 512.836 944.719C513.056 944.915 513.324 945.007 513.588 945.007Z" fill="#0B4C52"/>
<path d="M521.762 1045.33H577.946" stroke="#0B4C52" stroke-width="0.5596" stroke-miterlimit="10" stroke-linecap="round" stroke-linejoin="round"/>
<path d="M527.445 1196.54H581.993C589.521 1196.54 595.621 1190.44 595.621 1182.91V1167.32C595.621 1148.2 585.521 1130.39 568.885 1120.96C541.773 1105.59 513.809 1080.32 513.809 1063.54V1182.91C513.813 1190.44 519.917 1196.54 527.445 1196.54Z" fill="#0B4C52"/>
<path d="M705.524 1196.2H560.832C550.524 1196.2 542.168 1187.84 542.168 1177.54V1156.62C542.168 1146.31 550.524 1137.95 560.832 1137.95H705.524V1196.2Z" fill="#7EC1B2"/>
<path d="M554.663 1177.54V1156.62C554.663 1146.31 563.019 1137.95 573.327 1137.95H563.811C557.003 1141.44 552.283 1148.45 552.283 1156.62V1177.54C552.283 1185.7 557.003 1192.71 563.811 1196.2H573.327C563.019 1196.2 554.663 1187.84 554.663 1177.54Z" fill="#F5C365"/>
<path d="M563.927 1177.54V1156.62C563.927 1146.31 572.283 1137.95 582.591 1137.95H573.075C566.267 1141.44 561.547 1148.45 561.547 1156.62V1177.54C561.547 1185.7 566.267 1192.71 573.075 1196.2H582.591C572.283 1196.2 563.927 1187.84 563.927 1177.54Z" fill="#F5C365"/>
<path d="M661.116 1177.54V1156.62C661.116 1146.31 669.472 1137.95 679.78 1137.95H670.264C663.456 1141.44 658.736 1148.45 658.736 1156.62V1177.54C658.736 1185.7 663.456 1192.71 670.264 1196.2H679.78C669.472 1196.2 661.116 1187.84 661.116 1177.54Z" fill="#F5C365"/>
<path d="M670.384 1177.54V1156.62C670.384 1146.31 678.74 1137.95 689.048 1137.95H679.532C672.724 1141.44 668.004 1148.45 668.004 1156.62V1177.54C668.004 1185.7 672.724 1192.71 679.532 1196.2H689.048C678.74 1196.2 670.384 1187.84 670.384 1177.54Z" fill="#F5C365"/>
<path d="M846.559 1196.2H701.867C691.559 1196.2 683.203 1187.84 683.203 1177.54V1156.62C683.203 1146.31 691.559 1137.95 701.867 1137.95H846.559V1196.2Z" fill="#0B4C52"/>
<path d="M846.561 1190.68H703.513C695.525 1190.68 689.049 1184.2 689.049 1176.21V1157.94C689.049 1149.96 695.525 1143.48 703.513 1143.48H846.561V1190.68Z" fill="#EDE5DA"/>
<path d="M843.099 1169.58H689.043V1171.39H843.099V1169.58Z" fill="white"/>
<path d="M843.103 1185.04V1183.23H690.939C691.295 1183.87 691.687 1184.47 692.131 1185.04H843.103Z" fill="white"/>
<path d="M689.062 1176.41C689.071 1177.02 689.162 1177.62 689.246 1178.22H843.102V1176.41H689.062Z" fill="white"/>
<path d="M689.246 1155.94C689.162 1156.53 689.075 1157.12 689.062 1157.74H843.098V1155.94H689.246Z" fill="white"/>
<path d="M843.099 1162.76H689.043V1164.57H843.099V1162.76Z" fill="white"/>
<path d="M692.128 1149.11C691.684 1149.68 691.292 1150.28 690.936 1150.92H843.1V1149.11H692.128Z" fill="white"/>
<path d="M729.055 1201.89C721.811 1198.53 716.487 1195.17 712.243 1191.81C708.839 1195.17 706.511 1198.53 706.107 1201.89C690.519 1186.57 714.863 1171.26 699.275 1155.94C706.923 1155.94 714.575 1155.94 722.223 1155.94C737.807 1171.26 713.467 1186.57 729.055 1201.89Z" fill="#FEAD90"/>
<path d="M786.255 1644.57C795.559 1645.83 804.483 1649.1 812.623 1653.24C820.783 1657.41 828.135 1662.54 835.203 1667.56C849.303 1677.62 862.307 1687.96 876.987 1692.6C884.243 1694.9 891.811 1696.18 899.175 1695.8C906.531 1695.42 913.639 1693.28 919.775 1689.54C925.967 1685.91 931.215 1680.64 934.759 1674.41C938.291 1668.16 939.895 1661.01 939.371 1654.04L939.343 1653.69C939.067 1650.03 941.811 1646.84 945.471 1646.56C948.875 1646.31 951.883 1648.7 952.503 1651.98C954.371 1662.02 952.531 1672.47 948.143 1681.43C943.579 1690.33 936.619 1697.89 928.223 1703.27C919.783 1708.6 909.959 1711.55 900.191 1712.16C890.399 1712.8 880.743 1711.2 871.767 1708.08C853.651 1701.76 839.347 1690.11 826.143 1679.7C812.823 1669.29 799.495 1660.06 784.159 1656.62L784.099 1656.61C780.803 1655.88 778.727 1652.6 779.463 1649.31C780.159 1646.18 783.147 1644.16 786.255 1644.57Z" fill="#F8A255"/>
<path d="M871.765 1708.08C877.181 1709.96 882.857 1711.2 888.649 1711.81C874.873 1705.48 864.033 1692.58 851.881 1679.44C846.377 1675.69 840.877 1671.61 835.201 1667.56C828.133 1662.53 820.781 1657.4 812.621 1653.23C804.481 1649.1 795.557 1645.83 786.253 1644.57C783.145 1644.15 780.157 1646.17 779.461 1649.29C778.725 1652.59 780.797 1655.86 784.097 1656.6L784.157 1656.61C799.493 1660.04 812.821 1669.28 826.141 1679.69C839.345 1690.1 853.649 1701.75 871.765 1708.08Z" fill="#0B4C52"/>
<path d="M794.461 1750.13L769.533 1834.89H747.673C747.673 1834.89 759.761 1801.84 761.481 1781.2C763.397 1758.19 735.785 1731.72 735.785 1731.72C735.785 1731.72 776.817 1724.05 794.461 1750.13Z" fill="#0B4C52"/>
<path d="M641.946 1750L652.682 1834.89H630.182L618.422 1776.6L641.946 1750Z" fill="#0B4C52"/>
<path d="M553.126 1536.1C552.234 1533.43 554.762 1530.84 557.478 1531.55C562.59 1532.9 570.63 1533.79 578.534 1529.6C591.574 1522.7 608.066 1515.03 609.598 1509.28C610.458 1506.05 611.198 1501.98 611.682 1499.02C612.042 1496.83 614.458 1495.68 616.398 1496.76C620.002 1498.77 624.706 1502.96 624.938 1511.19C628.774 1518.86 642.198 1518.86 646.798 1536.89C651.402 1554.91 639.894 1568.34 641.43 1578.69C642.582 1586.46 662.502 1595.3 677.726 1607.82C690.694 1618.47 706.726 1624.68 723.418 1626.42C757.406 1629.96 796.93 1633.26 812.482 1656.16C833.574 1687.23 840.094 1716.76 850.834 1730.57C861.574 1744.38 873.462 1744.76 878.066 1750.51C882.67 1756.26 880.75 1834.89 880.75 1834.89H863.874C863.874 1834.89 866.558 1791.93 852.37 1780.43C838.89 1769.5 811.218 1769.64 780.202 1748.64C776.458 1746.1 772.194 1744.5 767.75 1743.68C748.642 1740.16 697.214 1731.81 660.834 1736.5C654.294 1737.34 649.362 1742.78 649.154 1749.37C649.01 1753.96 648.598 1758.88 647.562 1761.64C645.262 1767.77 621.098 1807.66 616.878 1834.89H597.702C597.702 1834.89 596.934 1813.41 601.154 1798.45C605.374 1783.5 612.658 1762.02 608.826 1746.68C604.99 1731.34 584.282 1709.86 582.362 1680.32C582.362 1680.32 561.65 1642.74 563.57 1552.22C563.578 1552.23 555.978 1544.64 553.126 1536.1Z" fill="#F8A255"/>
<path d="M594.737 1542.65C597.015 1542.65 598.861 1540.8 598.861 1538.52C598.861 1536.25 597.015 1534.4 594.737 1534.4C592.46 1534.4 590.613 1536.25 590.613 1538.52C590.613 1540.8 592.46 1542.65 594.737 1542.65Z" fill="#0B4C52"/>
<path d="M618.71 1528.46C620.988 1528.46 622.834 1526.61 622.834 1524.33C622.834 1522.05 620.988 1520.21 618.71 1520.21C616.432 1520.21 614.586 1522.05 614.586 1524.33C614.586 1526.61 616.432 1528.46 618.71 1528.46Z" fill="#0B4C52"/>
<path d="M611.786 1536.48L615.226 1534.15C616.726 1533.14 618.826 1534.05 619.01 1535.85C619.17 1537.43 619.098 1539.41 618.378 1541.53C615.294 1541.99 613.19 1541.37 611.806 1540.53C610.318 1539.64 610.35 1537.46 611.786 1536.48Z" fill="#0B4C52"/>
<path d="M616.738 1553.17C622.13 1549.8 619.082 1543.75 619.082 1543.75C622.142 1546.32 625.838 1547.91 630.066 1545.21" stroke="#0B4C52" stroke-width="0.6818" stroke-miterlimit="10" stroke-linecap="round" stroke-linejoin="round"/>
<path d="M592.342 1553.17L577.002 1560.8" stroke="#0B4C52" stroke-width="0.6818" stroke-miterlimit="10" stroke-linecap="round" stroke-linejoin="round"/>
<path d="M598.862 1556.98L584.67 1570.76" stroke="#0B4C52" stroke-width="0.6818" stroke-miterlimit="10" stroke-linecap="round" stroke-linejoin="round"/>
<path d="M604.422 1560.8L597.434 1577.03" stroke="#0B4C52" stroke-width="0.6818" stroke-miterlimit="10" stroke-linecap="round" stroke-linejoin="round"/>
<path d="M1536.31 938.34C1619.02 938.34 1686.06 871.294 1686.06 788.588C1686.06 705.882 1619.02 638.836 1536.31 638.836C1453.61 638.836 1386.56 705.882 1386.56 788.588C1386.56 871.294 1453.61 938.34 1536.31 938.34Z" fill="white"/>
<path d="M1594.59 753.679C1594.59 719.307 1564.83 691.883 1529.67 695.771C1503.77 698.635 1482.46 719.107 1478.68 744.895C1476.24 761.587 1480.9 777.151 1490.07 789.079C1496.94 798.015 1502.02 808.187 1504.18 819.247L1506.94 833.375C1507.58 836.683 1510.48 839.072 1513.85 839.072H1558.77C1562.14 839.072 1565.04 836.683 1565.68 833.375L1568.44 819.259C1570.61 808.143 1575.77 797.956 1582.65 788.96C1590.14 779.172 1594.59 766.951 1594.59 753.679Z" fill="#FFBE43"/>
<path d="M1535.74 881.767C1545.57 881.767 1553.54 877.161 1553.54 871.479C1553.54 865.797 1545.57 861.191 1535.74 861.191C1525.9 861.191 1517.94 865.797 1517.94 871.479C1517.94 877.161 1525.9 881.767 1535.74 881.767Z" fill="#0B4C52"/>
<path d="M1556.16 874.555H1515.31C1511.46 874.555 1508.33 871.431 1508.33 867.579V843.335C1508.33 840.979 1510.24 839.071 1512.59 839.071H1558.88C1561.24 839.071 1563.14 840.979 1563.14 843.335V867.579C1563.14 871.431 1560.02 874.555 1556.16 874.555Z" fill="#7EC1B2"/>
<path d="M1570.17 773.752C1563.23 773.752 1559.87 766.076 1558.55 758.52C1557.83 754.456 1559.44 750.26 1561.7 750.26C1563.97 750.26 1565.57 754.456 1564.86 758.52C1563.53 766.076 1560.18 773.752 1553.24 773.752C1546.3 773.752 1542.95 766.076 1541.62 758.52C1540.9 754.456 1542.51 750.26 1544.78 750.26C1547.04 750.26 1548.64 754.456 1547.93 758.52C1546.6 766.076 1543.25 773.752 1536.31 773.752C1529.37 773.752 1526.02 766.076 1524.69 758.52C1523.98 754.456 1525.58 750.26 1527.85 750.26C1530.12 750.26 1531.72 754.456 1531 758.52C1529.68 766.076 1526.32 773.752 1519.38 773.752C1512.44 773.752 1509.09 766.076 1507.76 758.52C1507.05 754.456 1508.65 750.26 1510.92 750.26C1513.19 750.26 1514.79 754.456 1514.08 758.52C1512.75 766.076 1509.4 773.752 1502.46 773.752" stroke="white" stroke-width="0.8556" stroke-miterlimit="10" stroke-linecap="round" stroke-linejoin="round"/>
<path d="M1440.19 868.532L1408.36 961.268L1490.72 902.208L1440.19 868.532Z" fill="white"/>
<path d="M309.629 1836.15H1698.6" stroke="#709687" stroke-width="1.0237" stroke-miterlimit="10"/>
</svg>
